<?xml version="1.0" encoding="UTF-8" standalone="no"?>
<!DOCTYPE svg PUBLIC "-//W3C//DTD SVG 1.1//EN" "http://www.w3.org/Graphics/SVG/1.1/DTD/svg11.dtd">
<svg xmlns="http://www.w3.org/2000/svg" xmlns:xl="http://www.w3.org/1999/xlink" version="1.1" xmlns:dc="http://purl.org/dc/elements/1.1/" viewBox="0 0 559 334" width="559" height="334">
  <defs/>
  <metadata> Produced by OmniGraffle 7.11.4 
    <dc:date>2019-10-14 15:19:01 +0000</dc:date>
  </metadata>
  <g id="vic-1" stroke-opacity="1" stroke-dasharray="none" fill-opacity="1" fill="none" stroke="none">
    <title>vic-1</title>
    <g id="vic-1: Layer 1">
      <title>Layer 1</title>
      <g id="Graphic_99">
        <circle cx="396" cy="171" r="162.000258860107" fill="#ff7f81"/>
        <circle cx="396" cy="171" r="162.000258860107" stroke="black" stroke-linecap="round" stroke-linejoin="round" stroke-width="1"/>
      </g>
      <g id="Graphic_173">
        <circle cx="409.5" cy="202.5" r="22.5000359527927" fill="#599a9e"/>
        <circle cx="409.5" cy="202.5" r="22.5000359527927" stroke="black" stroke-linecap="round" stroke-linejoin="round" stroke-width="1"/>
      </g>
      <g id="Graphic_119">
        <path d="M 346.5 45 L 360 58.5 L 346.5 72 L 333 58.5 Z" fill="#9dc1e3"/>
        <path d="M 346.5 45 L 360 58.5 L 346.5 72 L 333 58.5 Z" stroke="black" stroke-linecap="round" stroke-linejoin="round" stroke-width="1"/>
      </g>
      <g id="Graphic_137">
        <path d="M 292.5 90 L 306 103.5 L 292.5 117 L 279 103.5 Z" fill="#9dc1e3"/>
        <path d="M 292.5 90 L 306 103.5 L 292.5 117 L 279 103.5 Z" stroke="black" stroke-linecap="round" stroke-linejoin="round" stroke-width="1"/>
      </g>
      <g id="Graphic_138">
        <path d="M 409.5 36 L 423 49.5 L 409.5 63 L 396 49.5 Z" fill="#9dc1e3"/>
        <path d="M 409.5 36 L 423 49.5 L 409.5 63 L 396 49.5 Z" stroke="black" stroke-linecap="round" stroke-linejoin="round" stroke-width="1"/>
      </g>
      <g id="Graphic_139">
        <path d="M 364.5 135 L 378 148.5 L 364.5 162 L 351 148.5 Z" fill="#9dc1e3"/>
        <path d="M 364.5 135 L 378 148.5 L 364.5 162 L 351 148.5 Z" stroke="black" stroke-linecap="round" stroke-linejoin="round" stroke-width="1"/>
      </g>
      <g id="Graphic_140">
        <path d="M 301.5 153 L 315 166.5 L 301.5 180 L 288 166.5 Z" fill="#9dc1e3"/>
        <path d="M 301.5 153 L 315 166.5 L 301.5 180 L 288 166.5 Z" stroke="black" stroke-linecap="round" stroke-linejoin="round" stroke-width="1"/>
      </g>
      <g id="Graphic_141">
        <path d="M 391.5 90 L 405 103.5 L 391.5 117 L 378 103.5 Z" fill="#9dc1e3"/>
        <path d="M 391.5 90 L 405 103.5 L 391.5 117 L 378 103.5 Z" stroke="black" stroke-linecap="round" stroke-linejoin="round" stroke-width="1"/>
      </g>
      <g id="Graphic_142">
        <path d="M 355.5 99 L 369 112.5 L 355.5 126 L 342 112.5 Z" fill="#9dc1e3"/>
        <path d="M 355.5 99 L 369 112.5 L 355.5 126 L 342 112.5 Z" stroke="black" stroke-linecap="round" stroke-linejoin="round" stroke-width="1"/>
      </g>
      <g id="Graphic_143">
        <path d="M 364.5 216 L 378 229.5 L 364.5 243 L 351 229.5 Z" fill="#9dc1e3"/>
        <path d="M 364.5 216 L 378 229.5 L 364.5 243 L 351 229.5 Z" stroke="black" stroke-linecap="round" stroke-linejoin="round" stroke-width="1"/>
      </g>
      <g id="Graphic_144">
        <path d="M 418.5 117 L 432 130.5 L 418.5 144 L 405 130.5 Z" fill="#9dc1e3"/>
        <path d="M 418.5 117 L 432 130.5 L 418.5 144 L 405 130.5 Z" stroke="black" stroke-linecap="round" stroke-linejoin="round" stroke-width="1"/>
      </g>
      <g id="Graphic_145">
        <path d="M 274.5 225 L 288 238.5 L 274.5 252 L 261 238.5 Z" fill="#9dc1e3"/>
        <path d="M 274.5 225 L 288 238.5 L 274.5 252 L 261 238.5 Z" stroke="black" stroke-linecap="round" stroke-linejoin="round" stroke-width="1"/>
      </g>
      <g id="Graphic_146">
        <path d="M 436.5 135 L 450 148.5 L 436.5 162 L 423 148.5 Z" fill="#9dc1e3"/>
        <path d="M 436.5 135 L 450 148.5 L 436.5 162 L 423 148.5 Z" stroke="black" stroke-linecap="round" stroke-linejoin="round" stroke-width="1"/>
      </g>
      <g id="Graphic_147">
        <path d="M 472.5 99 L 486 112.5 L 472.5 126 L 459 112.5 Z" fill="#9dc1e3"/>
        <path d="M 472.5 99 L 486 112.5 L 472.5 126 L 459 112.5 Z" stroke="black" stroke-linecap="round" stroke-linejoin="round" stroke-width="1"/>
      </g>
      <g id="Graphic_148">
        <path d="M 436.5 72 L 450 85.5 L 436.5 99 L 423 85.5 Z" fill="#9dc1e3"/>
        <path d="M 436.5 72 L 450 85.5 L 436.5 99 L 423 85.5 Z" stroke="black" stroke-linecap="round" stroke-linejoin="round" stroke-width="1"/>
      </g>
      <g id="Graphic_149">
        <path d="M 463.5 207 L 477 220.5 L 463.5 234 L 450 220.5 Z" fill="#9dc1e3"/>
        <path d="M 463.5 207 L 477 220.5 L 463.5 234 L 450 220.5 Z" stroke="black" stroke-linecap="round" stroke-linejoin="round" stroke-width="1"/>
      </g>
      <g id="Graphic_150">
        <path d="M 418.5 270 L 432 283.5 L 418.5 297 L 405 283.5 Z" fill="#9dc1e3"/>
        <path d="M 418.5 270 L 432 283.5 L 418.5 297 L 405 283.5 Z" stroke="black" stroke-linecap="round" stroke-linejoin="round" stroke-width="1"/>
      </g>
      <g id="Graphic_151">
        <path d="M 481.5 180 L 495 193.5 L 481.5 207 L 468 193.5 Z" fill="#9dc1e3"/>
        <path d="M 481.5 180 L 495 193.5 L 481.5 207 L 468 193.5 Z" stroke="black" stroke-linecap="round" stroke-linejoin="round" stroke-width="1"/>
      </g>
      <g id="Graphic_152">
        <path d="M 481.5 54 L 495 67.5 L 481.5 81 L 468 67.5 Z" fill="#9dc1e3"/>
        <path d="M 481.5 54 L 495 67.5 L 481.5 81 L 468 67.5 Z" stroke="black" stroke-linecap="round" stroke-linejoin="round" stroke-width="1"/>
      </g>
      <g id="Graphic_153">
        <path d="M 508.5 153 L 522 166.5 L 508.5 180 L 495 166.5 Z" fill="#9dc1e3"/>
        <path d="M 508.5 153 L 522 166.5 L 508.5 180 L 495 166.5 Z" stroke="black" stroke-linecap="round" stroke-linejoin="round" stroke-width="1"/>
      </g>
      <g id="Graphic_154">
        <path d="M 499.5 234 L 513 247.5 L 499.5 261 L 486 247.5 Z" fill="#9dc1e3"/>
        <path d="M 499.5 234 L 513 247.5 L 499.5 261 L 486 247.5 Z" stroke="black" stroke-linecap="round" stroke-linejoin="round" stroke-width="1"/>
      </g>
      <g id="Graphic_155">
        <path d="M 265.5 180 L 279 193.5 L 265.5 207 L 252 193.5 Z" fill="#9dc1e3"/>
        <path d="M 265.5 180 L 279 193.5 L 265.5 207 L 252 193.5 Z" stroke="black" stroke-linecap="round" stroke-linejoin="round" stroke-width="1"/>
      </g>
      <g id="Graphic_156">
        <path d="M 535.5 180 L 549 193.5 L 535.5 207 L 522 193.5 Z" fill="#9dc1e3"/>
        <path d="M 535.5 180 L 549 193.5 L 535.5 207 L 522 193.5 Z" stroke="black" stroke-linecap="round" stroke-linejoin="round" stroke-width="1"/>
      </g>
      <g id="Graphic_157">
        <path d="M 526.5 108 L 540 121.5 L 526.5 135 L 513 121.5 Z" fill="#9dc1e3"/>
        <path d="M 526.5 108 L 540 121.5 L 526.5 135 L 513 121.5 Z" stroke="black" stroke-linecap="round" stroke-linejoin="round" stroke-width="1"/>
      </g>
      <g id="Graphic_158">
        <path d="M 409.5 189 L 423 202.5 L 409.5 216 L 396 202.5 Z" fill="#9dc1e3"/>
        <path d="M 409.5 189 L 423 202.5 L 409.5 216 L 396 202.5 Z" stroke="black" stroke-linecap="round" stroke-linejoin="round" stroke-width="1"/>
      </g>
      <g id="Graphic_159">
        <path d="M 328.5 261 L 342 274.5 L 328.5 288 L 315 274.5 Z" fill="#9dc1e3"/>
        <path d="M 328.5 261 L 342 274.5 L 328.5 288 L 315 274.5 Z" stroke="black" stroke-linecap="round" stroke-linejoin="round" stroke-width="1"/>
      </g>
      <g id="Graphic_160">
        <path d="M 337.5 180 L 351 193.5 L 337.5 207 L 324 193.5 Z" fill="#9dc1e3"/>
        <path d="M 337.5 180 L 351 193.5 L 337.5 207 L 324 193.5 Z" stroke="black" stroke-linecap="round" stroke-linejoin="round" stroke-width="1"/>
      </g>
      <g id="Graphic_161">
        <path d="M 373.5 171 L 387 184.5 L 373.5 198 L 360 184.5 Z" fill="#9dc1e3"/>
        <path d="M 373.5 171 L 387 184.5 L 373.5 198 L 360 184.5 Z" stroke="black" stroke-linecap="round" stroke-linejoin="round" stroke-width="1"/>
      </g>
      <g id="Graphic_162">
        <path d="M 463.5 261 L 477 274.5 L 463.5 288 L 450 274.5 Z" fill="#9dc1e3"/>
        <path d="M 463.5 261 L 477 274.5 L 463.5 288 L 450 274.5 Z" stroke="black" stroke-linecap="round" stroke-linejoin="round" stroke-width="1"/>
      </g>
      <g id="Graphic_163">
        <path d="M 364.5 252 L 378 265.5 L 364.5 279 L 351 265.5 Z" fill="#9dc1e3"/>
        <path d="M 364.5 252 L 378 265.5 L 364.5 279 L 351 265.5 Z" stroke="black" stroke-linecap="round" stroke-linejoin="round" stroke-width="1"/>
      </g>
      <g id="Graphic_164">
        <path d="M 427.5 225 L 441 238.5 L 427.5 252 L 414 238.5 Z" fill="#9dc1e3"/>
        <path d="M 427.5 225 L 441 238.5 L 427.5 252 L 414 238.5 Z" stroke="black" stroke-linecap="round" stroke-linejoin="round" stroke-width="1"/>
      </g>
      <g id="Graphic_215">
        <circle cx="31.5" cy="166.5" r="22.5000359527927" fill="#589b9d"/>
        <circle cx="31.5" cy="166.5" r="22.5000359527927" stroke="black" stroke-linecap="round" stroke-linejoin="round" stroke-width="1"/>
      </g>
      <g id="Graphic_214">
        <path d="M 31.5 153 L 45 166.5 L 31.5 180 L 18 166.5 Z" fill="#9dc1e3"/>
        <path d="M 31.5 153 L 45 166.5 L 31.5 180 L 18 166.5 Z" stroke="black" stroke-linecap="round" stroke-linejoin="round" stroke-width="1"/>
      </g>
    </g>
  </g>
</svg>
