<?xml version="1.0" encoding="utf-8"?>
<!-- Generator: Adobe Illustrator 23.0.3, SVG Export Plug-In . SVG Version: 6.00 Build 0)  -->
<svg version="1.1" id="Layer_1" xmlns="http://www.w3.org/2000/svg" xmlns:xlink="http://www.w3.org/1999/xlink" x="0px" y="0px"
	 viewBox="0 0 372 90" style="enable-background:new 0 0 372 90;" xml:space="preserve">
<style type="text/css">
	.st0{fill:url(#SVGID_1_);}
	.st1{fill:url(#SVGID_2_);}
	.st2{fill:url(#SVGID_3_);}
	.st3{fill:url(#SVGID_4_);}
	.st4{fill:url(#SVGID_5_);}
	.st5{fill:url(#SVGID_6_);}
	.st6{fill:url(#SVGID_7_);}
	.st7{fill:url(#SVGID_8_);}
	.st8{fill:url(#SVGID_9_);}
	.st9{fill:url(#SVGID_10_);}
	.st10{fill:url(#SVGID_11_);}
	.st11{fill:url(#SVGID_12_);}
	.st12{fill:url(#SVGID_13_);}
	.st13{fill:url(#SVGID_14_);}
	.st14{fill:url(#SVGID_15_);}
	.st15{fill:url(#SVGID_16_);}
	.st16{fill:url(#SVGID_17_);}
	.st17{fill:url(#SVGID_18_);}
	.st18{fill:url(#SVGID_19_);}
	.st19{fill:url(#SVGID_20_);}
	.st20{fill:url(#SVGID_21_);}
	.st21{fill:url(#SVGID_22_);}
	.st22{fill:url(#SVGID_23_);}
	.st23{fill:#6F999B;}
	.st24{opacity:0.21;}
	.st25{fill:url(#SVGID_24_);}
	.st26{fill:url(#SVGID_25_);}
	.st27{fill:url(#SVGID_26_);}
	.st28{fill:url(#SVGID_27_);}
	.st29{fill:none;stroke:url(#SVGID_28_);stroke-width:0.2663;stroke-miterlimit:10;stroke-dasharray:0.5325;}
	.st30{fill:none;stroke:url(#SVGID_29_);stroke-width:0.2663;stroke-miterlimit:10;stroke-dasharray:0.5325;}
	.st31{fill:url(#SVGID_30_);}
	.st32{fill:url(#SVGID_31_);}
	.st33{fill:url(#SVGID_32_);}
	.st34{fill:url(#SVGID_33_);}
	.st35{fill:url(#SVGID_34_);}
	.st36{fill:url(#SVGID_35_);}
	.st37{fill:url(#SVGID_36_);}
	.st38{fill:url(#SVGID_37_);}
	.st39{fill:url(#SVGID_38_);}
	.st40{fill:url(#SVGID_39_);}
	.st41{fill:#034447;}
	.st42{fill:url(#SVGID_40_);}
	.st43{fill:url(#SVGID_41_);}
	.st44{fill:url(#SVGID_42_);}
	.st45{fill:url(#SVGID_43_);}
	.st46{fill:url(#SVGID_44_);}
	.st47{fill:url(#SVGID_45_);}
	.st48{fill:url(#SVGID_46_);}
	.st49{fill:url(#SVGID_47_);}
	.st50{fill:url(#SVGID_48_);}
	.st51{fill:url(#SVGID_49_);}
	.st52{fill:url(#SVGID_50_);}
	.st53{fill:url(#SVGID_51_);}
	.st54{fill:url(#SVGID_52_);}
	.st55{fill:url(#SVGID_53_);}
	.st56{fill:url(#SVGID_54_);}
	.st57{fill:url(#SVGID_55_);}
	.st58{fill:url(#SVGID_56_);}
	.st59{fill:url(#SVGID_57_);}
	.st60{fill:url(#SVGID_58_);}
	.st61{fill:url(#SVGID_59_);}
	.st62{fill:url(#SVGID_60_);}
	.st63{fill:url(#SVGID_61_);}
	.st64{fill:url(#SVGID_62_);}
	.st65{fill:url(#SVGID_63_);}
	.st66{fill:url(#SVGID_64_);}
	.st67{fill:url(#SVGID_65_);}
	.st68{fill:url(#SVGID_66_);}
	.st69{fill:url(#SVGID_67_);}
	.st70{fill:url(#SVGID_68_);}
	.st71{fill:none;stroke:url(#SVGID_69_);stroke-width:0.2663;stroke-miterlimit:10;stroke-dasharray:0.5325;}
	.st72{fill:none;stroke:url(#SVGID_70_);stroke-width:0.2663;stroke-miterlimit:10;stroke-dasharray:0.5325;}
	.st73{fill:url(#SVGID_71_);}
	.st74{fill:url(#SVGID_72_);}
	.st75{fill:url(#SVGID_73_);}
	.st76{fill:url(#SVGID_74_);}
</style>
<g>
	<g>
		<linearGradient id="SVGID_1_" gradientUnits="userSpaceOnUse" x1="27.3506" y1="27.4385" x2="27.3506" y2="59.1172">
			<stop  offset="0" style="stop-color:#6F999B"/>
			<stop  offset="1" style="stop-color:#034447"/>
		</linearGradient>
		<polygon class="st0" points="16,59.3 24,59.3 24,47 38.4,47 38.4,40.2 24,40.2 24,35 38.7,35 38.7,28.3 16,28.3 		"/>
		<linearGradient id="SVGID_2_" gradientUnits="userSpaceOnUse" x1="62.6315" y1="27.4385" x2="62.6315" y2="59.1172">
			<stop  offset="0" style="stop-color:#6F999B"/>
			<stop  offset="1" style="stop-color:#034447"/>
		</linearGradient>
		<path class="st1" d="M62.7,27.8c-9.5,0-16.6,6.6-16.6,16c0,9.4,7.1,16,16.6,16c9.5,0,16.5-6.6,16.5-16
			C79.2,34.4,72.1,27.8,62.7,27.8z M62.7,52.8c-5.2,0-8.4-3.9-8.4-9c0-5.1,3.3-9,8.4-9c5.1,0,8.4,3.9,8.4,9
			C71.1,48.8,67.8,52.8,62.7,52.8z"/>
		<linearGradient id="SVGID_3_" gradientUnits="userSpaceOnUse" x1="102.2299" y1="27.4385" x2="102.2299" y2="59.1172">
			<stop  offset="0" style="stop-color:#6F999B"/>
			<stop  offset="1" style="stop-color:#034447"/>
		</linearGradient>
		<path class="st2" d="M108.5,46.5c0,3.7-2,6.3-6.2,6.3c-4.3,0-6.3-2.6-6.3-6.3V28.3h-8.1v18.4c0,7.6,4.5,13.1,14.4,13.1
			c9.9,0,14.3-5.4,14.3-13.1V28.3h-8.1V46.5z"/>
		<linearGradient id="SVGID_4_" gradientUnits="userSpaceOnUse" x1="141.2023" y1="27.4385" x2="141.2023" y2="59.1172">
			<stop  offset="0" style="stop-color:#6F999B"/>
			<stop  offset="1" style="stop-color:#034447"/>
		</linearGradient>
		<polygon class="st3" points="147.6,46.1 135,28.3 126.8,28.3 126.8,59.3 134.8,59.3 134.8,40.6 147.9,59.3 155.6,59.3 155.6,28.3 
			147.6,28.3 		"/>
		<linearGradient id="SVGID_5_" gradientUnits="userSpaceOnUse" x1="216.1049" y1="27.4385" x2="216.1049" y2="59.1172">
			<stop  offset="0" style="stop-color:#6F999B"/>
			<stop  offset="1" style="stop-color:#034447"/>
		</linearGradient>
		<path class="st4" d="M211.1,28.3l-11.7,31h8.7l1.6-4.7h12.9l1.6,4.7h8.7l-11.7-31H211.1z M211.8,47.8l4.3-12.6l4.4,12.6H211.8z"/>
		<linearGradient id="SVGID_6_" gradientUnits="userSpaceOnUse" x1="247.7192" y1="27.4385" x2="247.7192" y2="59.1172">
			<stop  offset="0" style="stop-color:#6F999B"/>
			<stop  offset="1" style="stop-color:#034447"/>
		</linearGradient>
		<polygon class="st5" points="235.1,35.3 243.8,35.3 243.8,59.3 251.7,59.3 251.7,35.3 260.4,35.3 260.4,28.3 235.1,28.3 		"/>
		<linearGradient id="SVGID_7_" gradientUnits="userSpaceOnUse" x1="272.8098" y1="27.4385" x2="272.8098" y2="59.1172">
			<stop  offset="0" style="stop-color:#6F999B"/>
			<stop  offset="1" style="stop-color:#034447"/>
		</linearGradient>
		<rect x="268.8" y="28.3" class="st6" width="8" height="31"/>
		<linearGradient id="SVGID_8_" gradientUnits="userSpaceOnUse" x1="301.9876" y1="27.4385" x2="301.9876" y2="59.1172">
			<stop  offset="0" style="stop-color:#6F999B"/>
			<stop  offset="1" style="stop-color:#034447"/>
		</linearGradient>
		<path class="st7" d="M302,27.8c-9.5,0-16.6,6.6-16.6,16c0,9.4,7.1,16,16.6,16c9.5,0,16.5-6.6,16.5-16
			C318.5,34.4,311.5,27.8,302,27.8z M302,52.8c-5.2,0-8.4-3.9-8.4-9c0-5.1,3.3-9,8.4-9c5.1,0,8.4,3.9,8.4,9
			C310.4,48.8,307.1,52.8,302,52.8z"/>
		<linearGradient id="SVGID_9_" gradientUnits="userSpaceOnUse" x1="341.6082" y1="27.4385" x2="341.6082" y2="59.1172">
			<stop  offset="0" style="stop-color:#6F999B"/>
			<stop  offset="1" style="stop-color:#034447"/>
		</linearGradient>
		<polygon class="st8" points="348,28.3 348,46.1 335.4,28.3 327.2,28.3 327.2,59.3 335.2,59.3 335.2,40.6 348.3,59.3 356,59.3 
			356,28.3 		"/>
		<linearGradient id="SVGID_10_" gradientUnits="userSpaceOnUse" x1="183.5891" y1="27.4385" x2="183.5891" y2="59.1172">
			<stop  offset="0" style="stop-color:#6F999B"/>
			<stop  offset="1" style="stop-color:#034447"/>
		</linearGradient>
		<path class="st9" d="M178.8,28.3h-7.2l3.4,7h3.9c5.7,0,8.5,3.7,8.5,8.5c0,3.3-1.7,6.3-4.6,7.7l3.2,6.6c5.8-2.2,9.6-7.2,9.6-14.3
			C195.6,34.2,188.6,28.3,178.8,28.3z"/>
	</g>
	<g>
		<linearGradient id="SVGID_11_" gradientUnits="userSpaceOnUse" x1="27.3506" y1="33.2621" x2="27.3506" y2="45.1422">
			<stop  offset="0" style="stop-color:#FDFDFE;stop-opacity:0"/>
			<stop  offset="0.9104" style="stop-color:#FDFDFE;stop-opacity:0.9104"/>
			<stop  offset="1" style="stop-color:#FDFDFE"/>
		</linearGradient>
		<polygon class="st10" points="16,43.2 38.4,43.2 38.4,40.2 24,40.2 24,35 38.7,35 38.7,28.3 16,28.3 		"/>
		<linearGradient id="SVGID_12_" gradientUnits="userSpaceOnUse" x1="62.6316" y1="33.2621" x2="62.6316" y2="45.1422">
			<stop  offset="0" style="stop-color:#FDFDFE;stop-opacity:0"/>
			<stop  offset="0.9104" style="stop-color:#FDFDFE;stop-opacity:0.9104"/>
			<stop  offset="1" style="stop-color:#FDFDFE"/>
		</linearGradient>
		<path class="st11" d="M62.7,27.8c-9.3,0-16.2,6.3-16.6,15.4h8.1c0.3-4.7,3.5-8.3,8.4-8.3c4.9,0,8.1,3.6,8.4,8.3h8.1
			C78.9,34.1,71.9,27.8,62.7,27.8z"/>
		<linearGradient id="SVGID_13_" gradientUnits="userSpaceOnUse" x1="91.9234" y1="33.2621" x2="91.9234" y2="45.1422">
			<stop  offset="0" style="stop-color:#FDFDFE;stop-opacity:0"/>
			<stop  offset="0.9104" style="stop-color:#FDFDFE;stop-opacity:0.9104"/>
			<stop  offset="1" style="stop-color:#FDFDFE"/>
		</linearGradient>
		<rect x="87.9" y="28.3" class="st12" width="8.1" height="14.9"/>
		<linearGradient id="SVGID_14_" gradientUnits="userSpaceOnUse" x1="112.5364" y1="33.2621" x2="112.5364" y2="45.1422">
			<stop  offset="0" style="stop-color:#FDFDFE;stop-opacity:0"/>
			<stop  offset="0.9104" style="stop-color:#FDFDFE;stop-opacity:0.9104"/>
			<stop  offset="1" style="stop-color:#FDFDFE"/>
		</linearGradient>
		<rect x="108.5" y="28.3" class="st13" width="8.1" height="14.9"/>
		<linearGradient id="SVGID_15_" gradientUnits="userSpaceOnUse" x1="151.5782" y1="33.2621" x2="151.5782" y2="45.1422">
			<stop  offset="0" style="stop-color:#FDFDFE;stop-opacity:0"/>
			<stop  offset="0.9104" style="stop-color:#FDFDFE;stop-opacity:0.9104"/>
			<stop  offset="1" style="stop-color:#FDFDFE"/>
		</linearGradient>
		<rect x="147.6" y="28.3" class="st14" width="8" height="14.9"/>
		<linearGradient id="SVGID_16_" gradientUnits="userSpaceOnUse" x1="136.1469" y1="33.2621" x2="136.1469" y2="45.1422">
			<stop  offset="0" style="stop-color:#FDFDFE;stop-opacity:0"/>
			<stop  offset="0.9104" style="stop-color:#FDFDFE;stop-opacity:0.9104"/>
			<stop  offset="1" style="stop-color:#FDFDFE"/>
		</linearGradient>
		<polygon class="st15" points="126.8,28.3 126.8,43.2 134.8,43.2 134.8,40.6 136.6,43.2 145.5,43.2 135,28.3 		"/>
		<linearGradient id="SVGID_17_" gradientUnits="userSpaceOnUse" x1="216.0928" y1="33.2621" x2="216.0928" y2="45.1422">
			<stop  offset="0" style="stop-color:#FDFDFE;stop-opacity:0"/>
			<stop  offset="0.9104" style="stop-color:#FDFDFE;stop-opacity:0.9104"/>
			<stop  offset="1" style="stop-color:#FDFDFE"/>
		</linearGradient>
		<polygon class="st16" points="211.1,28.3 205.5,43.2 213.4,43.2 216.1,35.3 218.8,43.2 226.7,43.2 221.1,28.3 		"/>
		<linearGradient id="SVGID_18_" gradientUnits="userSpaceOnUse" x1="247.7192" y1="33.2621" x2="247.7192" y2="45.1422">
			<stop  offset="0" style="stop-color:#FDFDFE;stop-opacity:0"/>
			<stop  offset="0.9104" style="stop-color:#FDFDFE;stop-opacity:0.9104"/>
			<stop  offset="1" style="stop-color:#FDFDFE"/>
		</linearGradient>
		<polygon class="st17" points="235.1,35.3 243.8,35.3 243.8,43.2 251.7,43.2 251.7,35.3 260.4,35.3 260.4,28.3 235.1,28.3 		"/>
		<linearGradient id="SVGID_19_" gradientUnits="userSpaceOnUse" x1="272.8098" y1="33.2621" x2="272.8098" y2="45.1422">
			<stop  offset="0" style="stop-color:#FDFDFE;stop-opacity:0"/>
			<stop  offset="0.9104" style="stop-color:#FDFDFE;stop-opacity:0.9104"/>
			<stop  offset="1" style="stop-color:#FDFDFE"/>
		</linearGradient>
		<rect x="268.8" y="28.3" class="st18" width="8" height="14.9"/>
		<linearGradient id="SVGID_20_" gradientUnits="userSpaceOnUse" x1="301.9876" y1="33.2621" x2="301.9876" y2="45.1422">
			<stop  offset="0" style="stop-color:#FDFDFE;stop-opacity:0"/>
			<stop  offset="0.9104" style="stop-color:#FDFDFE;stop-opacity:0.9104"/>
			<stop  offset="1" style="stop-color:#FDFDFE"/>
		</linearGradient>
		<path class="st19" d="M302,27.8c-9.3,0-16.2,6.3-16.6,15.4h8.1c0.3-4.7,3.5-8.3,8.4-8.3c4.9,0,8.1,3.6,8.4,8.3h8.1
			C318.2,34.1,311.3,27.8,302,27.8z"/>
		<linearGradient id="SVGID_21_" gradientUnits="userSpaceOnUse" x1="351.9841" y1="33.2621" x2="351.9841" y2="45.1422">
			<stop  offset="0" style="stop-color:#FDFDFE;stop-opacity:0"/>
			<stop  offset="0.9104" style="stop-color:#FDFDFE;stop-opacity:0.9104"/>
			<stop  offset="1" style="stop-color:#FDFDFE"/>
		</linearGradient>
		<rect x="348" y="28.3" class="st20" width="8" height="14.9"/>
		<linearGradient id="SVGID_22_" gradientUnits="userSpaceOnUse" x1="336.5529" y1="33.2621" x2="336.5529" y2="45.1422">
			<stop  offset="0" style="stop-color:#FDFDFE;stop-opacity:0"/>
			<stop  offset="0.9104" style="stop-color:#FDFDFE;stop-opacity:0.9104"/>
			<stop  offset="1" style="stop-color:#FDFDFE"/>
		</linearGradient>
		<polygon class="st21" points="327.2,28.3 327.2,43.2 335.2,43.2 335.2,40.6 337,43.2 345.9,43.2 335.4,28.3 		"/>
		<linearGradient id="SVGID_23_" gradientUnits="userSpaceOnUse" x1="183.5824" y1="33.2621" x2="183.5824" y2="45.1422">
			<stop  offset="0" style="stop-color:#FDFDFE;stop-opacity:0"/>
			<stop  offset="0.9104" style="stop-color:#FDFDFE;stop-opacity:0.9104"/>
			<stop  offset="1" style="stop-color:#FDFDFE"/>
		</linearGradient>
		<path class="st22" d="M178.8,28.3h-7.2l3.4,7h3.9c5.4,0,8.3,3.4,8.5,7.9h8.2C195.3,33.9,188.4,28.3,178.8,28.3z"/>
	</g>
	<g>
		<polygon class="st23" points="173.4,51.5 173.4,51.5 173.7,51.5 		"/>
		<g class="st24">
			<linearGradient id="SVGID_24_" gradientUnits="userSpaceOnUse" x1="160.4108" y1="25.6463" x2="172.8794" y2="25.6463">
				<stop  offset="0" style="stop-color:#6F999B"/>
				<stop  offset="1" style="stop-color:#034447"/>
			</linearGradient>
			<polygon class="st25" points="169.6,39.9 172.9,37.7 160.4,11.4 169.6,39.9 			"/>
		</g>
		<g class="st24">
			<linearGradient id="SVGID_25_" gradientUnits="userSpaceOnUse" x1="160.4108" y1="25.6463" x2="169.6432" y2="25.6463">
				<stop  offset="0" style="stop-color:#6F999B"/>
				<stop  offset="1" style="stop-color:#034447"/>
			</linearGradient>
			<polygon class="st26" points="160.4,11.4 165.8,39.5 169.6,39.9 			"/>
		</g>
		<g class="st24">
			<linearGradient id="SVGID_26_" gradientUnits="userSpaceOnUse" x1="165.7887" y1="45.6095" x2="173.4741" y2="45.6095">
				<stop  offset="0" style="stop-color:#6F999B"/>
				<stop  offset="1" style="stop-color:#034447"/>
			</linearGradient>
			<polygon class="st27" points="169.6,39.9 165.8,39.5 168,50.8 173.5,51.7 			"/>
		</g>
		<g class="st24">
			<linearGradient id="SVGID_27_" gradientUnits="userSpaceOnUse" x1="169.6432" y1="44.692" x2="177.7381" y2="44.692">
				<stop  offset="0" style="stop-color:#6F999B"/>
				<stop  offset="1" style="stop-color:#034447"/>
			</linearGradient>
			<polygon class="st28" points="172.9,37.7 169.6,39.9 173.4,51.5 173.5,51.7 173.7,51.5 177.7,47.9 			"/>
		</g>
		<linearGradient id="SVGID_28_" gradientUnits="userSpaceOnUse" x1="165.6247" y1="45.6176" x2="173.6676" y2="45.6176">
			<stop  offset="0" style="stop-color:#6F999B"/>
			<stop  offset="1" style="stop-color:#034447"/>
		</linearGradient>
		<polygon class="st29" points="169.6,39.9 165.8,39.5 168,50.8 173.5,51.7 		"/>
		<linearGradient id="SVGID_29_" gradientUnits="userSpaceOnUse" x1="169.5686" y1="44.6433" x2="177.9014" y2="44.6433">
			<stop  offset="0" style="stop-color:#6F999B"/>
			<stop  offset="1" style="stop-color:#034447"/>
		</linearGradient>
		<polyline class="st30" points="173.5,51.7 177.7,47.9 172.9,37.7 169.6,39.9 		"/>
		<linearGradient id="SVGID_30_" gradientUnits="userSpaceOnUse" x1="173.2388" y1="43.0318" x2="184.5532" y2="73.3008">
			<stop  offset="0" style="stop-color:#6F999B"/>
			<stop  offset="1" style="stop-color:#034447"/>
		</linearGradient>
		<polygon class="st31" points="175.7,58.7 175.7,58.7 180.9,54.7 177.7,47.9 173.5,51.7 		"/>
		<linearGradient id="SVGID_31_" gradientUnits="userSpaceOnUse" x1="186.4035" y1="76.9674" x2="174.3894" y2="46.6989">
			<stop  offset="0" style="stop-color:#FDFDFE;stop-opacity:0"/>
			<stop  offset="0.9104" style="stop-color:#FDFDFE;stop-opacity:0.9104"/>
			<stop  offset="1" style="stop-color:#FDFDFE"/>
		</linearGradient>
		<polygon class="st32" points="174.1,51.9 177.6,48.8 180.3,54.5 176,57.8 		"/>
		<linearGradient id="SVGID_32_" gradientUnits="userSpaceOnUse" x1="173.4224" y1="42.9424" x2="184.7368" y2="73.2113">
			<stop  offset="0" style="stop-color:#6F999B"/>
			<stop  offset="1" style="stop-color:#034447"/>
		</linearGradient>
		<polygon class="st33" points="175.7,58.7 178.6,67.4 185,63.3 180.9,54.7 		"/>
		<linearGradient id="SVGID_33_" gradientUnits="userSpaceOnUse" x1="186.4068" y1="76.9442" x2="174.3929" y2="46.6763">
			<stop  offset="0" style="stop-color:#FDFDFE;stop-opacity:0"/>
			<stop  offset="0.9104" style="stop-color:#FDFDFE;stop-opacity:0.9104"/>
			<stop  offset="1" style="stop-color:#FDFDFE"/>
		</linearGradient>
		<polygon class="st34" points="176.4,58.9 180.7,55.5 184.4,63.1 178.9,66.6 		"/>
		<linearGradient id="SVGID_34_" gradientUnits="userSpaceOnUse" x1="173.5159" y1="42.8758" x2="184.8327" y2="73.151">
			<stop  offset="0" style="stop-color:#6F999B"/>
			<stop  offset="1" style="stop-color:#034447"/>
		</linearGradient>
		<polygon class="st35" points="185,63.3 178.6,67.4 181.8,77.5 188.5,70.6 		"/>
		<linearGradient id="SVGID_35_" gradientUnits="userSpaceOnUse" x1="186.3371" y1="76.9486" x2="174.3197" y2="46.6718">
			<stop  offset="0" style="stop-color:#FDFDFE;stop-opacity:0"/>
			<stop  offset="0.9104" style="stop-color:#FDFDFE;stop-opacity:0.9104"/>
			<stop  offset="1" style="stop-color:#FDFDFE"/>
		</linearGradient>
		<polygon class="st36" points="179.2,67.7 184.8,64.1 187.8,70.5 182.1,76.5 		"/>
		<linearGradient id="SVGID_36_" gradientUnits="userSpaceOnUse" x1="165.237" y1="72.2229" x2="175.4318" y2="63.861">
			<stop  offset="0" style="stop-color:#6F999B"/>
			<stop  offset="1" style="stop-color:#034447"/>
		</linearGradient>
		<polygon class="st37" points="178.6,67.4 175.7,58.7 175.6,58.8 170.1,62.1 170.9,66 178.6,67.5 		"/>
		<linearGradient id="SVGID_37_" gradientUnits="userSpaceOnUse" x1="172.8199" y1="58.1243" x2="177.4394" y2="79.5074">
			<stop  offset="0" style="stop-color:#FDFDFE;stop-opacity:0"/>
			<stop  offset="0.9104" style="stop-color:#FDFDFE;stop-opacity:0.9104"/>
			<stop  offset="1" style="stop-color:#FDFDFE"/>
		</linearGradient>
		<polygon class="st38" points="171.3,65.6 170.7,62.3 175.4,59.5 177.8,66.8 		"/>
		<linearGradient id="SVGID_38_" gradientUnits="userSpaceOnUse" x1="170.6043" y1="78.0212" x2="184.1831" y2="63.182">
			<stop  offset="0" style="stop-color:#6F999B"/>
			<stop  offset="1" style="stop-color:#034447"/>
		</linearGradient>
		<polygon class="st39" points="178.6,67.5 170.9,66 172.6,75.1 181.8,77.5 178.6,67.4 		"/>
		<linearGradient id="SVGID_39_" gradientUnits="userSpaceOnUse" x1="173.2309" y1="58.0602" x2="177.8448" y2="79.4174">
			<stop  offset="0" style="stop-color:#FDFDFE;stop-opacity:0"/>
			<stop  offset="0.9104" style="stop-color:#FDFDFE;stop-opacity:0.9104"/>
			<stop  offset="1" style="stop-color:#FDFDFE"/>
		</linearGradient>
		<polygon class="st40" points="173.1,74.7 171.5,66.7 178.2,67.9 181,76.7 		"/>
		<polygon class="st41" points="173.4,51.5 168,50.8 168,50.8 173.4,51.5 		"/>
		<linearGradient id="SVGID_40_" gradientUnits="userSpaceOnUse" x1="181.8297" y1="74.0227" x2="197.2529" y2="74.0227">
			<stop  offset="0" style="stop-color:#6F999B"/>
			<stop  offset="1" style="stop-color:#034447"/>
		</linearGradient>
		<polygon class="st42" points="188.5,70.6 181.8,77.5 197.3,70.7 		"/>
		<linearGradient id="SVGID_41_" gradientUnits="userSpaceOnUse" x1="184.0866" y1="73.5097" x2="194.7876" y2="73.5097">
			<stop  offset="0" style="stop-color:#FDFDFE"/>
			<stop  offset="8.962709e-02" style="stop-color:#FDFDFE;stop-opacity:0.9104"/>
			<stop  offset="1" style="stop-color:#FDFDFE;stop-opacity:0"/>
		</linearGradient>
		<polygon class="st43" points="188.7,71.1 194.8,71.2 184.1,75.9 		"/>
		<linearGradient id="SVGID_42_" gradientUnits="userSpaceOnUse" x1="149.1256" y1="14.0217" x2="161.4095" y2="14.0217">
			<stop  offset="0" style="stop-color:#6F999B"/>
			<stop  offset="1" style="stop-color:#034447"/>
		</linearGradient>
		<polygon class="st44" points="161.4,16.6 160.4,11.4 149.1,11.4 		"/>
		<linearGradient id="SVGID_43_" gradientUnits="userSpaceOnUse" x1="151.7528" y1="13.8486" x2="160.7015" y2="13.8486">
			<stop  offset="0" style="stop-color:#034447"/>
			<stop  offset="1" style="stop-color:#6F999B"/>
		</linearGradient>
		<polygon class="st45" points="151.8,11.9 160,11.9 160.7,15.8 		"/>
		<linearGradient id="SVGID_44_" gradientUnits="userSpaceOnUse" x1="148.6134" y1="73.8379" x2="178.87" y2="39.3773">
			<stop  offset="0" style="stop-color:#6F999B"/>
			<stop  offset="1" style="stop-color:#034447"/>
		</linearGradient>
		<polygon class="st46" points="155.8,64.1 142.6,78.6 158.3,64.9 		"/>
		<linearGradient id="SVGID_45_" gradientUnits="userSpaceOnUse" x1="122.1717" y1="94.7346" x2="179.6837" y2="44.8909">
			<stop  offset="0" style="stop-color:#FDFDFE;stop-opacity:0"/>
			<stop  offset="0.9104" style="stop-color:#FDFDFE;stop-opacity:0.9104"/>
			<stop  offset="1" style="stop-color:#FDFDFE"/>
		</linearGradient>
		<polygon class="st47" points="156.1,64.5 157.5,64.9 149.1,72.2 		"/>
		<linearGradient id="SVGID_46_" gradientUnits="userSpaceOnUse" x1="149.0768" y1="74.7736" x2="180.3593" y2="39.1447">
			<stop  offset="0" style="stop-color:#6F999B"/>
			<stop  offset="1" style="stop-color:#034447"/>
		</linearGradient>
		<polygon class="st48" points="167.3,57 163.1,56 155.8,64.1 158.3,64.9 		"/>
		<linearGradient id="SVGID_47_" gradientUnits="userSpaceOnUse" x1="120.1405" y1="95.6352" x2="179.7671" y2="43.9588">
			<stop  offset="0" style="stop-color:#FDFDFE;stop-opacity:0"/>
			<stop  offset="0.9104" style="stop-color:#FDFDFE;stop-opacity:0.9104"/>
			<stop  offset="1" style="stop-color:#FDFDFE"/>
		</linearGradient>
		<polygon class="st49" points="156.6,63.9 163.3,56.6 166.2,57.3 158,64.4 		"/>
		<linearGradient id="SVGID_48_" gradientUnits="userSpaceOnUse" x1="149.9287" y1="74.7674" x2="180.5326" y2="39.9113">
			<stop  offset="0" style="stop-color:#6F999B"/>
			<stop  offset="1" style="stop-color:#034447"/>
		</linearGradient>
		<polygon class="st50" points="168,50.8 163.1,56 167.3,57 168.9,55.7 173.5,51.7 		"/>
		<linearGradient id="SVGID_49_" gradientUnits="userSpaceOnUse" x1="121.5776" y1="93.8754" x2="178.9902" y2="44.1179">
			<stop  offset="0" style="stop-color:#FDFDFE;stop-opacity:0"/>
			<stop  offset="0.9104" style="stop-color:#FDFDFE;stop-opacity:0.9104"/>
			<stop  offset="1" style="stop-color:#FDFDFE"/>
		</linearGradient>
		<polygon class="st51" points="164.1,55.7 168.1,51.4 172.3,52 167.2,56.5 		"/>
		<linearGradient id="SVGID_50_" gradientUnits="userSpaceOnUse" x1="135.2807" y1="85.5989" x2="176.0011" y2="52.9515">
			<stop  offset="0" style="stop-color:#6F999B"/>
			<stop  offset="1" style="stop-color:#034447"/>
		</linearGradient>
		<polygon class="st52" points="158.3,64.9 142.6,78.6 159.4,68.5 		"/>
		<linearGradient id="SVGID_51_" gradientUnits="userSpaceOnUse" x1="144.3503" y1="76.195" x2="173.4737" y2="57.2798">
			<stop  offset="0" style="stop-color:#FDFDFE;stop-opacity:0"/>
			<stop  offset="0.9104" style="stop-color:#FDFDFE;stop-opacity:0.9104"/>
			<stop  offset="1" style="stop-color:#FDFDFE"/>
		</linearGradient>
		<polygon class="st53" points="157.8,66.1 158.4,68.5 147.5,75 		"/>
		<linearGradient id="SVGID_52_" gradientUnits="userSpaceOnUse" x1="139.5448" y1="82.8001" x2="175.7722" y2="53.7548">
			<stop  offset="0" style="stop-color:#6F999B"/>
			<stop  offset="1" style="stop-color:#034447"/>
		</linearGradient>
		<polygon class="st54" points="167.3,57 158.3,64.9 159.4,68.5 168.7,62.9 		"/>
		<linearGradient id="SVGID_53_" gradientUnits="userSpaceOnUse" x1="146.688" y1="73.8954" x2="172.9478" y2="56.8401">
			<stop  offset="0" style="stop-color:#FDFDFE;stop-opacity:0"/>
			<stop  offset="0.9104" style="stop-color:#FDFDFE;stop-opacity:0.9104"/>
			<stop  offset="1" style="stop-color:#FDFDFE"/>
		</linearGradient>
		<polygon class="st55" points="159,65 166.9,58.1 168,62.7 159.9,67.6 		"/>
		<linearGradient id="SVGID_54_" gradientUnits="userSpaceOnUse" x1="144.7125" y1="79.154" x2="176.6824" y2="53.5222">
			<stop  offset="0" style="stop-color:#6F999B"/>
			<stop  offset="1" style="stop-color:#034447"/>
		</linearGradient>
		<polygon class="st56" points="173.5,51.7 168.9,55.7 167.3,57 168.7,62.9 170.1,62.1 175.6,58.8 175.7,58.7 		"/>
		<linearGradient id="SVGID_55_" gradientUnits="userSpaceOnUse" x1="151.1967" y1="70.4457" x2="173.345" y2="56.0607">
			<stop  offset="0" style="stop-color:#FDFDFE;stop-opacity:0"/>
			<stop  offset="0.9104" style="stop-color:#FDFDFE;stop-opacity:0.9104"/>
			<stop  offset="1" style="stop-color:#FDFDFE"/>
		</linearGradient>
		<polygon class="st57" points="167.9,57.2 173.2,52.6 175.1,58.4 169,62.1 		"/>
		<linearGradient id="SVGID_56_" gradientUnits="userSpaceOnUse" x1="187.6689" y1="69.8027" x2="197.2529" y2="69.8027">
			<stop  offset="0" style="stop-color:#6F999B"/>
			<stop  offset="1" style="stop-color:#034447"/>
		</linearGradient>
		<polygon class="st58" points="197.3,70.7 187.7,68.9 188.5,70.6 		"/>
		<linearGradient id="SVGID_57_" gradientUnits="userSpaceOnUse" x1="185.3763" y1="69.7341" x2="194.1972" y2="69.8694">
			<stop  offset="0" style="stop-color:#FDFDFE;stop-opacity:0"/>
			<stop  offset="0.9104" style="stop-color:#FDFDFE;stop-opacity:0.9104"/>
			<stop  offset="1" style="stop-color:#FDFDFE"/>
		</linearGradient>
		<polygon class="st59" points="188.7,70.3 188.1,69.2 194.2,70.4 		"/>
		<g>
			
				<radialGradient id="SVGID_58_" cx="192.2547" cy="69.8341" r="2.1833" gradientTransform="matrix(1 0 0 1.0116 0 0)" gradientUnits="userSpaceOnUse">
				<stop  offset="0" style="stop-color:#FDFDFE"/>
				<stop  offset="8.962709e-02" style="stop-color:#FDFDFE;stop-opacity:0.9104"/>
				<stop  offset="1" style="stop-color:#FDFDFE;stop-opacity:0"/>
			</radialGradient>
			<path class="st60" d="M189.2,70.6c1,0,2.1,0,3.1,0c1,0,2.1,0,3.1,0.1c-1,0-2.1,0-3.1,0C191.2,70.7,190.2,70.7,189.2,70.6z"/>
		</g>
		<g>
			
				<radialGradient id="SVGID_59_" cx="185.4334" cy="72.894" r="2.6134" gradientTransform="matrix(1 0 0 1.0116 0 0)" gradientUnits="userSpaceOnUse">
				<stop  offset="0" style="stop-color:#FDFDFE"/>
				<stop  offset="8.962709e-02" style="stop-color:#FDFDFE;stop-opacity:0.9104"/>
				<stop  offset="1" style="stop-color:#FDFDFE;stop-opacity:0"/>
			</radialGradient>
			<path class="st61" d="M183,76.3c0.7-0.9,1.6-1.8,2.4-2.7c0.8-0.8,1.7-1.7,2.6-2.5c-0.7,0.9-1.6,1.8-2.4,2.7
				C184.7,74.7,183.9,75.5,183,76.3z"/>
		</g>
		<g>
			
				<radialGradient id="SVGID_60_" cx="181.8081" cy="64.6271" r="2.7961" gradientTransform="matrix(1 0 0 1.0116 0 0)" gradientUnits="userSpaceOnUse">
				<stop  offset="0" style="stop-color:#FDFDFE"/>
				<stop  offset="8.962709e-02" style="stop-color:#FDFDFE;stop-opacity:0.9104"/>
				<stop  offset="1" style="stop-color:#FDFDFE;stop-opacity:0"/>
			</radialGradient>
			<path class="st62" d="M178.6,67.4c1-0.8,2.1-1.5,3.2-2.2c1.1-0.7,2.2-1.4,3.3-2c-1,0.8-2.1,1.5-3.2,2.2
				C180.8,66.2,179.7,66.8,178.6,67.4z"/>
		</g>
		<g>
			
				<radialGradient id="SVGID_61_" cx="165.151" cy="55.8447" r="1.1502" gradientTransform="matrix(1 0 0 1.0116 0 0)" gradientUnits="userSpaceOnUse">
				<stop  offset="0" style="stop-color:#FDFDFE"/>
				<stop  offset="8.962709e-02" style="stop-color:#FDFDFE;stop-opacity:0.9104"/>
				<stop  offset="1" style="stop-color:#FDFDFE;stop-opacity:0"/>
			</radialGradient>
			<path class="st63" d="M163.6,56.1c0.5,0.1,1,0.2,1.6,0.3c0.5,0.2,1,0.3,1.5,0.5c-0.5-0.1-1-0.2-1.6-0.3
				C164.6,56.4,164.1,56.3,163.6,56.1z"/>
		</g>
		<g>
			
				<radialGradient id="SVGID_62_" cx="174.7298" cy="65.9849" r="2.3204" gradientTransform="matrix(1 0 0 1.0116 0 0)" gradientUnits="userSpaceOnUse">
				<stop  offset="0" style="stop-color:#FDFDFE"/>
				<stop  offset="8.962709e-02" style="stop-color:#FDFDFE;stop-opacity:0.9104"/>
				<stop  offset="1" style="stop-color:#FDFDFE;stop-opacity:0"/>
			</radialGradient>
			<path class="st64" d="M171.5,66.2c1.1,0.1,2.1,0.4,3.2,0.5c1.1,0.2,2.1,0.4,3.2,0.7c-1.1-0.1-2.1-0.4-3.2-0.5
				C173.7,66.6,172.6,66.4,171.5,66.2z"/>
		</g>
		<g>
			
				<radialGradient id="SVGID_63_" cx="170.3769" cy="53.8052" r="2.3832" gradientTransform="matrix(1 0 0 1.0116 0 0)" gradientUnits="userSpaceOnUse">
				<stop  offset="0" style="stop-color:#FDFDFE"/>
				<stop  offset="8.962709e-02" style="stop-color:#FDFDFE;stop-opacity:0.9104"/>
				<stop  offset="1" style="stop-color:#FDFDFE;stop-opacity:0"/>
			</radialGradient>
			<path class="st65" d="M167.9,56.6c0.8-0.8,1.6-1.5,2.5-2.2c0.9-0.7,1.7-1.4,2.6-2.1c-0.8,0.8-1.6,1.5-2.5,2.2
				C169.6,55.2,168.7,55.9,167.9,56.6z"/>
		</g>
		<g>
			
				<radialGradient id="SVGID_64_" cx="149.6635" cy="71.5991" r="5.2317" gradientTransform="matrix(1 0 0 1.0116 0 0)" gradientUnits="userSpaceOnUse">
				<stop  offset="0" style="stop-color:#FDFDFE"/>
				<stop  offset="8.962709e-02" style="stop-color:#FDFDFE;stop-opacity:0.9104"/>
				<stop  offset="1" style="stop-color:#FDFDFE;stop-opacity:0"/>
			</radialGradient>
			<path class="st66" d="M144.2,77.2c1.8-1.7,3.6-3.3,5.4-4.8c1.8-1.6,3.7-3.1,5.6-4.6c-1.8,1.7-3.6,3.3-5.4,4.8
				C147.9,74.1,146.1,75.7,144.2,77.2z"/>
		</g>
		<g>
			
				<radialGradient id="SVGID_65_" cx="175.614" cy="57.6259" r="13.7424" gradientTransform="matrix(1 0 0 1.0116 0 0)" gradientUnits="userSpaceOnUse">
				<stop  offset="0" style="stop-color:#FDFDFE"/>
				<stop  offset="8.962709e-02" style="stop-color:#FDFDFE;stop-opacity:0.9104"/>
				<stop  offset="1" style="stop-color:#FDFDFE;stop-opacity:0"/>
			</radialGradient>
			<path class="st67" d="M169.6,39.9c2.1,6.1,4.1,12.2,6.1,18.4c1.9,6.2,4,12.3,5.8,18.5c-2.1-6.1-4.1-12.2-6.1-18.4
				C173.5,52.2,171.5,46.1,169.6,39.9z"/>
		</g>
		<g>
			
				<radialGradient id="SVGID_66_" cx="178.341" cy="56.0168" r="2.4037" gradientTransform="matrix(1 0 0 1.0116 0 0)" gradientUnits="userSpaceOnUse">
				<stop  offset="0" style="stop-color:#FDFDFE"/>
				<stop  offset="8.962709e-02" style="stop-color:#FDFDFE;stop-opacity:0.9104"/>
				<stop  offset="1" style="stop-color:#FDFDFE;stop-opacity:0"/>
			</radialGradient>
			<path class="st68" d="M175.7,58.6c0.8-0.7,1.7-1.4,2.5-2.1c0.9-0.6,1.7-1.3,2.7-1.9c-0.8,0.7-1.7,1.4-2.5,2.1
				C177.5,57.4,176.7,58.1,175.7,58.6z"/>
		</g>
		<linearGradient id="SVGID_67_" gradientUnits="userSpaceOnUse" x1="170.797" y1="51.6263" x2="168.8644" y2="43.2738">
			<stop  offset="0" style="stop-color:#6F999B"/>
			<stop  offset="1" style="stop-color:#034447"/>
		</linearGradient>
		<path class="st69" d="M170.3,42c-0.7,0.4-1.3,1.3-1.2,2.1c0.1,0.4,0.3,0.9,0.4,1.3c0.1,0.4,0.1,1-0.2,1.3c-0.3,0.3-0.8,0.4-1,0.8
			c-0.2,0.3-0.2,0.6-0.2,0.9c0,0.3-0.2,0.7-0.5,0.7l0.3,1.7l5.5,0.9L170.3,42z"/>
		<linearGradient id="SVGID_68_" gradientUnits="userSpaceOnUse" x1="170.3317" y1="46.821" x2="177.7381" y2="46.821">
			<stop  offset="0" style="stop-color:#6F999B"/>
			<stop  offset="1" style="stop-color:#034447"/>
		</linearGradient>
		<path class="st70" d="M170.3,42c0.6-0.2,1.3,0.1,1.8,0.5c0.4,0.3,0.8,0.6,1.2,1c0.1,0.2,0.3,0.3,0.4,0.5c0.6,0.5,1.5,0.6,2.3,0.5
			l1.7,3.5l-4.3,3.8L170.3,42z"/>
		<linearGradient id="SVGID_69_" gradientUnits="userSpaceOnUse" x1="160.2905" y1="24.5503" x2="172.9996" y2="24.5503">
			<stop  offset="0" style="stop-color:#6F999B"/>
			<stop  offset="1" style="stop-color:#034447"/>
		</linearGradient>
		<line class="st71" x1="172.9" y1="37.7" x2="160.4" y2="11.4"/>
		<linearGradient id="SVGID_70_" gradientUnits="userSpaceOnUse" x1="160.2801" y1="25.6463" x2="169.7699" y2="25.6463">
			<stop  offset="0" style="stop-color:#6F999B"/>
			<stop  offset="1" style="stop-color:#034447"/>
		</linearGradient>
		<polyline class="st72" points="169.6,39.9 160.4,11.4 165.8,39.5 		"/>
		<g>
			
				<radialGradient id="SVGID_71_" cx="161.3789" cy="61.5323" r="5.5985" gradientTransform="matrix(1 0 0 1.0116 0 0)" gradientUnits="userSpaceOnUse">
				<stop  offset="0" style="stop-color:#FDFDFE"/>
				<stop  offset="8.962709e-02" style="stop-color:#FDFDFE;stop-opacity:0.9104"/>
				<stop  offset="1" style="stop-color:#FDFDFE;stop-opacity:0"/>
			</radialGradient>
			<path class="st73" d="M155.4,67.4c3.9-3.5,7.9-6.9,11.9-10.3C163.4,60.6,159.4,64,155.4,67.4z"/>
		</g>
		<g>
			
				<radialGradient id="SVGID_72_" cx="156.8413" cy="63.6842" r="0.6224" gradientTransform="matrix(1 0 0 1.0116 0 0)" gradientUnits="userSpaceOnUse">
				<stop  offset="0" style="stop-color:#FDFDFE"/>
				<stop  offset="8.962709e-02" style="stop-color:#FDFDFE;stop-opacity:0.9104"/>
				<stop  offset="1" style="stop-color:#FDFDFE;stop-opacity:0"/>
			</radialGradient>
			<path class="st74" d="M156,64.2c0.6,0.1,1.1,0.3,1.6,0.5C157.1,64.6,156.6,64.4,156,64.2z"/>
		</g>
		<g>
			
				<radialGradient id="SVGID_73_" cx="168.0448" cy="59.4647" r="1.2179" gradientTransform="matrix(1 0 0 1.0116 0 0)" gradientUnits="userSpaceOnUse">
				<stop  offset="0" style="stop-color:#FDFDFE"/>
				<stop  offset="8.962709e-02" style="stop-color:#FDFDFE;stop-opacity:0.9104"/>
				<stop  offset="1" style="stop-color:#FDFDFE;stop-opacity:0"/>
			</radialGradient>
			<path class="st75" d="M167.7,58.5c0.2,0.5,0.3,1.1,0.4,1.6c0.1,0.6,0.2,1.1,0.3,1.7c-0.2-0.5-0.3-1.1-0.4-1.6
				C167.9,59.6,167.7,59.1,167.7,58.5z"/>
		</g>
		<g>
			
				<radialGradient id="SVGID_74_" cx="158.8658" cy="65.9893" r="1.1594" gradientTransform="matrix(1 0 0 1.0116 0 0)" gradientUnits="userSpaceOnUse">
				<stop  offset="0" style="stop-color:#FDFDFE"/>
				<stop  offset="8.962709e-02" style="stop-color:#FDFDFE;stop-opacity:0.9104"/>
				<stop  offset="1" style="stop-color:#FDFDFE;stop-opacity:0"/>
			</radialGradient>
			<path class="st76" d="M158.4,65.2c0.2,0.5,0.4,1,0.5,1.5c0.1,0.5,0.3,1,0.4,1.5c-0.2-0.5-0.4-1-0.5-1.5
				C158.7,66.3,158.5,65.8,158.4,65.2z"/>
		</g>
	</g>
</g>
</svg>
