<?xml version="1.0" encoding="utf-8"?>
<!-- Generator: Adobe Illustrator 23.0.3, SVG Export Plug-In . SVG Version: 6.00 Build 0)  -->
<svg version="1.1" id="Layer_1" xmlns="http://www.w3.org/2000/svg" xmlns:xlink="http://www.w3.org/1999/xlink" x="0px" y="0px"
	 viewBox="0 0 500 500" style="enable-background:new 0 0 500 500;" xml:space="preserve">
<style type="text/css">
	.st0{fill:#B3B3B3;}
</style>
<g>
	<polygon class="st0" points="221.8,165.1 218.7,149 183.6,149 	"/>
	<g>
		
			<rect x="238.2" y="252.9" transform="matrix(0.982 -0.1888 0.1888 0.982 -43.6194 49.6185)" class="st0" width="0.8" height="1.6"/>
		
			<rect x="236.9" y="246.4" transform="matrix(0.982 -0.1888 0.1888 0.982 -42.4205 49.2657)" class="st0" width="0.8" height="1.6"/>
		
			<rect x="236.3" y="243.2" transform="matrix(0.982 -0.1888 0.1888 0.982 -41.8212 49.0894)" class="st0" width="0.8" height="1.6"/>
		
			<rect x="238.8" y="256.1" transform="matrix(0.982 -0.1888 0.1888 0.982 -44.2187 49.7948)" class="st0" width="0.8" height="1.6"/>
		
			<rect x="237.5" y="249.7" transform="matrix(0.982 -0.1888 0.1888 0.982 -43.0201 49.4421)" class="st0" width="0.8" height="1.6"/>
		
			<rect x="244.1" y="270" transform="matrix(0.1528 -0.9883 0.9883 0.1528 -60.4303 471.111)" class="st0" width="0.8" height="1.6"/>
		<polygon class="st0" points="242.2,270 241.9,269 241.1,269.1 241.4,270.7 242,270.8 242.1,270.3 242.2,270.3 242.2,270.1 		"/>
		<polygon class="st0" points="241.3,265.8 240.5,265.9 240.8,267.5 241.6,267.4 		"/>
		<rect x="240" y="262.6" transform="matrix(0.982 -0.1888 0.1888 0.982 -45.4176 50.1476)" class="st0" width="0.8" height="1.6"/>
		
			<rect x="239.4" y="259.4" transform="matrix(0.982 -0.1888 0.1888 0.982 -44.8183 49.9712)" class="st0" width="0.8" height="1.6"/>
		
			<rect x="253.9" y="257.9" transform="matrix(0.9498 -0.3128 0.3128 0.9498 -68.1793 92.5346)" class="st0" width="0.8" height="1.6"/>
		<rect x="254.9" y="261" transform="matrix(0.9501 -0.312 0.312 0.9501 -68.9553 92.7224)" class="st0" width="0.8" height="1.6"/>
		<polygon class="st0" points="247.7,237.5 247.4,236.5 247.6,236.8 249,235.9 248.5,235.2 247.3,236.1 246.9,235 246.2,235.3 
			246.5,236.2 245.5,236.2 245.4,237 246.7,237.1 247,237.7 		"/>
		
			<rect x="250.8" y="248.5" transform="matrix(0.9498 -0.3128 0.3128 0.9498 -65.3967 91.1001)" class="st0" width="0.8" height="1.6"/>
		<polygon class="st0" points="256.7,267.5 257.2,269 258,268.8 257.5,267.2 		"/>
		<polygon class="st0" points="259,271.9 258.5,270.3 257.7,270.6 258.3,272.2 		"/>
		
			<rect x="239.3" y="235.2" transform="matrix(9.147098e-02 -0.9958 0.9958 9.147098e-02 -17.2941 453.1208)" class="st0" width="0.8" height="1.6"/>
		<rect x="235" y="236.7" transform="matrix(0.982 -0.1888 0.1888 0.982 -40.6224 48.7366)" class="st0" width="0.8" height="1.6"/>
		
			<rect x="242.5" y="235.5" transform="matrix(9.147098e-02 -0.9958 0.9958 9.147098e-02 -14.6144 456.6605)" class="st0" width="0.8" height="1.6"/>
		<rect x="235.7" y="240" transform="matrix(0.982 -0.1888 0.1888 0.982 -41.2219 48.913)" class="st0" width="0.8" height="1.6"/>
		
			<rect x="236" y="234.9" transform="matrix(9.147098e-02 -0.9958 0.9958 9.147098e-02 -19.9754 449.5826)" class="st0" width="0.8" height="1.6"/>
		
			<rect x="252.8" y="254.8" transform="matrix(0.9498 -0.3128 0.3128 0.9498 -67.2517 92.0564)" class="st0" width="0.8" height="1.6"/>
		
			<rect x="253.9" y="271.5" transform="matrix(0.1526 -0.9883 0.9883 0.1526 -53.6242 482.0872)" class="st0" width="0.8" height="1.6"/>
		
			<rect x="257.2" y="272" transform="matrix(0.1528 -0.9883 0.9883 0.1528 -51.3949 485.6879)" class="st0" width="0.8" height="1.6"/>
		
			<rect x="251.8" y="251.7" transform="matrix(0.9498 -0.3128 0.3128 0.9498 -66.3241 91.5782)" class="st0" width="0.8" height="1.6"/>
		<polygon class="st0" points="248,240.9 248.8,240.6 248.3,239.1 247.5,239.3 		"/>
		<polygon class="st0" points="256.5,264.1 255.7,264.3 256.2,265.9 257,265.7 		"/>
		
			<rect x="250.6" y="271" transform="matrix(0.1528 -0.9883 0.9883 0.1528 -55.9139 478.3979)" class="st0" width="0.8" height="1.6"/>
		<polygon class="st0" points="246.9,271.6 248.6,271.8 248.7,271 247.1,270.8 		"/>
		<polygon class="st0" points="249.3,242.2 248.5,242.4 249,244 249.8,243.7 		"/>
		<polygon class="st0" points="250.3,245.3 249.5,245.6 250,247.1 250.8,246.9 		"/>
		
			<rect x="263.4" y="243.1" transform="matrix(0.9015 -0.4328 0.4328 0.9015 -79.5845 138.2184)" class="st0" width="0.8" height="1.6"/>
		<polygon class="st0" points="252.6,232.5 253.1,233.2 254.5,232.2 254,231.6 		"/>
		
			<rect x="267.7" y="252" transform="matrix(0.9011 -0.4336 0.4336 0.9011 -83.1142 141.2448)" class="st0" width="0.8" height="1.6"/>
		<polygon class="st0" points="268.6,264.1 269.2,264.7 270.4,263.6 269.9,263 		"/>
		<polygon class="st0" points="263.7,268.4 264.2,269 265.4,267.9 264.9,267.3 		"/>
		
			<rect x="266.3" y="249" transform="matrix(0.9015 -0.4328 0.4328 0.9015 -81.8744 140.0376)" class="st0" width="0.8" height="1.6"/>
		<polygon class="st0" points="249.9,234.3 250.4,235 251.7,234.1 251.3,233.4 		"/>
		
			<rect x="264.8" y="246.1" transform="matrix(0.9011 -0.4336 0.4336 0.9011 -80.8212 139.4221)" class="st0" width="0.8" height="1.6"/>
		
			<rect x="262" y="240.1" transform="matrix(0.9011 -0.4336 0.4336 0.9011 -78.5277 137.5985)" class="st0" width="0.8" height="1.6"/>
		
			<rect x="269.1" y="255" transform="matrix(0.9011 -0.4336 0.4336 0.9011 -84.2606 142.1566)" class="st0" width="0.8" height="1.6"/>
		<polygon class="st0" points="272.4,260.8 271.6,261.2 271.7,261.4 271.1,261.9 271.6,262.5 272.7,261.6 		"/>
		
			<rect x="270.5" y="257.9" transform="matrix(0.9011 -0.4336 0.4336 0.9011 -85.407 143.0683)" class="st0" width="0.8" height="1.6"/>
		
			<rect x="257.7" y="231.2" transform="matrix(0.9011 -0.4336 0.4336 0.9011 -75.0884 134.864)" class="st0" width="0.8" height="1.6"/>
		
			<rect x="259.1" y="234.2" transform="matrix(0.9011 -0.4336 0.4336 0.9011 -76.2348 135.7758)" class="st0" width="0.8" height="1.6"/>
		<polygon class="st0" points="266.1,266.2 266.7,266.8 267.9,265.8 267.4,265.1 		"/>
		<polygon class="st0" points="261.2,270.6 261.7,271.2 263,270.1 262.4,269.5 		"/>
		
			<rect x="260.6" y="237.2" transform="matrix(0.9011 -0.4336 0.4336 0.9011 -77.3812 136.6875)" class="st0" width="0.8" height="1.6"/>
		<polygon class="st0" points="258.7,272.7 259.2,273.3 260.5,272.3 259.9,271.6 		"/>
		<polygon class="st0" points="236.8,188.6 237.5,188.2 236.8,186.7 236.1,187.1 		"/>
		
			<rect x="237.8" y="189.8" transform="matrix(0.9011 -0.4336 0.4336 0.9011 -59.0969 122.1495)" class="st0" width="0.8" height="1.6"/>
		
			<rect x="233.6" y="180.9" transform="matrix(0.9011 -0.4336 0.4336 0.9011 -55.6571 119.4142)" class="st0" width="0.8" height="1.6"/>
		<polygon class="st0" points="239.6,194.5 240.4,194.2 239.7,192.7 238.9,193 		"/>
		
			<rect x="230.7" y="175" transform="matrix(0.9011 -0.4336 0.4336 0.9011 -53.3641 117.5914)" class="st0" width="0.8" height="1.6"/>
		
			<rect x="229.3" y="172" transform="matrix(0.9011 -0.4336 0.4336 0.9011 -52.2177 116.6797)" class="st0" width="0.8" height="1.6"/>
		
			<rect x="240.7" y="195.7" transform="matrix(0.9011 -0.4336 0.4336 0.9011 -61.3899 123.9722)" class="st0" width="0.8" height="1.6"/>
		<polygon class="st0" points="232.5,179.7 233.3,179.3 232.6,177.8 231.8,178.2 		"/>
		
			<rect x="242.1" y="198.7" transform="matrix(0.9011 -0.4336 0.4336 0.9011 -62.5363 124.8839)" class="st0" width="0.8" height="1.6"/>
		
			<rect x="249.2" y="213.6" transform="matrix(0.9011 -0.4336 0.4336 0.9011 -68.2684 129.4418)" class="st0" width="0.8" height="1.6"/>
		
			<rect x="247.8" y="210.6" transform="matrix(0.9011 -0.4336 0.4336 0.9011 -67.122 128.5301)" class="st0" width="0.8" height="1.6"/>
		
			<rect x="227.9" y="169" transform="matrix(0.9011 -0.4336 0.4336 0.9011 -51.0713 115.768)" class="st0" width="0.8" height="1.6"/>
		<polygon class="st0" points="246.8,209.4 247.5,209 246.8,207.5 246.1,207.9 		"/>
		
			<rect x="250.7" y="216.5" transform="matrix(0.9011 -0.4336 0.4336 0.9011 -69.4155 130.3537)" class="st0" width="0.8" height="1.6"/>
		
			<rect x="243.5" y="201.7" transform="matrix(0.9011 -0.4336 0.4336 0.9011 -63.6827 125.7956)" class="st0" width="0.8" height="1.6"/>
		
			<rect x="245" y="204.7" transform="matrix(0.9011 -0.4336 0.4336 0.9011 -64.8291 126.7073)" class="st0" width="0.8" height="1.6"/>
		
			<rect x="235" y="183.9" transform="matrix(0.9011 -0.4336 0.4336 0.9011 -56.8035 120.3259)" class="st0" width="0.8" height="1.6"/>
		<polygon class="st0" points="253.9,224.2 254.6,223.9 253.9,222.4 253.2,222.7 		"/>
		
			<rect x="252.1" y="219.5" transform="matrix(0.9011 -0.4336 0.4336 0.9011 -70.5619 131.2654)" class="st0" width="0.8" height="1.6"/>
		
			<rect x="226.4" y="166.1" transform="matrix(0.9011 -0.4336 0.4336 0.9011 -49.9249 114.8563)" class="st0" width="0.8" height="1.6"/>
		<polygon class="st0" points="256.6,229.8 255.4,230.6 255.8,231.3 257.2,230.4 257,230 257.5,229.8 256.8,228.3 256,228.7 		"/>
		
			<rect x="254.9" y="225.4" transform="matrix(0.9011 -0.4336 0.4336 0.9011 -72.8549 133.0881)" class="st0" width="0.8" height="1.6"/>
		<polygon class="st0" points="225.4,164.8 226.1,164.5 225.4,163 224.7,163.3 		"/>
		<polygon class="st0" points="224,161.9 224.7,161.5 224,160 223.3,160.4 		"/>
		
			<rect x="222.1" y="157.1" transform="matrix(0.9011 -0.4336 0.4336 0.9011 -46.4849 112.1217)" class="st0" width="0.8" height="1.6"/>
		
			<rect x="227.9" y="178.8" transform="matrix(0.9501 -0.312 0.312 0.9501 -44.6365 80.1966)" class="st0" width="0.8" height="1.6"/>
		<rect x="223.8" y="166.3" transform="matrix(0.95 -0.3123 0.3123 0.95 -40.9619 78.3689)" class="st0" width="0.8" height="1.6"/>
		<polygon class="st0" points="231,186.5 230.5,184.9 229.7,185.2 230.2,186.8 		"/>
		<polygon class="st0" points="220.5,157 221,158.6 221.8,158.3 221.3,156.8 		"/>
		<polygon class="st0" points="230,183.4 229.5,181.8 228.7,182.1 229.2,183.6 		"/>
		<rect x="226.9" y="175.6" transform="matrix(0.95 -0.3123 0.3123 0.95 -43.7397 79.8)" class="st0" width="0.8" height="1.6"/>
		<polygon class="st0" points="223.8,164.6 223.3,163 222.5,163.3 223.1,164.9 		"/>
		
			<rect x="225.9" y="172.5" transform="matrix(0.9501 -0.312 0.312 0.9501 -42.786 79.2437)" class="st0" width="0.8" height="1.6"/>
		
			<rect x="224.8" y="169.4" transform="matrix(0.9501 -0.312 0.312 0.9501 -41.861 78.7673)" class="st0" width="0.8" height="1.6"/>
		<polygon class="st0" points="222.8,161.5 222.3,159.9 221.5,160.2 222,161.7 		"/>
		<polygon class="st0" points="231.3,213.9 230.5,214 230.8,215.6 231.6,215.5 		"/>
		
			<rect x="233.7" y="230.1" transform="matrix(0.982 -0.1888 0.1888 0.982 -39.3956 48.3757)" class="st0" width="0.8" height="1.6"/>
		<polygon class="st0" points="233.8,226.8 233,227 233.3,228.6 234.1,228.4 		"/>
		<polygon class="st0" points="230,207.4 229.2,207.6 229.5,209.2 230.3,209 		"/>
		
			<rect x="232.5" y="223.6" transform="matrix(0.9817 -0.1907 0.1907 0.9817 -38.5231 48.5259)" class="st0" width="0.8" height="1.6"/>
		
			<rect x="234.4" y="233.3" transform="matrix(0.9817 -0.1907 0.1907 0.9817 -40.3386 49.0618)" class="st0" width="0.8" height="1.6"/>
		<polygon class="st0" points="230.7,210.6 229.8,210.8 230.2,212.4 231,212.2 		"/>
		<polygon class="st0" points="232,189.6 231.5,188.1 230.8,188.3 231.3,189.9 		"/>
		
			<rect x="231.9" y="220.4" transform="matrix(0.9817 -0.1907 0.1907 0.9817 -37.9181 48.3472)" class="st0" width="0.8" height="1.6"/>
		<polygon class="st0" points="231.9,217.1 231.1,217.3 231.4,218.9 232.2,218.7 		"/>
		<rect x="245.4" y="232" transform="matrix(0.9501 -0.312 0.312 0.9501 -60.3634 88.2971)" class="st0" width="0.8" height="1.6"/>
		
			<rect x="221.9" y="168.7" transform="matrix(0.982 -0.1888 0.1888 0.982 -28.0069 45.0249)" class="st0" width="0.8" height="1.6"/>
		
			<rect x="221.2" y="165.4" transform="matrix(0.982 -0.1888 0.1888 0.982 -27.4074 44.8485)" class="st0" width="0.8" height="1.6"/>
		<rect x="220" y="159" transform="matrix(0.982 -0.1888 0.1888 0.982 -26.2087 44.4958)" class="st0" width="0.8" height="1.6"/>
		
			<rect x="220.6" y="162.2" transform="matrix(0.982 -0.1888 0.1888 0.982 -26.8081 44.6722)" class="st0" width="0.8" height="1.6"/>
		
			<rect x="226.9" y="194.5" transform="matrix(0.9817 -0.1907 0.1907 0.9817 -33.0777 46.9181)" class="st0" width="0.8" height="1.6"/>
		<polygon class="st0" points="220,155.5 220.8,155.2 220.7,155 221.1,155.9 221.9,155.6 221.2,154.1 220.5,154.4 220.2,153.7 
			219.7,153.8 219.4,152.4 218.6,152.6 218.9,154.2 219.5,154.1 		"/>
		<polygon class="st0" points="233.1,192.8 232.6,191.2 231.8,191.5 232.3,193 		"/>
		<polygon class="st0" points="219.3,152.2 219.7,153 220.4,152.6 219.7,151.1 219.5,151.2 219.2,150.5 219,150.6 218.9,149.7 
			219,149.6 218.7,149 218,149.3 218,149.3 218.3,151 218.5,150.9 218.9,152.3 		"/>
		<polygon class="st0" points="226.3,188 225.5,188.2 225.8,189.8 226.6,189.6 		"/>
		
			<rect x="226.2" y="191.3" transform="matrix(0.9817 -0.1907 0.1907 0.9817 -32.4725 46.7394)" class="st0" width="0.8" height="1.6"/>
		
			<rect x="225" y="184.8" transform="matrix(0.9813 -0.1925 0.1925 0.9813 -31.5199 46.8579)" class="st0" width="0.8" height="1.6"/>
		<polygon class="st0" points="225,181.5 224.2,181.7 224.5,183.3 225.3,183.1 		"/>
		
			<rect x="222.5" y="171.9" transform="matrix(0.982 -0.1888 0.1888 0.982 -28.6063 45.2013)" class="st0" width="0.8" height="1.6"/>
		
			<rect x="223.1" y="175.1" transform="matrix(0.982 -0.1888 0.1888 0.982 -29.2056 45.3776)" class="st0" width="0.8" height="1.6"/>
		<polygon class="st0" points="224.4,178.3 223.6,178.5 223.9,180.1 224.7,179.9 		"/>
		
			<rect x="219.4" y="155.7" transform="matrix(0.982 -0.1888 0.1888 0.982 -25.6092 44.3194)" class="st0" width="0.8" height="1.6"/>
		
			<rect x="228.7" y="204.2" transform="matrix(0.9817 -0.1907 0.1907 0.9817 -34.8929 47.454)" class="st0" width="0.8" height="1.6"/>
		<rect x="237.1" y="206.9" transform="matrix(0.95 -0.3123 0.3123 0.95 -52.9987 84.5706)" class="st0" width="0.8" height="1.6"/>
		
			<rect x="236.1" y="203.8" transform="matrix(0.9501 -0.312 0.312 0.9501 -52.0372 84.0086)" class="st0" width="0.8" height="1.6"/>
		<rect x="233" y="194.4" transform="matrix(0.9501 -0.312 0.312 0.9501 -49.2618 82.5793)" class="st0" width="0.8" height="1.6"/>
		
			<rect x="235.1" y="200.7" transform="matrix(0.9501 -0.312 0.312 0.9501 -51.1122 83.5322)" class="st0" width="0.8" height="1.6"/>
		<polygon class="st0" points="239.2,211.6 238.7,210 237.9,210.2 238.5,211.8 		"/>
		<rect x="234.1" y="197.6" transform="matrix(0.95 -0.3123 0.3123 0.95 -50.2209 83.1395)" class="st0" width="0.8" height="1.6"/>
		
			<rect x="242.3" y="222.6" transform="matrix(0.9501 -0.312 0.312 0.9501 -57.588 86.8677)" class="st0" width="0.8" height="1.6"/>
		<rect x="244.3" y="228.8" transform="matrix(0.95 -0.3123 0.3123 0.95 -59.4799 87.9101)" class="st0" width="0.8" height="1.6"/>
		<polygon class="st0" points="228.1,197.7 227.3,197.9 227.7,199.5 228.5,199.3 		"/>
		
			<rect x="243.3" y="225.7" transform="matrix(0.9498 -0.3128 0.3128 0.9498 -58.6374 87.6148)" class="st0" width="0.8" height="1.6"/>
		
			<rect x="228.1" y="201" transform="matrix(0.9817 -0.1907 0.1907 0.9817 -34.288 47.2754)" class="st0" width="0.8" height="1.6"/>
		<polygon class="st0" points="242.3,220.9 241.8,219.4 241,219.6 241.5,221.2 		"/>
		<polygon class="st0" points="240.3,214.7 239.7,213.1 239,213.4 239.5,214.9 		"/>
		<polygon class="st0" points="240.8,216.2 240,216.5 240.5,218.1 241.3,217.8 		"/>
	</g>
	<polygon class="st0" points="260,273.3 271.9,262.9 281.1,282 266.5,293 	"/>
	<polygon class="st0" points="267.1,294.8 281.9,283.6 293.8,308.4 275.4,320.1 	"/>
	<polygon class="st0" points="275.9,321.8 294.6,310 304.6,330.9 285.4,350.6 	"/>
	<polygon class="st0" points="251.6,316.4 249.5,305.4 265.5,295.8 273.6,320.4 	"/>
	<polygon class="st0" points="257,344.3 252,318.2 274.2,322.3 283.6,351 	"/>
	<polygon class="st0" points="306,332 328.8,332.4 288.8,349.6 	"/>
	<polygon class="st0" points="204.8,311.5 210.7,313.5 173.9,345.1 	"/>
	<polygon class="st0" points="206.1,310.1 227.1,287.2 238,289.9 212.2,312.1 	"/>
	<polygon class="st0" points="228.5,285.7 242.1,271.3 256.9,273.6 239.6,288.5 	"/>
	<polygon class="st0" points="211.6,315 214.3,324.2 171.2,349.8 	"/>
	<polygon class="st0" points="213.3,313.6 239.3,291.2 242.7,307.3 216.3,323 	"/>
	<polygon class="st0" points="241,289.7 258.5,274.6 264.9,294.1 244.6,306.2 	"/>
	<polygon class="st0" points="306.2,330.2 304.7,327 322.7,330.5 	"/>
	<path class="st0" d="M242.6,269.6l-0.8-4c0.7-0.5,1.3-1.3,1.5-2.5c0-0.3,0.1-0.5,0.1-0.8c0.1-0.6,0.1-1.2,0.4-1.7
		c0.3-0.4,0.8-0.7,1.4-1c0.6-0.3,1.2-0.7,1.7-1.2c1-1.1,1.3-2.8,0.8-4.8c-0.1-0.6-0.3-1.1-0.5-1.7c-0.3-0.8-0.5-1.5-0.6-2.2
		c-0.3-1.8,0.7-3.8,2.2-5l9,27.3L242.6,269.6z"/>
	<path class="st0" d="M250.4,244C250.4,244,250.4,244,250.4,244c1.2,0,2.6,0.5,4,1.4c1.3,0.8,2.5,1.8,3.5,3l0.3,0.3
		c0.4,0.4,0.7,0.8,1.1,1.2c1.5,1.3,3.6,1.9,6.2,1.9c0.3,0,0.6,0,0.9,0l4.7,9.5l-11.7,10.2L250.4,244z"/>
</g>
</svg>
