<svg id="Design" xmlns="http://www.w3.org/2000/svg" xmlns:xlink="http://www.w3.org/1999/xlink" viewBox="0 0 1920 1080"><defs><style>.cls-1{fill:none;}.cls-2{fill:url(#linear-gradient);}.cls-3{clip-path:url(#clip-path);}.cls-4{opacity:0.61;}.cls-5{opacity:0.63;}.cls-6{opacity:0.4;}.cls-7,.cls-8,.cls-9{fill:#fff;}.cls-7,.cls-9{stroke:#b2b2b2;stroke-miterlimit:10;}.cls-7{stroke-width:0.5px;}.cls-9{stroke-width:0.25px;}</style><linearGradient id="linear-gradient" x1="958.5" y1="-10" x2="958.5" y2="1089" gradientUnits="userSpaceOnUse"><stop offset="0" stop-color="#054447"/><stop offset="0.17" stop-color="#185461"/><stop offset="0.74" stop-color="#578bb5"/><stop offset="1" stop-color="#70a0d7"/></linearGradient><clipPath id="clip-path"><path class="cls-1" d="M-6-10H1921l9,1090.21L-13,1089Q-9.49,539.5-6-10Z"/></clipPath></defs><title>715621_Schoolcodedesignbackground_050720</title><rect class="cls-2" x="-13" y="-10" width="1943" height="1099"/><g class="cls-3"><g class="cls-4"><g class="cls-5"><g class="cls-6"><path class="cls-7" d="M-30.1,1705.2l1.16-.58.06.07.29-.24,1.37,1.85-.42-2.27,289.86,41.23-.15,4,1-3.12.21-1.2L394,1610.77l.7,2.08,0-2.39v-.38L568.76,1431.4l398.77,192.74,1,1L911.34,1322,1163.27,1311l.09-.18,135.42-218.58,1.57-.1,413.57,150.5,0-.48L1782,1085.4l236.21,57-.34-.72L1917.53,929.14l115.35-75.07-.11-.28L1970.64,689l160.23-66.91,2.22.85-1.74-1.46-.19-.16,1.05.08.06-.75-2.12-.17-188.22-158-1.14-.15-235.06-8-1.08-.57-1-.23-.85.08-.15,1.16,0,.46.06,0,.45,131.76-235.47,88,0,.2L1401,925.93l-209.42-52.65-.47-.95-.35.64,0,.09L919.49,804.88l.27-1.85-.8,1.72-.56-.14-.81-.21.78,1.61L774.63,1113.8l-298.42-13.91L144.7,1009.32l-.82-.87.22,1.14-158,262.76-.1.13-.65-.13.3.51-234.47,167.49-1.25,0,1.12.66,219.56,263Zm178.4-153.87L-27.36,1702,82.38,1438,148.65,1551l-.38,0ZM203.14,1311l155.21-119.53,173.46,67.77L390,1344.12Zm329.49-52.25-173.57-67.82L475.77,1101l115.35,122.69Zm59-34.44,85.45,90.89-143.58-56.1Zm-603.86,48.49,193.92-68.32,20.51,106.31,0,0Zm213.7,38.76-118.94,125L-13,1273.52Zm.47.61-53.81,236.39L83,1437.27Zm-221,126,5.5-162.29.83-.14,94.63,161.46Zm6.13-166L144.31,1010.7l37.24,193Zm158-261.3,146.52,154-109.37,38.53Zm147.15,154.66.17.19.08,0,65,25.41L202.89,1310.22l-20.46-106Zm.94-.33,180.68-63.66L358.23,1190.6Zm183.32-64.52,297.06,13.84L591.83,1223.3ZM774,1115.16l-93.62,200.46-.88.91.13-.35-.74-.29-86.52-92Zm-82.17,215.72L665.57,1332l13.93-14.31Zm-27.5,1.19-272.8,12,141.17-84.49,145.61,56.9.62.65Zm-273,13.58,2.61,262.43-44.77-133-.2.07,41.32-130ZM348,1475.5l-192,70.37,233.24-200Zm-194.2,71.17-4.81,1.76,53.87-236.64,186.27,33Zm-1.65,1.41-2.82,2.42-.66-1.14ZM81.57,1438-28,1701.46l8.9-262.55Zm-106,134.71L-247.35,1441.1l227.46-2.18Zm-223.08-132.32,233.21-166.59v.47l-5.57,163.94Zm393.23-430,329.15,89.93-182.43,64.27Zm629.4,104.2,96.73,4.51L682,1314ZM918.24,808.09l-46.37,310.24-96.42-4.49Zm.85-.59,144.73,298.8-191.06,12.18-.13-.09Zm271.2,66.25-125.85,232.08L919.29,806.17l.08-.52Zm.74.23,64.57,130.12-190,101.22Zm209.33,52.58-.4.65-143.69,76.54L1192,874.18ZM1537.65,1077l167.49-10.65.09,0-.54.35.62.15c-.1,2.5.38,15.64,3.71,87.57,1.85,40.13,3.76,80.2,4.07,86.69Zm168-10.87V1066l124.85-318.41-8,242.53Zm116.46-74.89-40.53,93.26-75-18.09Zm-117.3,74-126.13-57.76,125.1-207,.13-.06Zm-1.14-336.4.24,70-.29.38-.29.48L1583,850l9.46-136.91Zm-110.81-16.46L1703.17,588.6l.48,139.51ZM1402.05,926.5,1702.57,801,1578,1007.19,1402,926.6ZM1704.47,729l49.26,7-49,61.94Zm50.12,7.1,75.32,10.66-.09.21L1704.7,799.19v-.07Zm74.8,11.94-123.78,315.68-.88-263.61ZM1703.53,1065.6l-166.38,10.59,41.08-68Zm-167.06,10.26-134.55-148.4,175.62,80.44ZM1403.35,925.05l188.28-211.28-9.44,136.4.39,0ZM1592,712.26l-122.77-37L1702.7,588Zm112.2-124.77L1861.37,600l-107.1,135.32-49.8-7.06L1704,587.67ZM1862.28,600l24.37,1.94-56.06,143,0-.07v.18l-.36.92-75-10.63Zm.57-.71,49.22-62.2L1887,601.23Zm49.9-61.64,25.5,67.62-50.44-4Zm25.8,68.4,31.1,82.48-138.31,57.76-.17-.09-.1-.21,56.45-144Zm-107.34,142,85.35,180.78-93.33,60.73Zm-295.39,328.18-235.57,15-.67-.25,0-.07,101.1-163.24.32-.17Zm-236.7,13.81-42.51-85.65,142.56-75.94Zm169.15-414.32,123.13,37.12L1401.82,925.62Zm443.31-139.24-49.64,62.72L1704,586.72l-.43-131.42ZM1941,463.24l-28.31,72.19-.09-.23-.42.52-.07.1-206.57-80.59Zm187.64,157.12-215.39-84.07,28.54-72.76Zm-2.81-.18-186.77-14.82-25.7-68.14Zm-155.51,68.09-31-82.12,188.93,15,1.47.57Zm61.36,164.84L1832.27,746.82l137.67-57.49ZM1917.2,928.45l-85.48-181.07,200,106.57Zm99.31,212.12L1823.33,990.45l93.56-60.89Zm-234.2-55.88L1823,991.13l192.94,149.93Zm-1,.52-67.45,155.2c-.81-17.11-7.8-164.38-7.81-173.35Zm-479,6.78,234.31-14.91,0,0,0,0,175.28,164Zm-3.93-.6-232.75,14.8,190.38-101.4,42.71,86ZM1065,1107.07l232.73-14.82L1163.13,1309.6Zm97.22,202.51L873.9,1119.22l189.84-12.09,0,0,.1,0,.4,0Zm-251.06,11.65-38-201.46,288.51,190.44Zm-.84,0-217.41,9.55-12.85-13.67.34.16.46-1,191.49-196.59Zm-216.68,10.36,216.86-9.54,56.57,300.4Zm-124.31,99.12,95.39-97.85,27.85-1.23L966,1622.44Zm-177.31-85.66v-.18h-.38l271.86-12-95,97.44Zm2.63,263.81L392.06,1346,568,1431Zm-131,134.47,85-267.32h0l45,133.85Zm-114-192.16,4.58-3.93,193.38-70.87-85,267.48Zm19.36,180,.38,0-20.33-179.33L261.94,1744.4Zm-196.59-28,175.94-150.88,20.26,178.79Zm-1.35-.22-.41,0,.14.24-217.88-261,222.55,131.34Z"/><path class="cls-8" d="M1709.22,1054a12.6,12.6,0,0,0-8,23.92,12.21,12.21,0,0,0,7.81,0,12.59,12.59,0,0,0,.15-23.93Z"/><path class="cls-8" d="M1706.07,445.89a9.43,9.43,0,0,0-5.78-.05,9.32,9.32,0,0,0-6,11.7,9.25,9.25,0,0,0,11.68,6,9.29,9.29,0,0,0,.08-17.65Z"/><path class="cls-8" d="M1706.3,578.6a9.24,9.24,0,0,0-11.77,11.63,9.29,9.29,0,0,0,17.69-5.69A9.25,9.25,0,0,0,1706.3,578.6Z"/><path class="cls-8" d="M1915.89,527.39A9.27,9.27,0,0,0,1904.11,539a9.15,9.15,0,0,0,5.91,6,9,9,0,0,0,5.77,0,9.25,9.25,0,0,0,6-11.68A9.16,9.16,0,0,0,1915.89,527.39Z"/><path class="cls-8" d="M1585.77,842a9.46,9.46,0,0,0-5.79,0,9.33,9.33,0,0,0-6,11.69,9.17,9.17,0,0,0,5.92,6A9.35,9.35,0,0,0,1591.1,855a9.27,9.27,0,0,0-5.33-13Z"/><path class="cls-8" d="M1470.94,666.48a9.46,9.46,0,0,0-5.79-.05,9.32,9.32,0,0,0-6,11.69,9.17,9.17,0,0,0,5.92,6,9,9,0,0,0,5.76,0,9,9,0,0,0,5.43-4.58,9.29,9.29,0,0,0-5.33-13.06Z"/><path class="cls-8" d="M1594.63,705.38a7.63,7.63,0,0,0-9.72,9.6,7.61,7.61,0,0,0,4.88,4.94,7.69,7.69,0,0,0,9.23-3.78,7.63,7.63,0,0,0-4.39-10.76Z"/><path class="cls-8" d="M1706.51,721.1a7.63,7.63,0,0,0-9.72,9.59,7.58,7.58,0,0,0,4.88,4.95,7.69,7.69,0,0,0,9.23-3.78,7.63,7.63,0,0,0-4.39-10.76Z"/><path class="cls-8" d="M1920.56,919.11a10.49,10.49,0,0,0-13.34,13.17,10.42,10.42,0,0,0,6.7,6.79,10.58,10.58,0,0,0,12.67-5.18,10.49,10.49,0,0,0-6-14.78Z"/><path class="cls-8" d="M1826.14,980.58a10.48,10.48,0,0,0-13.33,13.17,10.4,10.4,0,0,0,6.7,6.78,10.58,10.58,0,0,0,12.66-5.18,10.48,10.48,0,0,0-6-14.77Z"/><path class="cls-8" d="M1404.84,914.6a12.34,12.34,0,0,0-7.83,0,12.6,12.6,0,0,0-8.15,15.83,12.46,12.46,0,0,0,8,8.1,12.27,12.27,0,0,0,7.85.06,12.6,12.6,0,0,0,8.12-15.86A12.39,12.39,0,0,0,1404.84,914.6Z"/><path class="cls-8" d="M1259.92,992.57a12.41,12.41,0,0,0-7.83,0,12.58,12.58,0,0,0-8.15,15.82,12.42,12.42,0,0,0,8,8.1,12.2,12.2,0,0,0,7.85.07,12.61,12.61,0,0,0,8.12-15.86A12.45,12.45,0,0,0,1259.92,992.57Z"/><path class="cls-8" d="M1092.6,838.48a9.66,9.66,0,0,0-6.06,0,9.74,9.74,0,0,0-.08,18.52,9.52,9.52,0,0,0,6.06,0,9.75,9.75,0,0,0,.08-18.54Z"/><path class="cls-8" d="M1707.44,790.15a9.4,9.4,0,0,0-6.11,0,9.82,9.82,0,0,0-.09,18.69,9.38,9.38,0,0,0,6.1,0,9.84,9.84,0,0,0,6.37-12.37A9.71,9.71,0,0,0,1707.44,790.15Z"/><path class="cls-8" d="M1833.89,736.43a10.6,10.6,0,0,0-6.77,0,10.9,10.9,0,0,0-.11,20.74,10.53,10.53,0,0,0,6.77.05,10.92,10.92,0,0,0,.11-20.76Z"/><path class="cls-8" d="M1539.76,1066.81a10.2,10.2,0,1,0-6.46,19.36,10.2,10.2,0,0,0,6.46-19.36Z"/><path class="cls-8" d="M1194.52,864a10.21,10.21,0,1,0-.11,19.37,10.07,10.07,0,0,0,5.95-5,10,10,0,0,0,.64-7.8A10.15,10.15,0,0,0,1194.52,864Z"/><path class="cls-8" d="M997.7,952.71a10,10,0,0,0-6.34,0,10.17,10.17,0,1,0,6.34,0Z"/><path class="cls-8" d="M921.52,795.31a10.11,10.11,0,0,0-6.34-.06,10.25,10.25,0,0,0-6.6,12.84,10.06,10.06,0,0,0,6.52,6.54,9.91,9.91,0,0,0,6.32,0,10.19,10.19,0,0,0,6-5,10.2,10.2,0,0,0-5.87-14.32Z"/><path class="cls-8" d="M147.4,1000.89a8.83,8.83,0,0,0-5.72,0,9.07,9.07,0,0,0-5.41,4.54,9.31,9.31,0,0,0,5.31,13,9.59,9.59,0,0,0,5.76,0,9.23,9.23,0,0,0,.06-17.54Z"/></g><path class="cls-9" d="M-898.69,1219.44l157.12,8.92.17-.08,153-74.7,169.42,91.65,37.16-52.78,116.36,21.93,71.51,281.56.9-.65L37.31,1329.2l5.57,2.11-3-2,194.61,13.58L403.47,1622.1l-.81-4,94.69-251.26.46.24-.08-1,114.83-102.5.54-.17L613,1263l55.34-160.81,184.6-55-.12-.67-10.93-63,97.79-66.77L1189.3,1065.3l.17-1.09,45.42-280.29,5.44-2.44-3.53.66,147.22-128,127.24,31.31,105.8,264.17-3.33.6,3.83.65.58,1.45.46-1.26L1887,997.17l.22.31.35-.21.3.05.14-.32,233.78-135.58.32,0,0-.16.45-.27-.27-.37,79.77-271.52,164.59-113.69,238.18,10.76-3-1.49L2521,332l-10.58-62.27,111-82.66,1.49.55-.63-1.19,1.42-1-1.95.07L2488.69-61l55.39-50.15,317.27,18.53.21.13.11,0,191.11,73.21L2969-151.14l141.7-77.35,196.77,36,158.09,173-.08.25.29.12,27.15,105,207.32-12.49,2.2.87L3518.12-185.11l36.31-51.18,139.73,20.45-1.66-1.54L3633-346.56l.08-.11,159.8-202.06-147.24,55.52-.13.14L3535.84-362.79l-2-.31.21.2-190.25-15-.14.65-12.45,62.67-115.27,27.1L3036.48-515.91l-.56.95L2892.67-269.79l-6,.33,3.53.64-183.42,66.44L2443.06-386.51l0-.34h-.46l-3.34-2.33,1.62,2.3-62-1.48-41-139.81L2122.29-392.94l2.24.05,145,120.58L2082.49-148.09l1.08.6,209.25,116,114.84,225.1L2261.33,318.56l.37.56,35.51,53.12-62.34,100.67-288.44-34.63.29,1.07L2018.78,714l-4,4.43,3-2L1972.05,814l-274.81-84.35L1470,578.4l-.12-.32-.3,0-.25-.16-.25.22L1200.42,607.4l-.33-.09-.1.14-.52,0,.09.44L1016.61,823.86,820.07,861.09,606.68,754.74l2.16,2.59L621,929.63l-15.55,61.22-135,30.58-1.14-1.1.1,1.34-1.71.38,1.8.73L491.23,1302l-71,23.41L137.72,1180l-.13-.22h-.17l-.4-.32-.26.38-282,23.3-165.31-112.65-75.68-226.08-.31,3.34L-499.83,998.13l-54.28,32.29L-673.57,955.1l.89,2.09,2.08,142.22-.12.06Zm156.54,7.38-151-8.57,221.64-116.65Zm71-266,47.41,111-45.39,27Zm115.55,70.45L-622.41,1071-670.29,959Zm135.76,211.76-163.91-88.68,168.94,31.85Zm-168-91-34-79.64,67.67-40.25,144.91,91.38-5.41,61.16Zm232,3.42,44.34-63,45.13,119.39Zm-1.27-.8-50.62-31.92,6.64-75,88.66,43.46Zm-.87,1.23-24.55,34.86-30.72-5.79,5.36-60.54Zm-194.8-124.6,53.39-31.75,96.85,47.48-6.63,74.82Zm165.9-161-15.52,175.17-95.82-47Zm1.39,1.42,72.9,217.78-88.36-43.32Zm237.73,331.61-116.62,9.63-45.38-120Zm2,1.34,177.2,120.75L-261.42,1214.2Zm564,121.47-70,23.1L143.46,1184.6Zm74.76,38.5-141.36-14.94,68.48-22.59Zm-1.68-61,4.74,60.91-73.94-38.09Zm1.48-.49,25.38-8.38-20.82,67.08Zm-.13-1.55-21.58-277.37L571.83,1122l0,.13-53,170.84Zm118.56-39.1-90.74,29.93,52.2-168.17Zm56.36-161.77-80.36-32.25,19.39-76.33,167.07-37.85,39.42,47.07Zm146.49-98.2,36.62,43.75-178.61,53.2Zm123.17-86.82L834.12,939l-13.18-75.87ZM832.65,939.35l-58.36,13.23-48.35-57.74,93.43-32Zm.26,1.49,7.29,42-25.82,17.62-39-46.59ZM665.16,1101.31l-91.34,20,13.06-51.4Zm-191.69-76.94,112,45-13,51.18ZM605,992.48l-19.16,75.37-113.11-45.39Zm2.06-2,15.3-60.19,102.06-34.92L772.64,953Zm3.43-231.18L723.38,894.12l-101,34.54ZM818,861.75l-93.1,31.86L612.48,759.31Zm197.06-36.07L939.41,915l-117-52.78Zm2.35-.44,210.67-39.92L942.34,913.83ZM1692.9,728.6l-180.53-44.43L1471,580.86Zm278.51,86.8L1935,893.09l-107,19L1698.82,731.73Zm-23-375.35,285.28,34.24L2020,712.67Zm507.76-559.18-184.12-153,116.54-77.37ZM2390-350.42l51.7-34.33,14.86,261.27Zm95.8,486.75-76.51,56.09L2394.93,26.09ZM2294-32.56l-35.83-70.24,198.3-13.34L2393.62,22.69Zm164.88-80.6,28,51.82-19.82,18Zm6.78,71-69.47,62.91,61-134.95Zm.21,1.84,20.43,174.9L2395,23.83Zm20.6,178,8.89,52.28-84.3,3Zm9.14,53.78,13.2,77.62L2371.36,371.42l-55.1-27.08L2409,194.56ZM2314.9,343.68l-51.21-25.15,141.73-121ZM2370,372.42l-47.32,35.24L2299,372.21l16.46-26.57Zm1.52.75,67.59,33.2-72.45,67.08-43.14-64.54Zm-6.42,100.66L2237.48,473l84.84-63.16Zm-131.52,2.85-32.73,111.43L2024.43,710Zm64.54-103.07,23.35,34.95L2238,470.75Zm-.05-2.78-33.57-50.22L2314.1,345Zm-2.9-401,98.07,54.38L2407.52,190ZM2270.8-271.3l184.91,153.7-200,13.46.52,1,35.33,69.25L2085.38-148.2ZM2127-392.83l250.72,5.94,10.52,35.83-117.3,77.88Zm250.28,4.43-249.91-5.93,209.6-131.52Zm62.68,3-50.42,33.48-10.23-34.92ZM2598.87-163.3,2458.33-118l-15.1-265.54Zm106.22-38.44-104.73,37.93L2445.43-383Zm152.6,106.53L2602.6-163l104-37.68ZM2708.33-201.32l183.81-66.58L2861.08-94.67Zm505.84-86-319.7,17.41,142.19-243.35Zm193.25,97.2-98.66-3.81L3323.89-270l59.22,8.68Zm2.14,1.6,106.63,4.1L3466.36-22.08ZM3599.3-302.13l-45.56,64.21-169.51-24.81-19.82-58.11,171.52-40.31Zm-60.85-58.73,92.4,14.24-30.68,43.24Zm-193-15.4,185.78,14.65-167.36,39.34ZM3382.56-263l-58.38-8.55,8.31-41.82,30.44-7.15Zm-164.81-22.61,104.65,15.33-15,75.52Zm-5.38-.13-101.93,55.65-210.92-38.59ZM3330.89-313l-8.2,41.23-103-15.09Zm1.93-2,11.78-59.25,17.84,52.29Zm204.76-47.56,107.49-127.73-13.73,142.18ZM3788.3-545.41,3632.93-348.95,3646.76-492Zm-98.7,325.32-88.31-82.25,30.55-43.07Zm-134.19-17.59,45-63.42L3689.6-218Zm-38.59,51.79L3409-190l-24.26-71.09,168,24.6ZM3698.27,71,3467.32-20.09l50.15-163.35Zm-204.21,13.3L3467.88-16.89l.39.42-.64-1.87L3696.91,72.1ZM3309.62-192.37l98.33,3.8,56.56,165.76Zm-196.83-37.26,102.73-56.07,90.12,91.35Zm-144.61,77.22L2894.68-268l213.66,39.09ZM2863.41-93.5l104.25-56.91,81.41,128Zm-.77-1.29L2893.51-267l73.34,115.34Zm-317-17.8,54.64-49.48,253.94,67.5Zm-83.94-4.9L2597-161.1l-53.44,48.39ZM2488-62.38l-29-53.76,83,4.84Zm131.73,247.24L2488,136.25v-.14L2467.2-41.56,2487.54-60Zm-2.24.78-120.6,4.28L2488,137.86Zm-107.31,82.45-13-76.67,121.81-4.33Zm-1.08,2.68L2519.46,332l-79.16,73.28-67.42-33.11Zm90.54,212.73L2441.75,406l78.31-72.49Zm-231.23-9.58,72.21-66.84,157.21,77.21ZM2202.83,586.75l33-112.29,128.33.87ZM2020.66,714.4l179.53-124L2121.28,859Zm99,145-146.19-44.88,46.23-98.76Zm-1.34,1.16-181.51,32.26,36-76.92ZM1889.17,994.62l46.9-100.18,181.43-32.25ZM1829,913.48l105.29-18.72L1887.33,995Zm-206.49,36.7,204.84-36.41,58.48,81.66Zm-3.22-1L1697.13,732l129.21,180.45ZM1513.06,685.89l182.85,45-77.85,217.18Zm-127.65-33,83.68-72.76,41.49,103.57Zm-180.72-44.47,262.4-28.55-83.47,72.59Zm177.54,45.25L1234.7,782l-33.37-172.8Zm-148.9,129.1L1019,823.41l181-213.57ZM941.23,916l292-131.31-45.07,278.22Zm-99.66,65.95-7.19-41.42,101.55-23Zm-1.08,2.56L850.82,1044l-35.46-42.35ZM612.25,1260.4l-38.36-137.59,92.67-20.26Zm-113.78,103,21.5-69.28,89-29.36ZM402.1,1615.31,349,1350.91l146.86,15.51ZM236.37,1343l111.12,7.75L400.29,1614ZM140,1183.77l205.73,165.37-110.34-7.71Zm93.55,157.54-195-13.62,98.6-145.77ZM37,1327.3l-180.29-122.85,279-23Zm-230,166.12-70.72-278.49L35.62,1328.56Zm-187.83-302.33,24.21-34.36,88.07,55.53Zm-2.58,1.05-34.76,49.39,4.87-55ZM-590,1150.78l-78.71-50.47,45.57-27.1Zm.12,1.87-150,73.21,70.17-124.41Z"/><path class="cls-8" d="M1884,1006.43a10.54,10.54,0,1,0-6.48-13.43A10.54,10.54,0,0,0,1884,1006.43Z"/><path class="cls-8" d="M1614.62,960.14a10.54,10.54,0,1,0-6.47-13.42A10.53,10.53,0,0,0,1614.62,960.14Z"/><path class="cls-8" d="M829.23,852a13.55,13.55,0,1,0,.61,19.16A13.54,13.54,0,0,0,829.23,852Z"/><path class="cls-8" d="M1243.48,773.51a13.56,13.56,0,1,0,.61,19.16A13.56,13.56,0,0,0,1243.48,773.51Z"/><path class="cls-8" d="M859.26,1038.94a10.54,10.54,0,1,0,.48,14.9A10.54,10.54,0,0,0,859.26,1038.94Z"/><path class="cls-8" d="M1196,1056.41a10.54,10.54,0,1,0,.47,14.9A10.55,10.55,0,0,0,1196,1056.41Z"/><path class="cls-8" d="M477.42,1014.56a10.54,10.54,0,1,0,.48,14.9A10.54,10.54,0,0,0,477.42,1014.56Z"/><path class="cls-8" d="M629,922a10.54,10.54,0,1,0,.47,14.9A10.54,10.54,0,0,0,629,922Z"/><path class="cls-8" d="M1476.61,571.21a10.53,10.53,0,1,0,.47,14.89A10.53,10.53,0,0,0,1476.61,571.21Z"/><path class="cls-8" d="M1704.12,722.67a10.54,10.54,0,1,0,.47,14.9A10.54,10.54,0,0,0,1704.12,722.67Z"/><path class="cls-8" d="M614.73,751.54a7.53,7.53,0,1,0,.34,10.64A7.52,7.52,0,0,0,614.73,751.54Z"/><path class="cls-8" d="M944.77,910.39A7.53,7.53,0,1,0,945.1,921,7.54,7.54,0,0,0,944.77,910.39Z"/><path class="cls-8" d="M1205.52,602.67a7.53,7.53,0,1,0,.35,10.64A7.52,7.52,0,0,0,1205.52,602.67Z"/></g><g class="cls-6"><g class="cls-6"><path class="cls-7" d="M-1828.29,581.6l1.3-.12,0,.09.36-.13.62,2.22.42-2.27,255.89,142.25-1.57,3.68,2.06-2.54.62-1,170.1-78.5-.09,2.2.83-2.25.13-.35,226.51-104.53L-867.74,863l.55,1.27,55.11-303.47,239.21,79.84.15-.14L-368,484.88l1.51.47L-34.24,773.91l.15-.46,119.7-122L285.77,789.25l-.06-.79L268.08,554.09l134.58-28.81V525l.95-176.07,173.56-5.12,1.76,1.58-1.09-2-.13-.22,1,.46.33-.69-1.93-.92L457.88,127.14l-1-.55L240.25,35l-.81-.91-.8-.55-.82-.24-.56,1-.21.41.07,0-46.74,123.2L-61,155.76l-.11.16-152,210.26-176.7-124.12-.1-1.05-.56.47-.07.07L-619.36,80.82l.92-1.63-1.36,1.32-.48-.33-.67-.49.15,1.79-244.39,236-273.67-119.81L-1416-5.61l-.45-1.1-.21,1.14-241.59,188.79-.14.08-.56-.35.09.59L-1937.74,256l-1.17-.44.81,1,110.87,324.19Zm221.66-79.82-217.95,77.81,197-207.25,21.4,129.29-.37-.1ZM-1469.4,297l187.72-56.05L-1144,366.31l-162.82,28.5ZM-1143,366.14l-137.79-125.45,141.15-42.15,63.79,155.85Zm67.44-11,47.26,115.45-114-103.77Zm-581.21-170.86,205.53,5.61-18.9,106.61,0,0Zm185.67,112.68L-1627,371.11l-30.85-186.47Zm.22.73-134.85,201.47-21.06-127.24Zm-251.45,38.55,63.22-149.57.83.16,30.57,184.64Zm65.13-152.81,240.4-187.86L-1451.14,189ZM-1416.15-4l81.69,196.24-115.91-3.17Zm82,197.08.1.24.06.06,51.61,47-187,55.85,18.84-106.31Zm1,0,191.49,5.23-139.87,41.77Zm194.27,5.37,272.43,119.26-208.66,36.52Zm272.58,120-159.17,153.67-1.16.53.26-.28-.59-.53L-1074.77,355Zm-154,172-24.93-8.31,18.13-8.38Zm-26.1-8.73-259-86.43L-1143.27,367l115.6,105.25.34.83Zm-259.8-85.05-91.5,246,5.81-140.23h-.21l85.11-106.59ZM-1393,502.44l-204.49-3,289.38-103.29Zm-206.81-3.06-5.12-.07,135-201.69,162.1,97.52Zm-2.05.73-3.5,1.25-.21-1.3ZM-1628.35,372l-196.6,206.84,102.28-242Zm-147.21,87.83-161-202.63,213.16,79.39ZM-1936.5,256.47l277.39-72.08-.16.44-63.88,151.09ZM-1415.42-4.25l275.15,201.78-193.35-5.28ZM-865,318.33l88.7,38.83-247,114Zm243.35-235L-776,356.46l-88.42-38.7Zm1-.24,28.18,330.8-182.75-57-.1-.14Zm229.51,158.93L-591.73,413.72-620,82l.26-.45Zm.61.48,13.72,144.61-213.66,26.5Zm176.65,124-.61.46-161.57,20-13.66-144Zm74.33,189.63,160.21,50,.07.06-.62.14.52.35c-1,2.31-5.24,14.74-27.88,83.1-12.63,38.14-25.2,76.24-27.23,82.4Zm160.74,50,.05-.14L251.78,353.39,157.48,577Zm135.56-28.24L85.52,650.49,22,606.76ZM20.71,605-76.39,506,114.52,357.45h.14ZM140.06,290.53,115.21,356l-.41.24-.44.34L-16,360.47,41.85,236Zm-97.58-55,147.34-76.12L140.33,289.81ZM-212.3,367.11l325.54-9.63L-76.92,505.42-212.41,367.17Zm353.08-76.18,43.5,24.14-67.95,40.29ZM185,315.5l66.51,36.92-.15.16-135.53,4,0-.06Zm65.57,37.93L22,603.88l93.55-246.46ZM19.42,604.91l-159.15-49.67L-77,506.47Zm-159.66-50.23L-212.76,368l135.19,138Zm-70.32-188.46L40.86,236.33l-57.63,124,.35.16ZM41.71,235l-101.38-78.5,249.27,2.11ZM191.14,158.7l142.33,67.91L185,314.63l-44-24.41,49.88-131.41ZM334.3,227l22.06,10.53L252.81,351v-.09l-.07.17-.67.73L185.8,315.05Zm.78-.46,68.23-40.45L356.9,237Zm68.66-39.69-.39,72.26-45.67-21.79Zm-.39,73.1-.48,88.15L253,352.52l-.12-.14,0-.23L357.15,237.91ZM252.29,354.13l15,199.35L158.39,576.79ZM-141,554.84l-225.32-70.32-.54-.47V484L-214,367.73l.36,0ZM-367,483l-9-95.19,160.29-19.88ZM-60.72,156.68,41,235.42-212.2,366.21Zm463.78,28.67-68.8,40.79-143-68.22L237.9,35.06Zm53.73-57.89-52.28,57.28v-.25l-.57.34-.1.06L239.8,35.7Zm119,213.87-171-155.59L457.43,128Zm-2.56-1.17L404.11,259.48l.39-72.83Zm-169.58,7.92.48-87.77,171,81.62,1.16,1.06ZM401.91,524,253.73,353.32l149.13-4.4ZM268,553.32,253,353.65,401.58,524.73Zm16.8,233.61L158.18,577.61l109.15-23.37Zm-198.68-136,71.45-72.81L284.09,787.18ZM85,651-33.55,771.82C-28.19,755.55,18,615.53,21.2,607.15Zm-449.7-165.13,224.12,69.95,0,0,0,0,105,215.86Zm-3.47-2-222.62-69.48,214.06-26.55,9.08,95.64Zm-223.43-68.85L-369,484.55l-203.5,154.76ZM-573.33,639-774.44,358l181.59,56.66,0,0,.11,0,.38.12Zm-238.6-79,36.67-201.7L-574,639.38Zm-.79-.26-206.43-68.9-7.11-17.37.27.28.78-.76L-776,358Zm-206-67.88,205.91,68.71-54.71,300.75Zm-151.56,48.06,124.1-57.24,26.44,8.83,151.18,369.35Zm-134.9-143.45.07-.18-.36-.13h0l258.13,86.14-123.56,57Zm-92,247.27,91.66-246.41,133.83,142.33Zm-170.43,78.67,175-219.2h0l-5.85,141.1Zm-37.65-220.23,5.68-2,205.94,3L-1568.8,722.5Zm-46.34,175,.37.1,45.2-174.72,36.42,220.21Zm-173.55-96.48,218.28-77.91L-1651.95,677Zm-1.19-.68-.37-.19,0,.28-110-321.72,160.8,202.3Z"/><path class="cls-8" d="M465.49,117.53A12.62,12.62,0,1,0,470.08,128,12.58,12.58,0,0,0,465.49,117.53Z"/><path class="cls-8" d="M28.89,596.09a12.57,12.57,0,0,0-20.57,9,12.49,12.49,0,0,0,4.58,10.43,12.25,12.25,0,0,0,7.29,2.82,12.56,12.56,0,0,0,13.27-11.85A12.4,12.4,0,0,0,28.89,596.09Z"/><path class="cls-8" d="M243.61,27.16a9.43,9.43,0,0,0-5.38-2.11,9.3,9.3,0,0,0-9.77,8.78,9.26,9.26,0,0,0,8.75,9.78,9.29,9.29,0,0,0,6.4-16.45Z"/><path class="cls-8" d="M196.32,151.16a9.24,9.24,0,0,0-15.15,6.65,9.26,9.26,0,0,0,8.77,9.78,9.26,9.26,0,0,0,6.38-16.43Z"/><path class="cls-8" d="M410.36,178.36A9.27,9.27,0,0,0,395.19,185a9.26,9.26,0,0,0,8.76,9.76,9.23,9.23,0,0,0,9.79-8.76A9.18,9.18,0,0,0,410.36,178.36Z"/><path class="cls-8" d="M46.67,229.57a7.64,7.64,0,0,0-12.51,5.48A7.61,7.61,0,0,0,37,241.42a7.43,7.43,0,0,0,4.44,1.71,7.65,7.65,0,0,0,5.28-13.56Z"/><path class="cls-8" d="M145.51,284.29A7.64,7.64,0,0,0,133,289.78a7.61,7.61,0,0,0,2.79,6.36,7.69,7.69,0,0,0,10-.23,7.65,7.65,0,0,0-.25-11.62Z"/><path class="cls-8" d="M408.18,517.81A9.27,9.27,0,0,0,393,524.46a9.18,9.18,0,0,0,3.38,7.71,9.35,9.35,0,0,0,12.09-.27,9.28,9.28,0,0,0-.3-14.09Z"/><path class="cls-8" d="M274.5,545.8a10.68,10.68,0,0,0-6.1-2.4,10.55,10.55,0,0,0-11.06,9.93,10.39,10.39,0,0,0,3.82,8.73,10.57,10.57,0,0,0,13.68-.3,10.49,10.49,0,0,0-.34-16Z"/><path class="cls-8" d="M164.34,569.4a10.48,10.48,0,0,0-17.16,7.53A10.46,10.46,0,0,0,157.09,588a10.33,10.33,0,0,0,7.6-2.66,10.49,10.49,0,0,0-.35-16Z"/><path class="cls-8" d="M584,335.23a10.43,10.43,0,0,0-6.07-2.35,10.29,10.29,0,0,0-7.55,2.64,10.47,10.47,0,0,0-3.49,7.24,10.32,10.32,0,0,0,3.82,8.68,10.2,10.2,0,0,0,6.07,2.38A10.48,10.48,0,0,0,584,335.23Z"/><path class="cls-8" d="M121.66,349.1a9.36,9.36,0,0,0-5.69-2.21,9.82,9.82,0,0,0-6.78,17.42,9.45,9.45,0,0,0,5.69,2.22,9.84,9.84,0,0,0,10.37-9.27A9.72,9.72,0,0,0,121.66,349.1Z"/><path class="cls-8" d="M259,344.2a10.65,10.65,0,0,0-6.32-2.45,10.89,10.89,0,0,0-7.52,19.32,10.53,10.53,0,0,0,6.31,2.48A10.92,10.92,0,0,0,259,344.2Z"/><path class="cls-8" d="M291.81,780.61a10.21,10.21,0,1,0-7,18.07,10.21,10.21,0,0,0,7-18.07Z"/></g><path class="cls-9" d="M1039.67-19.88,883.29-37.51l-.18.07-157,66.09L562.08-72.27,522-21.63,407.08-50l-55.77-285.1-.93.61-239.18,153-5.44-2.42,2.85,2.17L-84.95-206-238.13-494.21l.59,4L-346-244.54l-.44-.27,0,1-120.34,96-.54.15.1.47L-531.42,10.25-718.78,54.91l.08.66,7.42,63.47-101.35,61.23-241-162.15-.23,1.08-60.91,277.33-5.56,2.14,3.56-.46-154.1,119.63-125.31-38.33-91-269.63,3.36-.41-3.79-.87-.5-1.48-.53,1.24L-1754.1,47.41l-.2-.32-.37.19-.29-.07-.17.31-240.93,122.4-.33,0,0,.16-.47.24.24.39-94.72,266.67L-2262,541.79l-237.22-24,2.94,1.66L-2424,676.34l7.11,62.76-115.41,76.37-1.46-.63.57,1.22-1.47,1,1.95,0,119.14,253.51-58.08,47-315.76-36.11-.2-.15-.11,0-186.76-83.7,76.36,136.24-145.79,69.37-194.46-46.87-148.24-181.55.09-.25-.28-.13-21.28-106.33-207.69,1-2.15-1,169.62,269.23-39.09,49.08-138.38-28.17,1.57,1.63,52.27,132.29-.09.1-170.77,192.87,150.1-47.25.14-.14,116.7-124,2,.42-.2-.21,189.12,25.54.17-.65,15.92-61.88,116.59-20.66,166.51,238,.61-.92,156.64-236.83h6l-3.48-.84,186.83-56.16,253.12,198.49v.34l.46,0,3.21,2.52-1.49-2.38,61.85,4.91,33.19,141.88,222.7-123.07-2.24-.18-138.13-128.44,193.7-113.65-1-.66-202.49-127.45-102.17-231.12,153-116.63-.34-.57-32.5-55,67.83-97.05,286.07,50.58-.22-1.08-56.71-278.23,4.22-4.22-3.06,1.87,51-94.92L-1579.44,325-1361,488.69l.11.32.3,0,.24.19.27-.22,269.87-14.26.32.1.11-.13.52,0,0-.45,194.64-205.43,198.31-26.26,207.15,118-2-2.7-2.55-172.71,18.93-60.26,136.47-23.05,1.08,1.17,0-1.34,1.73-.29-1.76-.83-6.2-280,72.14-19.43L2.66-38l.13.23H3l.38.35.28-.37,282.9-7.61L445.31,76.26l63,229.94.49-3.33L629.13,178.94l56-29.23,115.09,81.84-.77-2.13L805.27,87.3l.12,0ZM883.78-35.94,1034.1-19,806.33,85.16ZM798.09,225.69,756.92,112.25l46.82-24.43ZM686.63,148.94l68.94-36,41.59,114.57ZM562.84-70,721.57,27.6,554.66-13.58ZM725.51,30.12l29.55,81.41L685.26,148,545.64,48.68l8.8-60.76ZM494,13.83,446.25,74.24,407.82-47.47Zm1.23.87L544,49.38l-10.79,74.53L447.11,75.59Zm.94-1.18,26.45-33.44L553-12.44l-8.72,60.15ZM683.76,148.74l-55.07,28.74L534.62,124.7,545.4,50.36ZM509.18,300.33l25.21-174,93.07,52.22Zm-1.31-1.49L447.16,77.35,533,125.51Zm-219-344.29,117-3.15L444.53,73.76ZM287-46.9,116.79-177.3,403.09-50ZM-269.34-199.49l71.18-19.18L-2.81-42.94Zm-72.51-42.59,140.32,22.76-69.63,18.75Zm-1.7,61-1.36-61.08L-273.2-200Zm-1.51.4-25.81,7,24.51-65.82Zm0,1.56L-338.87,99-434-4.21l0-.13L-371.52-172Zm-120.55,32.46,92.27-24.85-61.46,165ZM-530.82,11.75l78.45,36.67L-476,123.54l-168.91,28.52-36.75-49.18Zm-151.71,89.91L-716.67,56l181.29-43.2Zm-127.81,79.85L-706,163.92l8.95,76.49Zm105.79-17.84,59-10L-600.48,214l-95.06,26.73Zm-.18-1.5-4.95-42.35,26.77-16.16,36.36,48.68ZM-528.32,11.26-436-3.62-451.92,47Zm187.11,87.46L-450.54,47.61l15.83-50.38ZM-474.3,123.26-451,49.07l110.42,51.6Zm-2.17,1.89-18.62,59.25-103.84,29.2-44.94-60.18Zm-16.26,230.64L-598,214.89-495.23,186ZM-694.24,242l94.72-26.64,104.81,140.33ZM-893,267l80.49-85,113.86,59.2Zm-2.38.31-212.56,28.16,292.45-112.45Zm-679.81,59,177.79,54.39,35.58,105.44Zm-273.26-102.13,40.64-75.55,107.93-13,119,187.28Zm2.09,376.06-282.94-50,226.65-226.14Zm-538,530.12,175.34,163-120.66,70.78ZM-2331,1365l-53.53,31.41-.34-261.69Zm-68.63-491.33,79.5-51.74,5.06,166.86ZM-2217.56,1053l31.88,72.12-198.73,2.32L-2314,992.26Zm-169.1,71.33-25-53.29,20.78-16.83Zm-2.82-71.28,72.85-59-68.45,131.36Zm-.11-1.85-10.69-175.76,85,115.66Zm-10.69-178.87-6-52.7,84.33,1.69Zm-6.14-54.21-8.87-78.23,142.87-94.54,53.52,30.1-100.94,144.4Zm188.84-141.94,49.74,28-148.23,112.95ZM-2271,644.39l49.2-32.56,21.69,36.71L-2218,674.16Zm-1.47-.83-65.65-36.9,76.07-63,39.49,66.83Zm12-100.15,127.39,7.94-88.22,58.35Zm131.48,4.45,38.87-109.44,182.92-111.88Zm-70.16,99.33L-2220.55,611l86.83-57.46Zm-.11,2.78,30.73,52-48.16-27.07Zm-19.36,400.53-94.9-59.73-5.05-166.36Zm11,242.13-176.09-163.73,200.39-2.34-.46-1-31.43-71.11L-2015.72,1180ZM-2070.81,1422l-250-19.85-8.51-36.36,121.45-71.25Zm-249.65-18.31,249.2,19.79-216.58,119.68Zm-62.42-6.47,52.2-30.63,8.28,35.43Zm-146.38-230.59,142.85-37.44.33,266Zm-108.18,32.49,106.67-32.07,142.52,227.48Zm-146.45-114.85,250.93,81.87-105.93,31.84Zm143.23,114.24-187.22,56.28,40.63-171.24Zm-509.83,57.77,320.17.36-155.47,235.09ZM-3338,1148.46l98.31,9.27-19.34,75.18-58.64-12Zm-2-1.72-106.23-10,58.77-159.31Zm-195.75,102.93,49.06-61.6,167.87,34.19,16.57,59.12-173.5,30.73Zm57.5,62-91.47-19.35,33-41.47Zm191.81,26.08-184.69-24.94,169.29-30Zm-30.72-115.17,57.81,11.78-10.63,41.29-30.78,5.45Zm163.3,31.73-103.64-21.11,19.18-74.58Zm5.36.42,104.86-49.9,208.45,50.24Zm-119.85,20.63,10.47-40.71,102,20.79Zm-2,1.89-15.05,58.5-14.91-53.2Zm-207.09,36.12L-3592,1435l21.61-141.2Zm-260.48,168.69,166-187.53-21.74,142.1Zm116.61-319.33,83.61,87-32.9,41.3Zm133,25-48.44,60.83-84.45-87.89Zm41.41-49.57,107.38,10.14,20.28,72.32-166.35-33.88Zm-166.91-266.58,225.54,103.79-59.14,160.31Zm204.64-1.94,20.51,102.51-.37-.45.54,1.91-223.9-103Zm168.79,286.5-98-9.25-47.27-168.64Zm194.45,48.13-105.67,50.28-84.92-96.21Zm148.68-69.07,67,119.5-211.16-50.9Zm107.88-53-107.25,51-74.18-132.36Zm.7,1.33-40.39,170.25L-2896,1134.56Zm315.52,35.36-57.31,46.37-249.79-81.49Zm83.54,9.55-137.48,36,56-45.35Zm-23.16-56.48,26,55.29-82.63-9.45Zm-117.8-254.17,128.82,55.85v.13l10.85,178.55-21.33,17.26Zm2.28-.65,120.66,2.41,5.95,52.48Zm111.73-76.37,8.76,77.28-121.86-2.45Zm1.22-2.61-7-61.71,83.1-68.77,65.48,36.8Zm-78.59-217.44,153.29,86.17-82.21,68Zm230.34,22.4-75.81,62.74L-2492.22,520Zm171.54-103.46L-2131.35,550l-128.08-8Zm189-117.34-186.13,113.84,93.69-263.79Zm-90.84-150.22L-1850.58,225l-51.64,96Zm1.41-1.09,183-22.13-40.23,74.8Zm236.27-121.18-52.38,97.42-182.94,22.13Zm55.62,84.35-106.17,12.86,52.41-97.49ZM-1492.55,109l-206.55,25-53.85-84.78Zm3.16,1.14-89.82,212.6-119-187.34ZM-1398,379-1578,323.89l89.79-212.53Zm125.62,40-87.59,68-35.67-105.72Zm178,54.44L-1358,487.35l87.38-67.84Zm-174.76-55,154.42-119.89L-1091,472.87Zm155.84-120.64L-897,269.09l-192.54,203.19Zm299-116.75-298.85,114.9,60.45-275.29Zm103.16-60.32,4.89,41.75-102.67,17.34Zm1.23-2.49-7-60,33,44.26Zm243.2-262.83L-436-5.14-529.66,9.94Zm119.32-96.54-25.31,68-90.49,24.38Zm110.21-246.15,38.3,266.93L-344.61-244ZM-86.78-206.27-197.3-220.18l-38.11-265.71ZM.57-41.93-195.66-218.46l109.74,13.82ZM-84.09-204.41l194,24.42L3.34-39.92Zm195.5,24.89L284.6-46.85,4.78-39.32ZM350.26-332.61l55.16,282L112.85-180.7ZM521-20.32,495,12.64,410.09-47.69Zm2.63-.9,37.46-47.39-7.92,54.67Zm204,52.75L803.42,86.3l-47,24.52Zm0-1.87L881.47-35.1l-77,120.32Z"/><path class="cls-8" d="M432.41,75.49a13.56,13.56,0,1,0,13.88-13.22A13.58,13.58,0,0,0,432.41,75.49Z"/><path class="cls-8" d="M788.15,229.29A10.54,10.54,0,1,0,798.94,219,10.53,10.53,0,0,0,788.15,229.29Z"/><path class="cls-8" d="M618.15,178.08a10.54,10.54,0,1,0,10.78-10.29A10.54,10.54,0,0,0,618.15,178.08Z"/><path class="cls-8" d="M718.56,29.31a7.53,7.53,0,1,0,7.7-7.34A7.51,7.51,0,0,0,718.56,29.31Z"/><path class="cls-8" d="M797.55,86.38a7.53,7.53,0,1,0,7.7-7.34A7.54,7.54,0,0,0,797.55,86.38Z"/><path class="cls-8" d="M500.57,302.35a7.53,7.53,0,1,0,7.71-7.36A7.53,7.53,0,0,0,500.57,302.35Z"/></g></g></g></svg>