<?xml version="1.0" encoding="utf-8"?>
<!-- Generator: Adobe Illustrator 24.0.0, SVG Export Plug-In . SVG Version: 6.00 Build 0)  -->
<svg version="1.1" id="Design_WHITE_BG" xmlns="http://www.w3.org/2000/svg" xmlns:xlink="http://www.w3.org/1999/xlink" x="0px"
	 y="0px" viewBox="0 0 1920 1080" style="enable-background:new 0 0 1920 1080;" xml:space="preserve">
<style type="text/css">
	.st0{display:none;fill:url(#SVGID_1_);}
	.st1{fill:url(#SVGID_2_);}
	.st2{clip-path:url(#SVGID_4_);}
	.st3{opacity:0.61;}
	.st4{opacity:0.4;}
	.st5{fill:#77BDE0;}
	.st6{fill:#8CC2EA;}
</style>
<title>715621_Schoolcodedesignbackground_050720</title>
<linearGradient id="SVGID_1_" gradientUnits="userSpaceOnUse" x1="958.5" y1="1087.8898" x2="958.5" y2="-11.1102" gradientTransform="matrix(1 0 0 -1 0 1077.8898)">
	<stop  offset="0" style="stop-color:#054447"/>
	<stop  offset="0.17" style="stop-color:#185461"/>
	<stop  offset="0.74" style="stop-color:#578BB5"/>
	<stop  offset="1" style="stop-color:#70A0D7"/>
</linearGradient>
<rect x="-13" y="-10" class="st0" width="1943" height="1099"/>
<linearGradient id="SVGID_2_" gradientUnits="userSpaceOnUse" x1="958.5" y1="1087.8898" x2="958.5" y2="-11.1102" gradientTransform="matrix(1 0 0 -1 0 1077.8898)">
	<stop  offset="0" style="stop-color:#EFF4F4"/>
	<stop  offset="0.17" style="stop-color:#EDF4F4"/>
	<stop  offset="0.74" style="stop-color:#E0F4F4"/>
	<stop  offset="1" style="stop-color:#E2F4F4"/>
</linearGradient>
<rect x="-13" y="-10" class="st1" width="1943" height="1099"/>
<g>
	<defs>
		<path id="SVGID_3_" d="M-6-10h1927l9,1090.2L-13,1089C-10.7,722.7-8.3,356.3-6-10z"/>
	</defs>
	<clipPath id="SVGID_4_">
		<use xlink:href="#SVGID_3_"  style="overflow:visible;"/>
	</clipPath>
	<g class="st2">
		<g class="st3">
			<g>
				<g class="st4">
					<path class="st5" d="M-30.1,1705.2l1.2-0.6l0.1,0.1l0.3-0.2l1.4,1.8l-0.4-2.3l289.9,41.2l-0.1,4l1-3.1l0.2-1.2L394,1610.8
						l0.7,2.1v-2.4v-0.4l174.1-178.7l398.8,192.7l1,1L911.3,1322l251.9-11l0.1-0.2l135.4-218.6l1.6-0.1l413.6,150.5v-0.5l68.1-156.8
						l236.2,57l-0.3-0.7l-100.3-212.5l115.3-75.1l-0.1-0.3L1970.6,689l160.2-66.9l2.2,0.8l-1.7-1.5l-0.2-0.2l1.1,0.1l0.1-0.8
						l-2.1-0.2l-188.2-158l-1.1-0.1l-235.1-8l-1.1-0.6l-1-0.2l-0.8,0.1l-0.2,1.2v0.5h0.1l0.4,131.8l-235.5,88v0.2L1401,925.9
						l-209.4-52.7l-0.5-1l-0.3,0.6v0.1l-271.3-68.2l0.3-1.8l-0.8,1.7l-0.6-0.1l-0.8-0.2l0.8,1.6l-143.7,307.8l-298.4-13.9
						l-331.5-90.6l-0.8-0.9l0.2,1.1l-158,262.8l-0.1,0.1l-0.6-0.1l0.3,0.5l-234.5,167.5h-1.2l1.1,0.7l219.6,263L-30.1,1705.2z
						 M148.3,1551.3L-27.4,1702l109.7-264l66.3,113h-0.4L148.3,1551.3z M203.1,1311l155.2-119.5l173.5,67.8L390,1344.1L203.1,1311z
						 M532.6,1258.8l-173.6-67.8l116.7-89.9l115.4,122.7L532.6,1258.8z M591.6,1224.3l85.5,90.9l-143.6-56.1L591.6,1224.3z
						 M-12.2,1272.8l193.9-68.3l20.5,106.3l0,0L-12.2,1272.8z M201.5,1311.6l-118.9,125l-95.5-163L201.5,1311.6z M201.9,1312.2
						l-53.8,236.4L83,1437.3L201.9,1312.2z M-19.1,1438.2l5.5-162.3l0.8-0.1l94.6,161.5L-19.1,1438.2z M-12.9,1272.2l157.2-261.5
						l37.2,193L-12.9,1272.2z M145.1,1010.9l146.5,154l-109.4,38.5L145.1,1010.9z M292.2,1165.5l0.2,0.2h0.1l65,25.4l-154.6,119.1
						l-20.5-106L292.2,1165.5z M293.2,1165.2l180.7-63.7l-115.6,89.1L293.2,1165.2z M476.5,1100.7l297.1,13.8l-181.7,108.8
						L476.5,1100.7z M774,1115.2l-93.6,200.5l-0.9,0.9l0.1-0.3l-0.7-0.3l-86.5-92L774,1115.2z M691.8,1330.9l-26.3,1.1l13.9-14.3
						L691.8,1330.9z M664.3,1332.1l-272.8,12l141.2-84.5l145.6,56.9l0.6,0.7L664.3,1332.1z M391.3,1345.6l2.6,262.4l-44.8-133
						l-0.2,0.1l41.3-130L391.3,1345.6z M348,1475.5l-192,70.4l233.2-200L348,1475.5z M153.8,1546.7l-4.8,1.8l53.9-236.6l186.3,33
						L153.8,1546.7z M152.2,1548.1l-2.8,2.4l-0.7-1.1L152.2,1548.1z M81.6,1438L-28,1701.5l8.9-262.6L81.6,1438z M-24.4,1572.7
						l-222.9-131.6l227.5-2.2L-24.4,1572.7z M-247.5,1440.4l233.2-166.6v0.5l-5.6,163.9L-247.5,1440.4z M145.7,1010.4l329.1,89.9
						l-182.4,64.3L145.7,1010.4z M775.1,1114.6l96.7,4.5L682,1314L775.1,1114.6z M918.2,808.1l-46.4,310.2l-96.4-4.5L918.2,808.1z
						 M919.1,807.5l144.7,298.8l-191.1,12.2l-0.1-0.1L919.1,807.5z M1190.3,873.8l-125.8,232.1L919.3,806.2l0.1-0.5L1190.3,873.8z
						 M1191,874l64.6,130.1l-190,101.2L1191,874z M1400.4,926.6l-0.4,0.7l-143.7,76.5L1192,874.2L1400.4,926.6z M1537.7,1077
						l167.5-10.7h0.1l-0.5,0.3l0.6,0.2c-0.1,2.5,0.4,15.6,3.7,87.6c1.8,40.1,3.8,80.2,4.1,86.7L1537.7,1077z M1705.7,1066.1v-0.1
						l124.8-318.4l-8,242.5L1705.7,1066.1z M1822.1,991.2l-40.5,93.3l-75-18.1L1822.1,991.2z M1704.8,1065.2l-126.1-57.8l125.1-207
						l0.1-0.1L1704.8,1065.2z M1703.7,728.8l0.2,70l-0.3,0.4l-0.3,0.5L1583,850l9.5-136.9L1703.7,728.8z M1592.9,712.4l110.3-123.8
						l0.5,139.5L1592.9,712.4z M1402.1,926.5L1702.6,801L1578,1007.2L1402.1,926.5L1402.1,926.5z M1704.5,729l49.3,7l-49,61.9
						L1704.5,729z M1754.6,736.1l75.3,10.7l-0.1,0.2l-125.1,52.2v-0.1L1754.6,736.1z M1829.4,748l-123.8,315.7l-0.9-263.6
						L1829.4,748z M1703.5,1065.6l-166.4,10.6l41.1-68L1703.5,1065.6z M1536.5,1075.9l-134.6-148.4l175.6,80.4L1536.5,1075.9z
						 M1403.3,925l188.3-211.3l-9.4,136.4h0.4L1403.3,925z M1592,712.3l-122.8-37l233.5-87.3L1592,712.3z M1704.2,587.5l157.2,12.5
						l-107.1,135.3l-49.8-7.1l-0.5-140.6L1704.2,587.5z M1862.3,600l24.4,1.9l-56.1,143v-0.1v0.2l-0.4,0.9l-75-10.6L1862.3,600z
						 M1862.8,599.3l49.2-62.2l-25.1,64.1L1862.8,599.3z M1912.8,537.6l25.5,67.6l-50.4-4L1912.8,537.6z M1938.6,606l31.1,82.5
						l-138.3,57.8l-0.2-0.1l-0.1-0.2l56.4-144L1938.6,606z M1831.2,748l85.3,180.8l-93.3,60.7L1831.2,748z M1535.8,1076.2l-235.6,15
						l-0.7-0.2v-0.1l101.1-163.2l0.3-0.2L1535.8,1076.2z M1299.1,1090l-42.5-85.7l142.6-75.9L1299.1,1090z M1468.3,675.7l123.1,37.1
						l-189.6,212.8L1468.3,675.7z M1911.6,536.5l-49.6,62.7L1704,586.7l-0.4-131.4L1911.6,536.5z M1941,463.2l-28.3,72.2l-0.1-0.2
						l-0.4,0.5l-0.1,0.1l-206.6-80.6L1941,463.2z M2128.6,620.4l-215.4-84.1l28.5-72.8L2128.6,620.4z M2125.8,620.2l-186.8-14.8
						l-25.7-68.1L2125.8,620.2z M1970.3,688.3l-31-82.1l188.9,15l1.5,0.6L1970.3,688.3z M2031.7,853.1l-199.4-106.3l137.7-57.5
						L2031.7,853.1z M1917.2,928.5l-85.5-181.1l200,106.6L1917.2,928.5z M2016.5,1140.6l-193.2-150.1l93.6-60.9L2016.5,1140.6z
						 M1782.3,1084.7l40.7-93.6l192.9,149.9L1782.3,1084.7z M1781.3,1085.2l-67.4,155.2c-0.8-17.1-7.8-164.4-7.8-173.3
						L1781.3,1085.2z M1302.3,1092l234.3-14.9l0,0l0,0l175.3,164L1302.3,1092z M1298.4,1091.4l-232.8,14.8l190.4-101.4l42.7,86
						L1298.4,1091.4z M1065,1107.1l232.7-14.8l-134.6,217.3L1065,1107.1z M1162.2,1309.6l-288.3-190.4l189.8-12.1l0,0h0.1h0.4
						L1162.2,1309.6z M911.2,1321.2l-38-201.5l288.5,190.4L911.2,1321.2z M910.3,1321.2l-217.4,9.6l-12.8-13.7l0.3,0.2l0.5-1
						l191.5-196.6L910.3,1321.2z M693.6,1331.6l216.9-9.5l56.6,300.4L693.6,1331.6z M569.3,1430.7l95.4-97.8l27.8-1.2L966,1622.4
						L569.3,1430.7z M392,1345v-0.2h-0.4l271.9-12l-95,97.4L392,1345z M394.6,1608.9l-2.6-262.9l175.9,85L394.6,1608.9z
						 M263.6,1743.3l85-267.3l0,0l45,133.8L263.6,1743.3z M149.6,1551.2l4.6-3.9l193.4-70.9l-85,267.5L149.6,1551.2z M169,1731.2
						h0.4l-20.3-179.3l112.9,192.6L169,1731.2z M-27.6,1703.2l175.9-150.9l20.3,178.8L-27.6,1703.2z M-28.9,1702.9h-0.4l0.1,0.2
						l-217.9-261l222.6,131.3L-28.9,1702.9z"/>
					<path class="st5" d="M1709.2,1054c-6.6-2.2-13.8,1.4-16,8c-2.2,6.6,1.4,13.8,8,16c2.5,0.9,5.3,0.9,7.8,0
						c6.6-2.1,10.3-9.2,8.1-15.8C1716,1058.3,1713,1055.3,1709.2,1054L1709.2,1054z"/>
					<path class="st5" d="M1706.1,445.9c-1.9-0.6-3.9-0.6-5.8,0c-4.9,1.6-7.6,6.8-6,11.7c1.5,4.9,6.7,7.6,11.6,6c0,0,0,0,0.1,0
						c4.9-1.6,7.6-6.8,6-11.7C1711,449,1708.8,446.8,1706.1,445.9L1706.1,445.9z"/>
					<path class="st5" d="M1706.3,578.6c-4.8-1.7-10.1,0.9-11.7,5.7c-0.7,1.9-0.7,4,0,5.9c1.6,4.9,6.8,7.6,11.7,6
						c4.9-1.6,7.6-6.8,6-11.7C1711.3,581.7,1709.1,579.5,1706.3,578.6z"/>
					<path class="st5" d="M1915.9,527.4c-4.9-1.6-10.1,1-11.7,5.8c-0.6,1.9-0.6,3.9,0,5.8c0.9,2.8,3.1,5.1,5.9,6
						c1.9,0.6,3.9,0.6,5.8,0c4.9-1.5,7.6-6.7,6-11.6c0,0,0,0,0-0.1C1920.9,530.5,1918.7,528.3,1915.9,527.4z"/>
					<path class="st5" d="M1585.8,842c-1.9-0.6-3.9-0.6-5.8,0c-4.9,1.6-7.5,6.8-6,11.7c0.9,2.8,3.1,5.1,5.9,6
						c4.4,1.4,9.1-0.6,11.2-4.7c2.3-4.6,0.5-10.1-4.1-12.5C1586.6,842.3,1586.2,842.1,1585.8,842z"/>
					<path class="st5" d="M1470.9,666.5c-1.9-0.6-3.9-0.6-5.8,0c-4.9,1.6-7.6,6.8-6,11.7c0.9,2.8,3.1,5.1,5.9,6
						c1.9,0.6,3.9,0.6,5.8,0c2.4-0.7,4.3-2.4,5.4-4.6c2.3-4.6,0.5-10.2-4-12.5C1471.8,666.8,1471.4,666.6,1470.9,666.5L1470.9,666.5
						z"/>
					<path class="st5" d="M1594.6,705.4c-4-1.4-8.3,0.8-9.7,4.7c-0.5,1.6-0.5,3.3,0,4.9c0.7,2.3,2.6,4.2,4.9,4.9
						c3.6,1.2,7.5-0.4,9.2-3.8c1.9-3.7,0.5-8.3-3.3-10.3C1595.4,705.7,1595,705.5,1594.6,705.4L1594.6,705.4z"/>
					<path class="st5" d="M1706.5,721.1c-4-1.4-8.3,0.8-9.7,4.8c-0.5,1.6-0.5,3.3,0,4.8c0.7,2.3,2.5,4.2,4.9,5
						c3.6,1.2,7.5-0.4,9.2-3.8c1.9-3.7,0.5-8.3-3.3-10.3C1707.3,721.4,1706.9,721.2,1706.5,721.1z"/>
					<path class="st5" d="M1920.6,919.1c-5.5-1.9-11.4,1.1-13.3,6.6c-0.7,2.1-0.7,4.4,0,6.6c1,3.2,3.5,5.7,6.7,6.8
						c4.9,1.6,10.3-0.6,12.7-5.2c2.7-5.1,0.7-11.5-4.5-14.1C1921.6,919.5,1921.1,919.3,1920.6,919.1L1920.6,919.1z"/>
					<path class="st5" d="M1826.1,980.6c-5.5-1.9-11.4,1.1-13.3,6.6c-0.7,2.1-0.7,4.5,0,6.6c1,3.2,3.5,5.7,6.7,6.8
						c4.9,1.6,10.3-0.6,12.7-5.2c2.7-5.1,0.7-11.5-4.5-14.1C1827.2,981,1826.7,980.8,1826.1,980.6L1826.1,980.6z"/>
					<path class="st5" d="M1404.8,914.6c-2.5-0.8-5.3-0.8-7.8,0c-6.6,2.1-10.3,9.2-8.2,15.8c1.2,3.8,4.2,6.8,8,8.1
						c2.5,0.9,5.3,0.9,7.8,0.1c6.6-2.1,10.3-9.2,8.1-15.9C1411.6,918.9,1408.7,915.9,1404.8,914.6z"/>
					<path class="st5" d="M1259.9,992.6c-2.5-0.8-5.3-0.8-7.8,0c-6.6,2.1-10.3,9.2-8.2,15.8c0,0,0,0,0,0c1.2,3.8,4.2,6.9,8,8.1
						c2.5,0.9,5.3,0.9,7.8,0.1c6.6-2.1,10.3-9.2,8.1-15.9C1266.7,996.9,1263.7,993.8,1259.9,992.6z"/>
					<path class="st5" d="M1092.6,838.5c-2-0.7-4.1-0.7-6.1,0c-5.1,1.6-7.9,7.1-6.3,12.3c1,3,3.3,5.3,6.2,6.3c2,0.7,4.1,0.7,6.1,0
						c5.1-1.6,7.9-7.1,6.3-12.3C1097.9,841.8,1095.6,839.4,1092.6,838.5L1092.6,838.5z"/>
					<path class="st5" d="M1707.4,790.2c-2-0.7-4.1-0.7-6.1,0c-5.2,1.6-8,7.2-6.4,12.3c1,3,3.3,5.4,6.3,6.4c2,0.7,4.1,0.7,6.1,0
						c5.2-1.7,8-7.2,6.4-12.4C1712.8,793.5,1710.4,791.1,1707.4,790.2z"/>
					<path class="st5" d="M1833.9,736.4c-2.2-0.7-4.6-0.7-6.8,0c-5.7,1.8-8.9,8-7.1,13.7c1.1,3.3,3.7,6,7,7.1c2.2,0.8,4.6,0.8,6.8,0
						c5.7-1.8,8.9-8,7.1-13.7C1839.8,740.2,1837.2,737.6,1833.9,736.4L1833.9,736.4z"/>
					<path class="st5" d="M1539.8,1066.8c-5.3-1.8-11.1,1.1-12.9,6.4c-1.8,5.3,1.1,11.1,6.5,12.9l0,0c5.3,1.8,11.1-1.1,12.9-6.4
						C1548,1074.4,1545.1,1068.6,1539.8,1066.8z"/>
					<path class="st5" d="M1194.5,864c-5.3-1.8-11.1,1-13,6.4c-1.8,5.3,1,11.1,6.4,13c2.1,0.7,4.4,0.7,6.5,0c2.6-0.8,4.7-2.6,5.9-5
						c1.3-2.4,1.5-5.2,0.6-7.8C1200,867.5,1197.6,865,1194.5,864z"/>
					<path class="st5" d="M997.7,952.7c-2.1-0.7-4.3-0.7-6.3,0c-5.3,1.8-8.2,7.5-6.5,12.8c1.8,5.3,7.5,8.2,12.8,6.5
						s8.2-7.5,6.5-12.8C1003.2,956.1,1000.8,953.7,997.7,952.7z"/>
					<path class="st5" d="M921.5,795.3c-2.1-0.7-4.3-0.7-6.3-0.1c-5.4,1.7-8.3,7.5-6.6,12.8c1,3.1,3.4,5.5,6.5,6.5
						c2.1,0.7,4.3,0.7,6.3,0c2.6-0.8,4.7-2.6,6-5c2.6-5,0.6-11.2-4.4-13.7C922.5,795.7,922,795.5,921.5,795.3L921.5,795.3z"/>
					<path class="st5" d="M147.4,1000.9c-1.9-0.6-3.9-0.6-5.7,0c-2.3,0.7-4.3,2.4-5.4,4.5c-2.3,4.6-0.5,10.2,4.1,12.5
						c0.4,0.2,0.8,0.4,1.2,0.5c1.9,0.6,3.9,0.6,5.8,0c4.8-1.6,7.5-6.8,5.9-11.6C152.4,1004,150.2,1001.8,147.4,1000.9L147.4,1000.9z
						"/>
				</g>
				<path class="st6" d="M-898.7,1219.4l157.1,8.9l0.2-0.1l153-74.7l169.4,91.7l37.2-52.8l116.4,21.9l71.5,281.6l0.9-0.7
					l230.4-166.1l5.6,2.1l-3-2l194.6,13.6l169,279.2l-0.8-4l94.7-251.3l0.5,0.2l-0.1-1l114.8-102.5l0.5-0.2l-0.1-0.4l55.3-160.8
					l184.6-55l-0.1-0.7l-10.9-63l97.8-66.8l249.6,148.6l0.2-1.1l45.4-280.3l5.4-2.4l-3.5,0.7l147.2-128l127.2,31.3l105.8,264.2
					l-3.3,0.6l3.8,0.7l0.6,1.5l0.5-1.3l268.4,46.1l0.2,0.3l0.3-0.2l0.3,0l0.1-0.3l233.8-135.6h0.3v-0.2l0.4-0.3l-0.3-0.4l79.8-271.5
					l164.6-113.7l238.2,10.8l-3-1.5L2521,332l-10.6-62.3l111-82.7l1.5,0.6l-0.6-1.2l1.4-1l-1.9,0.1L2488.7-61l55.4-50.2l317.3,18.5
					l0.2,0.1h0.1l191.1,73.2L2969-151.1l141.7-77.3l196.8,36l158.1,173l-0.1,0.2l0.3,0.1l27.1,105l207.3-12.5l2.2,0.9l-184.3-259.4
					l36.3-51.2l139.7,20.4l-1.7-1.5L3633-346.6l0.1-0.1l159.8-202.1l-147.2,55.5l-0.1,0.1l-109.7,130.3l-2-0.3l0.2,0.2l-190.2-15
					l-0.1,0.6l-12.4,62.7l-115.3,27.1l-179.5-228.4l-0.6,1l-143.2,245.2l-6,0.3l3.5,0.6l-183.4,66.4l-263.7-184.1v-0.3h-0.5
					l-3.3-2.3l1.6,2.3l-62-1.5l-41-139.8l-215.6,135.2l2.2,0l145,120.6l-187,124.2l1.1,0.6l209.2,116l114.8,225.1l-146.3,124.9
					l0.4,0.6l35.5,53.1l-62.3,100.7l-288.4-34.6l0.3,1.1l72.1,274.7l-4,4.4l3-2l-45.7,97.6l-274.8-84.3L1470,578.4l-0.1-0.3h-0.3
					l-0.2-0.2l-0.2,0.2l-268.7,29.3l-0.3-0.1l-0.1,0.1h-0.5l0.1,0.4l-183,216l-196.5,37.2L606.7,754.7l2.2,2.6L621,929.6l-15.5,61.2
					l-135,30.6l-1.1-1.1l0.1,1.3l-1.7,0.4l1.8,0.7l21.7,279.2l-71,23.4L137.7,1180l-0.1-0.2h-0.2l-0.4-0.3l-0.3,0.4l-282,23.3
					l-165.3-112.7l-75.7-226.1l-0.3,3.3l-113.3,130.4l-54.3,32.3l-119.5-75.3l0.9,2.1l2.1,142.2l-0.1,0.1L-898.7,1219.4z
					 M-742.2,1226.8l-151-8.6l221.6-116.7L-742.2,1226.8z M-671.2,960.8l47.4,111l-45.4,27L-671.2,960.8z M-555.6,1031.3l-66.8,39.7
					l-47.9-112L-555.6,1031.3z M-419.8,1243l-163.9-88.7l168.9,31.8L-419.8,1243z M-587.8,1152l-34-79.6l67.7-40.2l144.9,91.4
					l-5.4,61.2L-587.8,1152z M-355.8,1155.4l44.3-63l45.1,119.4L-355.8,1155.4z M-357.1,1154.6l-50.6-31.9l6.6-75l88.7,43.5
					L-357.1,1154.6z M-358,1155.9l-24.5,34.9l-30.7-5.8l5.4-60.5L-358,1155.9z M-552.8,1031.3l53.4-31.8l96.9,47.5l-6.6,74.8
					L-552.8,1031.3z M-386.9,870.3l-15.5,175.2l-95.8-47L-386.9,870.3z M-385.5,871.7l72.9,217.8l-88.4-43.3L-385.5,871.7z
					 M-147.8,1203.3l-116.6,9.6l-45.4-120L-147.8,1203.3z M-145.8,1204.6l177.2,120.8l-292.9-111.2L-145.8,1204.6z M418.2,1326.1
					l-70,23.1l-204.8-164.6L418.2,1326.1z M493,1364.6l-141.4-14.9l68.5-22.6L493,1364.6z M491.3,1303.6l4.7,60.9l-73.9-38.1
					L491.3,1303.6z M492.8,1303.1l25.4-8.4l-20.8,67.1L492.8,1303.1z M492.7,1301.6l-21.6-277.4l100.7,97.8v0.1l-53,170.8
					L492.7,1301.6z M611.2,1262.5l-90.7,29.9l52.2-168.2L611.2,1262.5z M667.6,1100.7l-80.4-32.2l19.4-76.3l167.1-37.8l39.4,47.1
					L667.6,1100.7z M814.1,1002.5l36.6,43.8l-178.6,53.2L814.1,1002.5z M937.2,915.7L834.1,939l-13.2-75.9L937.2,915.7z
					 M832.7,939.3l-58.4,13.2l-48.3-57.7l93.4-32L832.7,939.3z M832.9,940.8l7.3,42l-25.8,17.6l-39-46.6L832.9,940.8z M665.2,1101.3
					l-91.3,20l13.1-51.4L665.2,1101.3z M473.5,1024.4l112,45l-13,51.2L473.5,1024.4z M605,992.5l-19.2,75.4l-113.1-45.4L605,992.5z
					 M607.1,990.5l15.3-60.2l102.1-34.9l48.2,57.6L607.1,990.5z M610.5,759.3l112.9,134.8l-101,34.5L610.5,759.3z M818,861.8
					l-93.1,31.9L612.5,759.3L818,861.8z M1015.1,825.7L939.4,915l-117-52.8L1015.1,825.7z M1017.4,825.2l210.7-39.9L942.3,913.8
					L1017.4,825.2z M1692.9,728.6l-180.5-44.4L1471,580.9L1692.9,728.6z M1971.4,815.4l-36.4,77.7l-107,19l-129.2-180.4
					L1971.4,815.4z M1948.4,440l285.3,34.2L2020,712.7L1948.4,440z M2456.2-119.1l-184.1-153l116.5-77.4L2456.2-119.1z M2390-350.4
					l51.7-34.3l14.9,261.3L2390-350.4z M2485.8,136.3l-76.5,56.1l-14.4-166.3L2485.8,136.3z M2294-32.6l-35.8-70.2l198.3-13.3
					l-62.8,138.8L2294-32.6z M2458.9-113.2l28,51.8l-19.8,18L2458.9-113.2z M2465.7-42.2l-69.5,62.9l61-134.9L2465.7-42.2z
					 M2465.9-40.3l20.4,174.9L2395,23.8L2465.9-40.3z M2486.5,137.7l8.9,52.3l-84.3,3L2486.5,137.7z M2495.6,191.5l13.2,77.6
					l-137.4,102.3l-55.1-27.1l92.7-149.8L2495.6,191.5z M2314.9,343.7l-51.2-25.1l141.7-121L2314.9,343.7z M2370,372.4l-47.3,35.2
					l-23.7-35.5l16.5-26.6L2370,372.4z M2371.5,373.2l67.6,33.2l-72.4,67.1l-43.1-64.5L2371.5,373.2z M2365.1,473.8l-127.6-0.8
					l84.8-63.2L2365.1,473.8z M2233.6,476.7l-32.7,111.4L2024.4,710L2233.6,476.7z M2298.1,373.6l23.4,35l-83.5,62.2L2298.1,373.6z
					 M2298.1,370.8l-33.6-50.2l49.6,24.4L2298.1,370.8z M2295.2-30.2l98.1,54.4l14.3,165.8L2295.2-30.2z M2270.8-271.3l184.9,153.7
					l-200,13.5l0.5,1l35.3,69.2l-206.2-114.3L2270.8-271.3z M2127-392.8l250.7,5.9l10.5,35.8l-117.3,77.9L2127-392.8z M2377.3-388.4
					l-249.9-5.9L2337-525.8L2377.3-388.4z M2440-385.4l-50.4,33.5l-10.2-34.9L2440-385.4z M2598.9-163.3L2458.3-118l-15.1-265.5
					L2598.9-163.3z M2705.1-201.7l-104.7,37.9L2445.4-383L2705.1-201.7z M2857.7-95.2L2602.6-163l104-37.7L2857.7-95.2z
					 M2708.3-201.3l183.8-66.6l-31.1,173.2L2708.3-201.3z M3214.2-287.3l-319.7,17.4l142.2-243.4L3214.2-287.3z M3407.4-190.1
					l-98.7-3.8l15.1-76.1l59.2,8.7L3407.4-190.1z M3409.6-188.5l106.6,4.1l-49.8,162.3L3409.6-188.5z M3599.3-302.1l-45.6,64.2
					l-169.5-24.8l-19.8-58.1l171.5-40.3L3599.3-302.1z M3538.4-360.9l92.4,14.2l-30.7,43.2L3538.4-360.9z M3345.4-376.3l185.8,14.6
					l-167.4,39.3L3345.4-376.3z M3382.6-263l-58.4-8.5l8.3-41.8l30.4-7.1L3382.6-263z M3217.8-285.6l104.6,15.3l-15,75.5
					L3217.8-285.6z M3212.4-285.7l-101.9,55.6l-210.9-38.6L3212.4-285.7z M3330.9-313l-8.2,41.2l-103-15.1L3330.9-313z M3332.8-315
					l11.8-59.2l17.8,52.3L3332.8-315z M3537.6-362.6l107.5-127.7l-13.7,142.2L3537.6-362.6z M3788.3-545.4L3632.9-349l13.8-143
					L3788.3-545.4z M3689.6-220.1l-88.3-82.2l30.6-43.1L3689.6-220.1z M3555.4-237.7l45-63.4l89.2,83.1L3555.4-237.7z M3516.8-185.9
					L3409-190l-24.3-71.1l168,24.6L3516.8-185.9z M3698.3,71l-230.9-91.1l50.1-163.3L3698.3,71z M3494.1,84.3l-26.2-101.2l0.4,0.4
					l-0.6-1.9l229.3,90.4L3494.1,84.3z M3309.6-192.4l98.3,3.8l56.6,165.8L3309.6-192.4z M3112.8-229.6l102.7-56.1l90.1,91.4
					L3112.8-229.6z M2968.2-152.4L2894.7-268l213.7,39.1L2968.2-152.4z M2863.4-93.5l104.2-56.9l81.4,128L2863.4-93.5z M2862.6-94.8
					l30.9-172.2l73.3,115.3L2862.6-94.8z M2545.6-112.6l54.6-49.5l253.9,67.5L2545.6-112.6z M2461.7-117.5l135.3-43.6l-53.4,48.4
					L2461.7-117.5z M2488-62.4l-29-53.8l83,4.8L2488-62.4z M2619.7,184.9L2488,136.2v-0.1l-20.8-177.7l20.3-18.4L2619.7,184.9z
					 M2617.5,185.6l-120.6,4.3l-8.9-52.1L2617.5,185.6z M2510.2,268.1l-13-76.7l121.8-4.3L2510.2,268.1z M2509.1,270.8l10.4,61.2
					l-79.2,73.3l-67.4-33.1L2509.1,270.8z M2599.6,483.5L2441.8,406l78.3-72.5L2599.6,483.5z M2368.4,473.9l72.2-66.8l157.2,77.2
					L2368.4,473.9z M2202.8,586.8l33-112.3l128.3,0.9L2202.8,586.8z M2020.7,714.4l179.5-124L2121.3,859L2020.7,714.4z
					 M2119.7,859.4l-146.2-44.9l46.2-98.8L2119.7,859.4z M2118.3,860.6l-181.5,32.3l36-76.9L2118.3,860.6z M1889.2,994.6l46.9-100.2
					l181.4-32.2L1889.2,994.6z M1829,913.5l105.3-18.7l-47,100.2L1829,913.5z M1622.5,950.2l204.8-36.4l58.5,81.7L1622.5,950.2z
					 M1619.3,949.2l77.8-217.2l129.2,180.5L1619.3,949.2z M1513.1,685.9l182.8,45l-77.8,217.2L1513.1,685.9z M1385.4,652.9
					l83.7-72.8l41.5,103.6L1385.4,652.9z M1204.7,608.4l262.4-28.5l-83.5,72.6L1204.7,608.4z M1382.2,653.7L1234.7,782l-33.4-172.8
					L1382.2,653.7z M1233.3,782.8L1019,823.4l181-213.6L1233.3,782.8z M941.2,916l292-131.3l-45.1,278.2L941.2,916z M841.6,982
					l-7.2-41.4l101.5-23L841.6,982z M840.5,984.5l10.3,59.5l-35.5-42.3L840.5,984.5z M612.2,1260.4l-38.4-137.6l92.7-20.3
					L612.2,1260.4z M498.5,1363.4l21.5-69.3l89-29.4L498.5,1363.4z M402.1,1615.3L349,1350.9l146.9,15.5L402.1,1615.3z M236.4,1343
					l111.1,7.8l52.8,263.2L236.4,1343z M140,1183.8l205.7,165.4l-110.3-7.7L140,1183.8z M233.6,1341.3l-195-13.6l98.6-145.8
					L233.6,1341.3z M37,1327.3l-180.3-122.8l279-23L37,1327.3z M-193,1493.4l-70.7-278.5l299.3,113.6L-193,1493.4z M-380.8,1191.1
					l24.2-34.4l88.1,55.5L-380.8,1191.1z M-383.4,1192.1l-34.8,49.4l4.9-55L-383.4,1192.1z M-590,1150.8l-78.7-50.5l45.6-27.1
					L-590,1150.8z M-589.9,1152.7l-150,73.2l70.2-124.4L-589.9,1152.7z"/>
				<path class="st6" d="M1884,1006.4c5.5,1.9,11.5-1,13.4-6.5c1.9-5.5-1-11.5-6.5-13.4c-5.5-1.9-11.5,1-13.4,6.5
					C1875.6,998.5,1878.5,1004.5,1884,1006.4C1884,1006.4,1884,1006.4,1884,1006.4z"/>
				<path class="st6" d="M1614.6,960.1c5.5,1.9,11.5-1,13.4-6.5s-1-11.5-6.5-13.4s-11.5,1-13.4,6.5c0,0,0,0,0,0
					C1606.2,952.2,1609.1,958.2,1614.6,960.1C1614.6,960.1,1614.6,960.1,1614.6,960.1z"/>
				<path class="st6" d="M829.2,852c-5.5-5.1-14-4.8-19.2,0.6c-5.1,5.5-4.8,14,0.6,19.2c5.5,5.1,14,4.8,19.1-0.6
					C835,865.7,834.7,857.1,829.2,852C829.2,852,829.2,852,829.2,852z"/>
				<path class="st6" d="M1243.5,773.5c-5.5-5.1-14-4.9-19.2,0.6c-5.1,5.5-4.9,14,0.6,19.2c5.5,5.1,14,4.9,19.2-0.6c0,0,0,0,0,0
					C1249.2,787.2,1248.9,778.6,1243.5,773.5z"/>
				<path class="st6" d="M859.3,1038.9c-4.2-4-10.9-3.8-14.9,0.5c-4,4.2-3.8,10.9,0.5,14.9c4.2,4,10.9,3.8,14.9-0.5
					C863.7,1049.6,863.5,1042.9,859.3,1038.9C859.3,1038.9,859.3,1038.9,859.3,1038.9z"/>
				<path class="st6" d="M1196,1056.4c-4.2-4-10.9-3.8-14.9,0.5c-4,4.2-3.8,10.9,0.5,14.9c4.2,4,10.9,3.8,14.9-0.5
					C1200.4,1067.1,1200.2,1060.4,1196,1056.4z"/>
				<path class="st6" d="M477.4,1014.6c-4.2-4-10.9-3.8-14.9,0.5c-4,4.2-3.8,10.9,0.5,14.9c4.2,4,10.9,3.8,14.9-0.5
					C481.9,1025.2,481.7,1018.5,477.4,1014.6C477.4,1014.6,477.4,1014.6,477.4,1014.6z"/>
				<path class="st6" d="M629,922c-4.2-4-10.9-3.8-14.9,0.5c-4,4.2-3.8,10.9,0.5,14.9c4.2,4,10.9,3.8,14.9-0.5
					C633.5,932.7,633.2,926,629,922C629,922,629,922,629,922z"/>
				<path class="st6" d="M1476.6,571.2c-4.2-4-10.9-3.8-14.9,0.5c-4,4.2-3.8,10.9,0.5,14.9c4.2,4,10.9,3.8,14.9-0.5
					C1481.1,581.9,1480.9,575.2,1476.6,571.2C1476.6,571.2,1476.6,571.2,1476.6,571.2z"/>
				<path class="st6" d="M1704.1,722.7c-4.2-4-10.9-3.8-14.9,0.5c-4,4.2-3.8,10.9,0.5,14.9c4.2,4,10.9,3.8,14.9-0.5
					C1708.6,733.3,1708.4,726.7,1704.1,722.7C1704.1,722.7,1704.1,722.7,1704.1,722.7z"/>
				<path class="st6" d="M614.7,751.5c-3-2.8-7.8-2.7-10.6,0.3c-2.8,3-2.7,7.8,0.3,10.6c3,2.8,7.8,2.7,10.6-0.3c0,0,0,0,0,0
					C617.9,759.2,617.8,754.4,614.7,751.5C614.7,751.5,614.7,751.5,614.7,751.5z"/>
				<path class="st6" d="M944.8,910.4c-3-2.9-7.8-2.7-10.6,0.3c-2.9,3-2.7,7.8,0.3,10.6c3,2.9,7.8,2.7,10.6-0.3c0,0,0,0,0,0
					C947.9,918,947.8,913.2,944.8,910.4z"/>
				<path class="st6" d="M1205.5,602.7c-3-2.8-7.8-2.7-10.6,0.3c-2.8,3-2.7,7.8,0.3,10.6c3,2.8,7.8,2.7,10.6-0.3c0,0,0,0,0,0
					C1208.7,610.3,1208.6,605.5,1205.5,602.7C1205.5,602.7,1205.5,602.7,1205.5,602.7z"/>
			</g>
			<g>
				<g class="st4">
					<path class="st6" d="M-1828.3,581.6l1.3-0.1v0.1l0.4-0.1l0.6,2.2l0.4-2.3l255.9,142.2l-1.6,3.7l2.1-2.5l0.6-1l170.1-78.5
						l-0.1,2.2l0.8-2.2l0.1-0.3l226.5-104.5L-867.7,863l0.5,1.3l55.1-303.5l239.2,79.8l0.2-0.1L-368,484.9l1.5,0.5l332.2,288.6
						l0.2-0.5l119.7-122l200.2,137.8l-0.1-0.8l-17.6-234.4l134.6-28.8V525l1-176.1l173.6-5.1l1.8,1.6l-1.1-2l-0.1-0.2l1,0.5l0.3-0.7
						l-1.9-0.9L457.9,127.1l-1-0.6L240.2,35l-0.8-0.9l-0.8-0.5l-0.8-0.2l-0.6,1l-0.2,0.4h0.1l-46.7,123.2L-61,155.8l-0.1,0.2
						l-152,210.3l-176.7-124.1l-0.1-1.1l-0.6,0.5l-0.1,0.1L-619.4,80.8l0.9-1.6l-1.4,1.3l-0.5-0.3l-0.7-0.5l0.2,1.8l-244.4,236
						l-273.7-119.8L-1416-5.6l-0.4-1.1l-0.2,1.1l-241.6,188.8l-0.1,0.1l-0.6-0.4l0.1,0.6l-278.9,72.5l-1.2-0.4l0.8,1l110.9,324.2
						L-1828.3,581.6z M-1606.6,501.8l-217.9,77.8l197-207.2l21.4,129.3l-0.4-0.1L-1606.6,501.8z M-1469.4,297l187.7-56.1
						l137.7,125.4l-162.8,28.5L-1469.4,297z M-1143,366.1l-137.8-125.4l141.2-42.2l63.8,155.9L-1143,366.1z M-1075.6,355.1
						l47.3,115.5l-114-103.8L-1075.6,355.1z M-1656.8,184.3l205.5,5.6l-18.9,106.6l0,0L-1656.8,184.3z M-1471.1,297l-155.9,74.1
						l-30.8-186.5L-1471.1,297z M-1470.9,297.7l-134.8,201.5l-21.1-127.2L-1470.9,297.7z M-1722.3,336.2l63.2-149.6l0.8,0.2
						l30.6,184.6L-1722.3,336.2z M-1657.2,183.4l240.4-187.9l-34.3,193.4L-1657.2,183.4z M-1416.2-4l81.7,196.2l-115.9-3.2
						L-1416.2-4z M-1334.2,193.1l0.1,0.2l0.1,0.1l51.6,47l-187,55.9l18.8-106.3L-1334.2,193.1z M-1333.2,193.1l191.5,5.2
						l-139.9,41.8L-1333.2,193.1z M-1138.9,198.4l272.4,119.3l-208.7,36.5L-1138.9,198.4z M-866.3,318.5l-159.2,153.7l-1.2,0.5
						l0.3-0.3l-0.6-0.5l-47.8-116.8L-866.3,318.5z M-1020.3,490.5l-24.9-8.3l18.1-8.4L-1020.3,490.5z M-1046.4,481.7l-259-86.4
						l162.1-28.3l115.6,105.2l0.3,0.8L-1046.4,481.7z M-1306.2,396.7l-91.5,246l5.8-140.2h-0.2l85.1-106.6L-1306.2,396.7z
						 M-1393,502.4l-204.5-3l289.4-103.3L-1393,502.4z M-1599.8,499.4l-5.1-0.1l135-201.7l162.1,97.5L-1599.8,499.4z M-1601.9,500.1
						l-3.5,1.2l-0.2-1.3L-1601.9,500.1z M-1628.3,372l-196.6,206.8l102.3-242L-1628.3,372z M-1775.6,459.8l-161-202.6l213.2,79.4
						L-1775.6,459.8z M-1936.5,256.5l277.4-72.1l-0.2,0.4l-63.9,151.1L-1936.5,256.5z M-1415.4-4.3l275.2,201.8l-193.3-5.3
						L-1415.4-4.3z M-865,318.3l88.7,38.8l-247,114L-865,318.3z M-621.7,83.3L-776,356.5l-88.4-38.7L-621.7,83.3z M-620.7,83.1
						l28.2,330.8l-182.8-57l-0.1-0.1L-620.7,83.1z M-391.1,242l-200.6,171.7L-620,82l0.3-0.4L-391.1,242z M-390.5,242.5l13.7,144.6
						l-213.7,26.5L-390.5,242.5z M-213.9,366.5l-0.6,0.5l-161.6,20l-13.7-144L-213.9,366.5z M-139.6,556.1l160.2,50l0.1,0.1
						l-0.6,0.1l0.5,0.3c-1,2.3-5.2,14.7-27.9,83.1c-12.6,38.1-25.2,76.2-27.2,82.4L-139.6,556.1z M21.2,606.1l0-0.1l230.5-252.6
						L157.5,577L21.2,606.1z M156.7,577.9l-71.2,72.6L22,606.8L156.7,577.9z M20.7,605l-97.1-99l190.9-148.5h0.1L20.7,605z
						 M140.1,290.5L115.2,356l-0.4,0.2l-0.4,0.3L-16,360.5L41.8,236L140.1,290.5z M42.5,235.5l147.3-76.1l-49.5,130.4L42.5,235.5z
						 M-212.3,367.1l325.5-9.6L-76.9,505.4l-135.5-138.2L-212.3,367.1z M140.8,290.9l43.5,24.1l-67.9,40.3L140.8,290.9z M185,315.5
						l66.5,36.9l-0.1,0.2l-135.5,4v-0.1L185,315.5z M250.6,353.4L22,603.9l93.6-246.5L250.6,353.4z M19.4,604.9l-159.1-49.7
						l62.7-48.8L19.4,604.9z M-140.2,554.7L-212.8,368l135.2,138L-140.2,554.7z M-210.6,366.2L40.9,236.3l-57.6,124l0.4,0.2
						L-210.6,366.2z M41.7,235l-101.4-78.5l249.3,2.1L41.7,235z M191.1,158.7l142.3,67.9l-148.5,88l-44-24.4l49.9-131.4L191.1,158.7
						z M334.3,227l22.1,10.5L252.8,351v-0.1l-0.1,0.2l-0.7,0.7L185.8,315L334.3,227z M335.1,226.5l68.2-40.4L356.9,237L335.1,226.5z
						 M403.7,186.8l-0.4,72.3l-45.7-21.8L403.7,186.8z M403.3,259.9l-0.5,88.1L253,352.5l-0.1-0.1v-0.2l104.3-114.2L403.3,259.9z
						 M252.3,354.1l15,199.3l-108.9,23.3L252.3,354.1z M-141,554.8l-225.3-70.3l-0.5-0.5V484L-214,367.7h0.4L-141,554.8z M-367,483
						l-9-95.2l160.3-19.9L-367,483z M-60.7,156.7L41,235.4l-253.2,130.8L-60.7,156.7z M403.1,185.3l-68.8,40.8l-143-68.2l46.6-122.9
						L403.1,185.3z M456.8,127.5l-52.3,57.3v-0.2l-0.6,0.3l-0.1,0.1l-164-149.2L456.8,127.5z M575.8,341.3l-171-155.6l52.6-57.7
						L575.8,341.3z M573.2,340.2l-169.1-80.7l0.4-72.8L573.2,340.2z M403.7,348.1l0.5-87.8l171,81.6l1.2,1.1L403.7,348.1z
						 M401.9,524L253.7,353.3l149.1-4.4L401.9,524z M268,553.3l-15-199.7l148.6,171.1L268,553.3z M284.8,786.9L158.2,577.6
						l109.1-23.4L284.8,786.9z M86.1,650.9l71.4-72.8l126.5,209.1L86.1,650.9z M85,651L-33.5,771.8c5.4-16.3,51.5-156.3,54.8-164.7
						L85,651z M-364.7,485.9l224.1,70l0,0l0,0l105,215.9L-364.7,485.9z M-368.2,483.9l-222.6-69.5l214.1-26.5l9.1,95.6L-368.2,483.9
						z M-591.6,415l222.6,69.5l-203.5,154.8L-591.6,415z M-573.3,639l-201.1-281l181.6,56.7l0,0h0.1l0.4,0.1L-573.3,639z
						 M-811.9,560l36.7-201.7L-574,639.4L-811.9,560z M-812.7,559.7l-206.4-68.9l-7.1-17.4l0.3,0.3l0.8-0.8L-776,358L-812.7,559.7z
						 M-1018.7,491.9l205.9,68.7l-54.7,300.8L-1018.7,491.9z M-1170.3,539.9l124.1-57.2l26.4,8.8l151.2,369.4L-1170.3,539.9z
						 M-1305.2,396.5l0.1-0.2l-0.4-0.1l0,0l258.1,86.1l-123.6,57L-1305.2,396.5z M-1397.2,643.7l91.7-246.4l133.8,142.3
						L-1397.2,643.7z M-1567.6,722.4l175-219.2l0,0l-5.8,141.1L-1567.6,722.4z M-1605.3,502.2l5.7-2l205.9,3l-175.2,219.3
						L-1605.3,502.2z M-1651.6,677.2l0.4,0.1l45.2-174.7l36.4,220.2L-1651.6,677.2z M-1825.2,580.7l218.3-77.9l-45.1,174.2
						L-1825.2,580.7z M-1826.3,580l-0.4-0.2v0.3l-110-321.7l160.8,202.3L-1826.3,580z"/>
					<path class="st6" d="M465.5,117.5c-5.4-4.4-13.3-3.6-17.8,1.7c-4.4,5.4-3.6,13.3,1.7,17.8c5.4,4.4,13.3,3.6,17.8-1.7
						c1.7-2.1,2.7-4.6,2.8-7.3C470.3,124,468.6,120.1,465.5,117.5z"/>
					<path class="st6" d="M28.9,596.1c-5.3-4.4-13.3-3.7-17.7,1.7c-1.7,2.1-2.7,4.6-2.9,7.3c-0.2,4,1.5,7.9,4.6,10.4
						c2.1,1.7,4.6,2.7,7.3,2.8c6.9,0.4,12.9-4.9,13.3-11.8c0,0,0,0,0,0C33.7,602.5,32,598.6,28.9,596.1z"/>
					<path class="st6" d="M243.6,27.2c-1.5-1.2-3.4-2-5.4-2.1c-5.1-0.3-9.5,3.7-9.8,8.8c-0.3,5.1,3.6,9.5,8.7,9.8c0,0,0,0,0,0
						c5.1,0.3,9.5-3.7,9.8-8.8C247.1,31.9,245.9,29,243.6,27.2L243.6,27.2z"/>
					<path class="st6" d="M196.3,151.2c-3.9-3.3-9.7-2.7-13,1.2c-1.3,1.5-2,3.5-2.1,5.5c-0.3,5.1,3.6,9.5,8.7,9.8c0,0,0,0,0.1,0
						c5.1,0.3,9.5-3.6,9.8-8.7C199.9,155.9,198.6,153,196.3,151.2L196.3,151.2z"/>
					<path class="st6" d="M410.4,178.4c-3.9-3.3-9.8-2.7-13.1,1.2c-1.3,1.5-2,3.4-2.1,5.4c-0.3,5.1,3.6,9.5,8.7,9.8c0,0,0,0,0,0
						c5.1,0.3,9.5-3.6,9.8-8.6c0,0,0-0.1,0-0.1C413.9,183.1,412.6,180.2,410.4,178.4z"/>
					<path class="st6" d="M46.7,229.6c-3.2-2.7-8.1-2.2-10.8,1c-1.1,1.3-1.7,2.8-1.8,4.5c-0.1,2.5,0.9,4.8,2.8,6.4
						c1.3,1,2.8,1.6,4.4,1.7c4.2,0.2,7.8-3,8.1-7.2C49.7,233.5,48.6,231.1,46.7,229.6L46.7,229.6z"/>
					<path class="st6" d="M145.5,284.3c-3.2-2.7-8.1-2.2-10.8,1c-1.1,1.3-1.7,2.8-1.8,4.5c-0.1,2.4,0.9,4.8,2.8,6.4
						c2.9,2.4,7.2,2.3,10-0.2c3.1-2.8,3.4-7.7,0.6-10.8C146.1,284.8,145.8,284.5,145.5,284.3L145.5,284.3z"/>
					<path class="st6" d="M408.2,517.8c-3.9-3.3-9.8-2.7-13.1,1.2c-1.3,1.5-2,3.4-2.1,5.4c-0.2,3,1.1,5.8,3.4,7.7
						c3.6,2.9,8.7,2.8,12.1-0.3c3.8-3.4,4.1-9.3,0.7-13.1C408.9,518.4,408.5,518.1,408.2,517.8L408.2,517.8z"/>
					<path class="st6" d="M274.5,545.8c-1.7-1.4-3.9-2.3-6.1-2.4c-5.8-0.3-10.7,4.1-11.1,9.9c-0.2,3.4,1.2,6.6,3.8,8.7
						c4,3.3,9.8,3.1,13.7-0.3c4.3-3.8,4.7-10.5,0.9-14.8C275.4,546.5,274.9,546.1,274.5,545.8L274.5,545.8z"/>
					<path class="st6" d="M164.3,569.4c-4.5-3.7-11.1-3.1-14.8,1.4c-1.4,1.7-2.3,3.9-2.4,6.2c-0.3,5.8,4.1,10.7,9.8,11.1
						c0,0,0.1,0,0.1,0c2.8,0.2,5.5-0.8,7.6-2.7c4.3-3.8,4.7-10.5,0.9-14.8C165.2,570.1,164.8,569.7,164.3,569.4L164.3,569.4z"/>
					<path class="st6" d="M584,335.2c-1.7-1.4-3.8-2.2-6.1-2.4c-2.8-0.2-5.5,0.8-7.5,2.6c-2.1,1.9-3.3,4.5-3.5,7.2
						c-0.2,3.3,1.2,6.6,3.8,8.7c1.7,1.4,3.8,2.3,6.1,2.4c5.8,0.3,10.7-4.1,11.1-9.9C588,340.6,586.6,337.4,584,335.2z"/>
					<path class="st6" d="M121.7,349.1c-1.6-1.4-3.6-2.1-5.7-2.2c-5.4-0.3-10.1,3.8-10.4,9.2c-0.2,3.2,1.2,6.2,3.6,8.2
						c1.6,1.3,3.6,2.1,5.7,2.2c5.4,0.3,10.1-3.8,10.4-9.3C125.4,354.1,124.1,351.1,121.7,349.1z"/>
					<path class="st6" d="M259,344.2c-1.8-1.5-4-2.3-6.3-2.5c-6-0.4-11.2,4.2-11.5,10.2c-0.2,3.5,1.3,6.9,4,9.1
						c1.8,1.5,4,2.4,6.3,2.5c6,0.3,11.2-4.3,11.5-10.3C263.2,349.8,261.7,346.4,259,344.2z"/>
					<path class="st6" d="M291.8,780.6c-4.3-3.6-10.8-3-14.4,1.4c-3.6,4.3-3,10.8,1.4,14.4c1.7,1.4,3.8,2.2,6,2.3
						c5.6,0.3,10.4-4.1,10.7-9.7C295.7,785.8,294.3,782.7,291.8,780.6z"/>
				</g>
				<path class="st6" d="M1039.7-19.9L883.3-37.5l-0.2,0.1l-157,66.1l-164-100.9L522-21.6L407.1-50l-55.8-285.1l-0.9,0.6l-239.2,153
					l-5.4-2.4l2.8,2.2L-84.9-206l-153.2-288.2l0.6,4L-346-244.5l-0.4-0.3v1l-120.3,96l-0.5,0.1l0.1,0.5l-64.2,157.4l-187.4,44.7
					l0.1,0.7l7.4,63.5l-101.3,61.2l-241-162.1l-0.2,1.1l-60.9,277.3l-5.6,2.1l3.6-0.5l-154.1,119.6l-125.3-38.3l-91-269.6l3.4-0.4
					l-3.8-0.9l-0.5-1.5l-0.5,1.2l-265.5-60.9l-0.2-0.3l-0.4,0.2l-0.3-0.1l-0.2,0.3l-240.9,122.4h-0.3v0.2l-0.5,0.2l0.2,0.4
					l-94.7,266.7L-2262,541.8l-237.2-24l2.9,1.7l72.3,156.9l7.1,62.8l-115.4,76.4l-1.5-0.6l0.6,1.2l-1.5,1h1.9l119.1,253.5l-58.1,47
					l-315.8-36.1l-0.2-0.2h-0.1l-186.8-83.7l76.4,136.2l-145.8,69.4l-194.5-46.9l-148.2-181.5l0.1-0.2l-0.3-0.1l-21.3-106.3
					l-207.7,1l-2.1-1l169.6,269.2l-39.1,49.1l-138.4-28.2l1.6,1.6l52.3,132.3l-0.1,0.1l-170.8,192.9l150.1-47.2l0.1-0.1l116.7-124
					l2,0.4l-0.2-0.2l189.1,25.5l0.2-0.7l15.9-61.9l116.6-20.7l166.5,238l0.6-0.9l156.6-236.8h6l-3.5-0.8l186.8-56.2L-2386,1398v0.3
					h0.5l3.2,2.5l-1.5-2.4l61.9,4.9l33.2,141.9l222.7-123.1l-2.2-0.2l-138.1-128.4l193.7-113.7l-1-0.7l-202.5-127.4l-102.2-231.1
					l153-116.6l-0.3-0.6l-32.5-55l67.8-97l286.1,50.6l-0.2-1.1l-56.7-278.2l4.2-4.2l-3.1,1.9l51-94.9l269.7,99.5l218.4,163.7
					l0.1,0.3h0.3l0.2,0.2l0.3-0.2l269.9-14.3l0.3,0.1l0.1-0.1h0.5v-0.5l194.6-205.4l198.3-26.3l207.1,118l-2-2.7l-2.5-172.7
					l18.9-60.3l136.5-23.1l1.1,1.2v-1.3l1.7-0.3l-1.8-0.8l-6.2-280l72.1-19.4L2.7-38l0.1,0.2H3l0.4,0.3l0.3-0.4l282.9-7.6
					L445.3,76.3l63,229.9l0.5-3.3l120.3-123.9l56-29.2l115.1,81.8l-0.8-2.1l5.8-142.1h0.1L1039.7-19.9z M883.8-35.9L1034.1-19
					L806.3,85.2L883.8-35.9z M798.1,225.7l-41.2-113.4l46.8-24.4L798.1,225.7z M686.6,148.9l68.9-36l41.6,114.6L686.6,148.9z
					 M562.8-70l158.7,97.6L554.7-13.6L562.8-70z M725.5,30.1l29.5,81.4L685.3,148L545.6,48.7l8.8-60.8L725.5,30.1z M494,13.8
					l-47.8,60.4L407.8-47.5L494,13.8z M495.2,14.7L544,49.4l-10.8,74.5l-86.1-48.3L495.2,14.7z M496.2,13.5l26.4-33.4l30.4,7.5
					l-8.7,60.2L496.2,13.5z M683.8,148.7l-55.1,28.7l-94.1-52.8l10.8-74.3L683.8,148.7z M509.2,300.3l25.2-174l93.1,52.2
					L509.2,300.3z M507.9,298.8L447.2,77.3l85.8,48.2L507.9,298.8z M288.9-45.5l117-3.2l38.7,122.4L288.9-45.5z M287-46.9
					L116.8-177.3L403.1-50L287-46.9z M-269.3-199.5l71.2-19.2L-2.8-42.9L-269.3-199.5z M-341.9-242.1l140.3,22.8l-69.6,18.8
					L-341.9-242.1z M-343.6-181.1l-1.4-61.1l71.7,42.2L-343.6-181.1z M-345.1-180.7l-25.8,7l24.5-65.8L-345.1-180.7z M-345.1-179.1
					l6.2,278.1L-434-4.2v-0.1l62.5-167.7L-345.1-179.1z M-465.6-146.7l92.3-24.9l-61.5,165L-465.6-146.7z M-530.8,11.7l78.5,36.7
					l-23.6,75.1l-168.9,28.5l-36.8-49.2L-530.8,11.7z M-682.5,101.7L-716.7,56l181.3-43.2L-682.5,101.7z M-810.3,181.5l104.3-17.6
					l9,76.5L-810.3,181.5z M-704.6,163.7l59-10l45.1,60.3l-95.1,26.7L-704.6,163.7z M-704.7,162.2l-5-42.4l26.8-16.2l36.4,48.7
					L-704.7,162.2z M-528.3,11.3L-436-3.6L-451.9,47L-528.3,11.3z M-341.2,98.7l-109.3-51.1l15.8-50.4L-341.2,98.7z M-474.3,123.3
					l23.3-74.2l110.4,51.6L-474.3,123.3z M-476.5,125.1l-18.6,59.2l-103.8,29.2l-44.9-60.2L-476.5,125.1z M-492.7,355.8L-598,214.9
					l102.8-28.9L-492.7,355.8z M-694.2,242l94.7-26.6l104.8,140.3L-694.2,242z M-893,267l80.5-85l113.9,59.2L-893,267z
					 M-895.4,267.3l-212.6,28.2L-815.5,183L-895.4,267.3z M-1575.2,326.3l177.8,54.4l35.6,105.4L-1575.2,326.3z M-1848.4,224.2
					l40.6-75.6l107.9-13l119,187.3L-1848.4,224.2z M-1846.4,600.2l-282.9-50l226.7-226.1L-1846.4,600.2z M-2384.4,1130.4l175.3,163
					l-120.7,70.8L-2384.4,1130.4z M-2331,1365l-53.5,31.4l-0.3-261.7L-2331,1365z M-2399.6,873.7l79.5-51.7l5.1,166.9L-2399.6,873.7
					z M-2217.6,1053l31.9,72.1l-198.7,2.3l70.4-135.2L-2217.6,1053z M-2386.7,1124.3l-25-53.3l20.8-16.8L-2386.7,1124.3z
					 M-2389.5,1053l72.9-59l-68.4,131.4L-2389.5,1053z M-2389.6,1051.2l-10.7-175.8l85,115.7L-2389.6,1051.2z M-2400.3,872.3
					l-6-52.7l84.3,1.7L-2400.3,872.3z M-2406.4,818.1l-8.9-78.2l142.9-94.5l53.5,30.1l-100.9,144.4L-2406.4,818.1z M-2217.6,676.2
					l49.7,28l-148.2,113L-2217.6,676.2z M-2271,644.4l49.2-32.6l21.7,36.7l-17.9,25.6L-2271,644.4z M-2272.5,643.6l-65.6-36.9
					l76.1-63l39.5,66.8L-2272.5,643.6z M-2260.5,543.4l127.4,7.9l-88.2,58.3L-2260.5,543.4z M-2129,547.9l38.9-109.4l182.9-111.9
					L-2129,547.9z M-2199.1,647.2l-21.4-36.2l86.8-57.5L-2199.1,647.2z M-2199.3,650l30.7,52l-48.2-27.1L-2199.3,650z
					 M-2218.6,1050.5l-94.9-59.7l-5.1-166.4L-2218.6,1050.5z M-2207.6,1292.6l-176.1-163.7l200.4-2.3l-0.5-1l-31.4-71.1l199.5,125.5
					L-2207.6,1292.6z M-2070.8,1422l-250-19.8l-8.5-36.4l121.4-71.2L-2070.8,1422z M-2320.5,1403.7l249.2,19.8l-216.6,119.7
					L-2320.5,1403.7z M-2382.9,1397.2l52.2-30.6l8.3,35.4L-2382.9,1397.2z M-2529.3,1166.6l142.9-37.4l0.3,266L-2529.3,1166.6z
					 M-2637.4,1199.1l106.7-32.1l142.5,227.5L-2637.4,1199.1z M-2783.9,1084.3l250.9,81.9l-105.9,31.8L-2783.9,1084.3z
					 M-2640.7,1198.5l-187.2,56.3l40.6-171.2L-2640.7,1198.5z M-3150.5,1256.3l320.2,0.4l-155.5,235.1L-3150.5,1256.3z
					 M-3338,1148.5l98.3,9.3l-19.3,75.2l-58.6-12L-3338,1148.5z M-3340,1146.7l-106.2-10l58.8-159.3L-3340,1146.7z M-3535.8,1249.7
					l49.1-61.6l167.9,34.2l16.6,59.1l-173.5,30.7L-3535.8,1249.7z M-3478.2,1311.7l-91.5-19.3l33-41.5L-3478.2,1311.7z
					 M-3286.4,1337.8l-184.7-24.9l169.3-30L-3286.4,1337.8z M-3317.2,1222.6l57.8,11.8l-10.6,41.3l-30.8,5.4L-3317.2,1222.6z
					 M-3153.9,1254.3l-103.6-21.1l19.2-74.6L-3153.9,1254.3z M-3148.5,1254.7l104.9-49.9l208.4,50.2L-3148.5,1254.7z
					 M-3268.3,1275.4l10.5-40.7l102,20.8L-3268.3,1275.4z M-3270.3,1277.2l-15.1,58.5l-14.9-53.2L-3270.3,1277.2z M-3477.4,1313.4
					L-3592,1435l21.6-141.2L-3477.4,1313.4z M-3737.9,1482.1l166-187.5l-21.7,142.1L-3737.9,1482.1z M-3621.3,1162.7l83.6,87
					l-32.9,41.3L-3621.3,1162.7z M-3488.3,1187.7l-48.4,60.8l-84.4-87.9L-3488.3,1187.7z M-3446.9,1138.2l107.4,10.1l20.3,72.3
					l-166.4-33.9L-3446.9,1138.2z M-3613.8,871.6l225.5,103.8l-59.1,160.3L-3613.8,871.6z M-3409.2,869.6l20.5,102.5l-0.4-0.5
					l0.5,1.9l-223.9-103L-3409.2,869.6z M-3240.4,1156.1l-98-9.2l-47.3-168.6L-3240.4,1156.1z M-3045.9,1204.3l-105.7,50.3
					l-84.9-96.2L-3045.9,1204.3z M-2897.2,1135.2l67,119.5l-211.2-50.9L-2897.2,1135.2z M-2789.4,1082.2l-107.2,51l-74.2-132.4
					L-2789.4,1082.2z M-2788.7,1083.5l-40.4,170.2l-66.9-119.2L-2788.7,1083.5z M-2473.2,1118.9l-57.3,46.4l-249.8-81.5
					L-2473.2,1118.9z M-2389.6,1128.4l-137.5,36l56-45.3L-2389.6,1128.4z M-2412.8,1072l26,55.3l-82.6-9.4L-2412.8,1072z
					 M-2530.6,817.8l128.8,55.8v0.1l10.9,178.5l-21.3,17.3L-2530.6,817.8z M-2528.3,817.1l120.7,2.4l5.9,52.5L-2528.3,817.1z
					 M-2416.6,740.8l8.8,77.3l-121.9-2.5L-2416.6,740.8z M-2415.3,738.2l-7-61.7l83.1-68.8l65.5,36.8L-2415.3,738.2z M-2493.9,520.7
					l153.3,86.2l-82.2,68L-2493.9,520.7z M-2263.6,543.1l-75.8,62.7l-152.8-85.9L-2263.6,543.1z M-2092.1,439.7l-39.3,110.3
					l-128.1-8L-2092.1,439.7z M-1903.1,322.3l-186.1,113.8l93.7-263.8L-1903.1,322.3z M-1993.9,172.1l143.3,52.9l-51.6,96
					L-1993.9,172.1z M-1992.5,171l183-22.1l-40.2,74.8L-1992.5,171z M-1756.2,49.8l-52.4,97.4l-182.9,22.1L-1756.2,49.8z
					 M-1700.6,134.2l-106.2,12.9l52.4-97.5L-1700.6,134.2z M-1492.6,109l-206.6,25l-53.8-84.8L-1492.6,109z M-1489.4,110.1
					l-89.8,212.6l-119-187.3L-1489.4,110.1z M-1398,379l-180-55.1l89.8-212.5L-1398,379z M-1272.4,419l-87.6,68l-35.7-105.7
					L-1272.4,419z M-1094.4,473.4l-263.6,13.9l87.4-67.8L-1094.4,473.4z M-1269.1,418.4l154.4-119.9l23.7,174.3L-1269.1,418.4z
					 M-1113.3,297.8l216.3-28.7l-192.5,203.2L-1113.3,297.8z M-814.3,181l-298.8,114.9l60.4-275.3L-814.3,181z M-711.1,120.7
					l4.9,41.8l-102.7,17.3L-711.1,120.7z M-709.9,118.2l-7-60l33,44.3L-709.9,118.2z M-466.7-144.6L-436-5.1l-93.7,15.1
					L-466.7-144.6z M-347.4-241.1l-25.3,68l-90.5,24.4L-347.4-241.1z M-237.2-487.3l38.3,266.9L-344.6-244L-237.2-487.3z
					 M-86.8-206.3l-110.5-13.9l-38.1-265.7L-86.8-206.3z M0.6-41.9l-196.2-176.5l109.7,13.8L0.6-41.9z M-84.1-204.4l194,24.4
					L3.3-39.9L-84.1-204.4z M111.4-179.5L284.6-46.9L4.8-39.3L111.4-179.5z M350.3-332.6l55.2,282L112.8-180.7L350.3-332.6z
					 M521-20.3l-26,33l-84.9-60.3L521-20.3z M523.6-21.2l37.5-47.4l-7.9,54.7L523.6-21.2z M727.6,31.5l75.8,54.8l-47,24.5
					L727.6,31.5z M727.6,29.7l153.8-64.8l-77,120.3L727.6,29.7z"/>
				<path class="st6" d="M432.4,75.5c-0.2,7.5,5.7,13.7,13.2,13.9c7.5,0.2,13.7-5.7,13.9-13.2s-5.7-13.7-13.2-13.9c0,0,0,0,0,0
					C438.8,62.1,432.6,68,432.4,75.5z"/>
				<path class="st6" d="M788.2,229.3c-0.1,5.8,4.5,10.6,10.3,10.8c5.8,0.1,10.6-4.5,10.8-10.3c0.1-5.8-4.5-10.6-10.3-10.8
					C793.1,218.9,788.3,223.5,788.2,229.3C788.2,229.3,788.2,229.3,788.2,229.3z"/>
				<path class="st6" d="M618.2,178.1c-0.1,5.8,4.5,10.6,10.3,10.8c5.8,0.1,10.6-4.5,10.8-10.3c0.1-5.8-4.5-10.6-10.3-10.8
					c0,0,0,0,0,0C623.1,167.7,618.3,172.3,618.2,178.1z"/>
				<path class="st6" d="M718.6,29.3c-0.1,4.2,3.2,7.6,7.3,7.7c4.2,0.1,7.6-3.2,7.7-7.3c0.1-4.2-3.2-7.6-7.3-7.7c0,0,0,0,0,0
					C722.1,21.9,718.7,25.1,718.6,29.3C718.6,29.3,718.6,29.3,718.6,29.3z"/>
				<path class="st6" d="M797.5,86.4c-0.1,4.2,3.2,7.6,7.3,7.7c4.2,0.1,7.6-3.2,7.7-7.3s-3.2-7.6-7.3-7.7c0,0,0,0,0,0
					C801.1,79,797.7,82.2,797.5,86.4z"/>
				<path class="st6" d="M500.6,302.4c-0.1,4.2,3.2,7.6,7.4,7.7s7.6-3.2,7.7-7.4c0.1-4.2-3.2-7.6-7.3-7.7
					C504.1,294.9,500.7,298.2,500.6,302.4C500.6,302.3,500.6,302.3,500.6,302.4z"/>
			</g>
		</g>
	</g>
</g>
</svg>
