<?xml version="1.0" encoding="utf-8"?>
<!-- Generator: Adobe Illustrator 23.0.3, SVG Export Plug-In . SVG Version: 6.00 Build 0)  -->
<svg version="1.1" id="Layer_1" xmlns="http://www.w3.org/2000/svg" xmlns:xlink="http://www.w3.org/1999/xlink" x="0px" y="0px"
	 viewBox="0 0 372 90" style="enable-background:new 0 0 372 90;" xml:space="preserve">
<style type="text/css">
	.st0{fill:#054447;}
	.st1{fill:#033030;}
	.st2{fill:#6E989B;}
</style>
<g>
	<path class="st0" d="M15.8,29.3h22.7V36H23.8v5.2h14.4v6.8H23.8v12.3h-8V29.3z"/>
	<path class="st0" d="M62.5,28.7c9.5,0,16.5,6.6,16.5,16c0,9.4-7.1,16-16.5,16c-9.5,0-16.6-6.6-16.6-16C45.9,35.3,53,28.7,62.5,28.7
		z M62.5,35.8c-5.2,0-8.5,3.9-8.5,9c0,5,3.3,9,8.5,9c5.1,0,8.4-4,8.4-9C70.9,39.7,67.6,35.8,62.5,35.8z"/>
	<path class="st0" d="M87.8,29.3h8.1v18.2c0,3.7,2,6.3,6.3,6.3c4.3,0,6.2-2.6,6.2-6.3V29.3h8.1v18.4c0,7.7-4.4,13.2-14.4,13.2
		c-9.9,0-14.4-5.5-14.4-13.1V29.3z"/>
	<path class="st0" d="M134.7,41.5v18.7h-8v-31h8.2l12.5,17.8V29.3h8v31h-7.7L134.7,41.5z"/>
	<path class="st0" d="M222.6,55.6h-12.9l-1.6,4.7h-8.7l11.7-31h10l11.7,31h-8.7L222.6,55.6z M211.8,48.8h8.7l-4.4-12.6L211.8,48.8z"
		/>
	<path class="st0" d="M243.8,36.2h-8.7v-7h25.3v7h-8.6v24h-8V36.2z"/>
	<path class="st0" d="M268.9,29.3h8v31h-8V29.3z"/>
	<path class="st0" d="M302.1,28.7c9.5,0,16.5,6.6,16.5,16c0,9.4-7.1,16-16.5,16c-9.5,0-16.6-6.6-16.6-16
		C285.5,35.3,292.6,28.7,302.1,28.7z M302.1,35.8c-5.2,0-8.5,3.9-8.5,9c0,5,3.3,9,8.5,9c5.1,0,8.4-4,8.4-9
		C310.5,39.7,307.2,35.8,302.1,35.8z"/>
	<path class="st0" d="M335.4,41.5v18.7h-8v-31h8.2l12.5,17.8V29.3h8v31h-7.7L335.4,41.5z"/>
	<polygon class="st0" points="161.5,17.3 160.4,12 149,12 	"/>
	<g>
		<rect x="166.8" y="45.9" transform="matrix(0.982 -0.1888 0.1888 0.982 -5.7234 32.355)" class="st0" width="0.3" height="0.5"/>
		<rect x="166.4" y="43.8" transform="matrix(0.982 -0.1888 0.1888 0.982 -5.3316 32.2398)" class="st0" width="0.3" height="0.5"/>
		<rect x="166.2" y="42.8" transform="matrix(0.982 -0.1888 0.1888 0.982 -5.1358 32.1822)" class="st0" width="0.3" height="0.5"/>
		<rect x="167" y="47" transform="matrix(0.982 -0.1888 0.1888 0.982 -5.9192 32.4127)" class="st0" width="0.3" height="0.5"/>
		<rect x="166.6" y="44.9" transform="matrix(0.982 -0.1888 0.1888 0.982 -5.5275 32.2974)" class="st0" width="0.3" height="0.5"/>
		
			<rect x="168.7" y="51.5" transform="matrix(0.1528 -0.9883 0.9883 0.1528 91.8926 210.781)" class="st0" width="0.3" height="0.5"/>
		<polygon class="st0" points="168.1,51.5 168,51.2 167.8,51.3 167.9,51.8 168.1,51.8 168.1,51.6 168.1,51.6 168.1,51.6 		"/>
		<polygon class="st0" points="167.8,50.1 167.6,50.2 167.7,50.7 167.9,50.7 		"/>
		<rect x="167.4" y="49.1" transform="matrix(0.982 -0.1888 0.1888 0.982 -6.3109 32.5279)" class="st0" width="0.3" height="0.5"/>
		<rect x="167.2" y="48.1" transform="matrix(0.982 -0.1888 0.1888 0.982 -6.1151 32.4703)" class="st0" width="0.3" height="0.5"/>
		
			<rect x="171.9" y="47.6" transform="matrix(0.9498 -0.3128 0.3128 0.9498 -6.3347 56.228)" class="st0" width="0.3" height="0.5"/>
		<rect x="172.3" y="48.6" transform="matrix(0.9501 -0.312 0.312 0.9501 -6.6444 56.2239)" class="st0" width="0.3" height="0.5"/>
		<polygon class="st0" points="169.9,40.9 169.8,40.6 169.9,40.7 170.3,40.4 170.2,40.2 169.8,40.4 169.7,40.1 169.4,40.2 
			169.5,40.5 169.2,40.5 169.2,40.7 169.6,40.8 169.7,41 		"/>
		
			<rect x="170.9" y="44.5" transform="matrix(0.9498 -0.3128 0.3128 0.9498 -5.4256 55.7592)" class="st0" width="0.3" height="0.5"/>
		<polygon class="st0" points="172.9,50.7 173,51.2 173.3,51.1 173.1,50.6 		"/>
		<polygon class="st0" points="173.6,52.2 173.4,51.6 173.2,51.7 173.4,52.2 		"/>
		
			<rect x="167.2" y="40.2" transform="matrix(9.147098e-02 -0.9958 0.9958 9.147098e-02 111.7173 203.3259)" class="st0" width="0.3" height="0.5"/>
		<rect x="165.8" y="40.7" transform="matrix(0.982 -0.1888 0.1888 0.982 -4.7441 32.0669)" class="st0" width="0.3" height="0.5"/>
		
			<rect x="168.2" y="40.3" transform="matrix(9.147098e-02 -0.9958 0.9958 9.147098e-02 112.5928 204.4824)" class="st0" width="0.3" height="0.5"/>
		<rect x="166" y="41.7" transform="matrix(0.982 -0.1888 0.1888 0.982 -4.94 32.1245)" class="st0" width="0.3" height="0.5"/>
		
			<rect x="166.1" y="40.1" transform="matrix(9.147098e-02 -0.9958 0.9958 9.147098e-02 110.8412 202.1699)" class="st0" width="0.3" height="0.5"/>
		
			<rect x="171.6" y="46.6" transform="matrix(0.9498 -0.3128 0.3128 0.9498 -6.0316 56.0717)" class="st0" width="0.3" height="0.5"/>
		
			<rect x="171.9" y="52" transform="matrix(0.1526 -0.9883 0.9883 0.1526 94.1299 214.3641)" class="st0" width="0.3" height="0.5"/>
		
			<rect x="173" y="52.2" transform="matrix(0.1528 -0.9883 0.9883 0.1528 94.8448 215.5438)" class="st0" width="0.3" height="0.5"/>
		
			<rect x="171.3" y="45.5" transform="matrix(0.9498 -0.3128 0.3128 0.9498 -5.7286 55.9155)" class="st0" width="0.3" height="0.5"/>
		<polygon class="st0" points="170,42 170.3,41.9 170.1,41.4 169.8,41.5 		"/>
		<polygon class="st0" points="172.8,49.6 172.5,49.7 172.7,50.2 172.9,50.1 		"/>
		
			<rect x="170.9" y="51.9" transform="matrix(0.1528 -0.9883 0.9883 0.1528 93.3683 213.1619)" class="st0" width="0.3" height="0.5"/>
		<polygon class="st0" points="169.7,52.1 170.2,52.1 170.2,51.9 169.7,51.8 		"/>
		<polygon class="st0" points="170.4,42.4 170.2,42.5 170.3,43 170.6,43 		"/>
		<polygon class="st0" points="170.8,43.5 170.5,43.6 170.7,44.1 170.9,44 		"/>
		<rect x="175" y="42.7" transform="matrix(0.9015 -0.4328 0.4328 0.9015 -1.3594 80.0578)" class="st0" width="0.3" height="0.5"/>
		<polygon class="st0" points="171.5,39.3 171.7,39.5 172.1,39.2 172,39 		"/>
		
			<rect x="176.4" y="45.7" transform="matrix(0.9011 -0.4336 0.4336 0.9011 -2.4518 81.1013)" class="st0" width="0.3" height="0.5"/>
		<polygon class="st0" points="176.7,49.6 176.9,49.8 177.3,49.4 177.2,49.2 		"/>
		<polygon class="st0" points="175.1,51 175.3,51.2 175.7,50.9 175.5,50.7 		"/>
		<rect x="176" y="44.7" transform="matrix(0.9015 -0.4328 0.4328 0.9015 -2.1076 80.6522)" class="st0" width="0.3" height="0.5"/>
		<polygon class="st0" points="170.6,39.9 170.8,40.1 171.2,39.8 171.1,39.6 		"/>
		
			<rect x="175.5" y="43.7" transform="matrix(0.9011 -0.4336 0.4336 0.9011 -1.7026 80.5057)" class="st0" width="0.3" height="0.5"/>
		
			<rect x="174.6" y="41.8" transform="matrix(0.9011 -0.4336 0.4336 0.9011 -0.9533 79.9099)" class="st0" width="0.3" height="0.5"/>
		
			<rect x="176.9" y="46.6" transform="matrix(0.9011 -0.4336 0.4336 0.9011 -2.8264 81.3992)" class="st0" width="0.3" height="0.5"/>
		<polygon class="st0" points="178,48.5 177.7,48.7 177.8,48.7 177.6,48.9 177.7,49.1 178.1,48.8 		"/>
		
			<rect x="177.4" y="47.6" transform="matrix(0.9011 -0.4336 0.4336 0.9011 -3.2009 81.6971)" class="st0" width="0.3" height="0.5"/>
		
			<rect x="173.2" y="38.9" transform="matrix(0.9011 -0.4336 0.4336 0.9011 0.1705 79.0165)" class="st0" width="0.3" height="0.5"/>
		
			<rect x="173.6" y="39.8" transform="matrix(0.9011 -0.4336 0.4336 0.9011 -0.2041 79.3144)" class="st0" width="0.3" height="0.5"/>
		<polygon class="st0" points="175.9,50.3 176.1,50.5 176.5,50.2 176.3,49.9 		"/>
		<polygon class="st0" points="174.3,51.7 174.5,51.9 174.9,51.6 174.7,51.4 		"/>
		
			<rect x="174.1" y="40.8" transform="matrix(0.9011 -0.4336 0.4336 0.9011 -0.5787 79.6123)" class="st0" width="0.3" height="0.5"/>
		<polygon class="st0" points="173.5,52.4 173.7,52.6 174.1,52.3 173.9,52.1 		"/>
		<polygon class="st0" points="166.3,24.9 166.6,24.8 166.4,24.3 166.1,24.4 		"/>
		
			<rect x="166.7" y="25.3" transform="matrix(0.9011 -0.4336 0.4336 0.9011 5.3954 74.8622)" class="st0" width="0.3" height="0.5"/>
		
			<rect x="165.3" y="22.4" transform="matrix(0.9011 -0.4336 0.4336 0.9011 6.5193 73.9685)" class="st0" width="0.3" height="0.5"/>
		<polygon class="st0" points="167.3,26.9 167.5,26.8 167.3,26.3 167,26.4 		"/>
		
			<rect x="164.4" y="20.5" transform="matrix(0.9011 -0.4336 0.4336 0.9011 7.2685 73.3729)" class="st0" width="0.3" height="0.5"/>
		
			<rect x="163.9" y="19.5" transform="matrix(0.9011 -0.4336 0.4336 0.9011 7.6431 73.0751)" class="st0" width="0.3" height="0.5"/>
		
			<rect x="167.6" y="27.3" transform="matrix(0.9011 -0.4336 0.4336 0.9011 4.6462 75.4578)" class="st0" width="0.3" height="0.5"/>
		<polygon class="st0" points="164.9,22 165.2,21.9 165,21.4 164.7,21.5 		"/>
		
			<rect x="168.1" y="28.2" transform="matrix(0.9011 -0.4336 0.4336 0.9011 4.2717 75.7556)" class="st0" width="0.3" height="0.5"/>
		
			<rect x="170.4" y="33.1" transform="matrix(0.9011 -0.4336 0.4336 0.9011 2.3988 77.2449)" class="st0" width="0.3" height="0.5"/>
		<rect x="169.9" y="32.1" transform="matrix(0.9011 -0.4336 0.4336 0.9011 2.7733 76.947)" class="st0" width="0.3" height="0.5"/>
		
			<rect x="163.4" y="18.5" transform="matrix(0.9011 -0.4336 0.4336 0.9011 8.0176 72.7772)" class="st0" width="0.3" height="0.5"/>
		<polygon class="st0" points="169.6,31.7 169.8,31.6 169.6,31.1 169.4,31.2 		"/>
		<rect x="170.9" y="34.1" transform="matrix(0.9011 -0.4336 0.4336 0.9011 2.024 77.5428)" class="st0" width="0.3" height="0.5"/>
		
			<rect x="168.5" y="29.2" transform="matrix(0.9011 -0.4336 0.4336 0.9011 3.8971 76.0535)" class="st0" width="0.3" height="0.5"/>
		<rect x="169" y="30.2" transform="matrix(0.9011 -0.4336 0.4336 0.9011 3.5225 76.3514)" class="st0" width="0.3" height="0.5"/>
		
			<rect x="165.8" y="23.4" transform="matrix(0.9011 -0.4336 0.4336 0.9011 6.1448 74.2664)" class="st0" width="0.3" height="0.5"/>
		<polygon class="st0" points="171.9,36.6 172.2,36.5 171.9,36 171.7,36.1 		"/>
		<rect x="171.3" y="35" transform="matrix(0.9011 -0.4336 0.4336 0.9011 1.6494 77.8407)" class="st0" width="0.3" height="0.5"/>
		<rect x="163" y="17.6" transform="matrix(0.9011 -0.4336 0.4336 0.9011 8.3922 72.4793)" class="st0" width="0.3" height="0.5"/>
		<polygon class="st0" points="172.8,38.4 172.4,38.7 172.6,38.9 173,38.6 172.9,38.5 173.1,38.4 172.9,37.9 172.6,38 		"/>
		<rect x="172.3" y="37" transform="matrix(0.9011 -0.4336 0.4336 0.9011 0.9002 78.4362)" class="st0" width="0.3" height="0.5"/>
		<polygon class="st0" points="162.6,17.2 162.9,17.1 162.6,16.6 162.4,16.7 		"/>
		<polygon class="st0" points="162.2,16.2 162.4,16.1 162.2,15.6 161.9,15.7 		"/>
		
			<rect x="161.6" y="14.7" transform="matrix(0.9011 -0.4336 0.4336 0.9011 9.5162 71.5858)" class="st0" width="0.3" height="0.5"/>
		<rect x="163.4" y="21.7" transform="matrix(0.9501 -0.312 0.312 0.9501 1.3014 52.1313)" class="st0" width="0.3" height="0.5"/>
		<rect x="162.1" y="17.6" transform="matrix(0.95 -0.3123 0.3123 0.95 2.5204 51.5557)" class="st0" width="0.3" height="0.5"/>
		<polygon class="st0" points="164.5,24.3 164.3,23.7 164,23.8 164.2,24.3 		"/>
		<polygon class="st0" points="161,14.6 161.2,15.1 161.4,15.1 161.3,14.5 		"/>
		<polygon class="st0" points="164.1,23.2 164,22.7 163.7,22.8 163.9,23.3 		"/>
		<rect x="163.1" y="20.7" transform="matrix(0.95 -0.3123 0.3123 0.95 1.6128 52.0232)" class="st0" width="0.3" height="0.5"/>
		<polygon class="st0" points="162.1,17.1 161.9,16.6 161.7,16.7 161.9,17.2 		"/>
		<rect x="162.8" y="19.7" transform="matrix(0.9501 -0.312 0.312 0.9501 1.906 51.82)" class="st0" width="0.3" height="0.5"/>
		<rect x="162.4" y="18.7" transform="matrix(0.9501 -0.312 0.312 0.9501 2.2082 51.6643)" class="st0" width="0.3" height="0.5"/>
		<polygon class="st0" points="161.8,16.1 161.6,15.6 161.4,15.6 161.5,16.2 		"/>
		<polygon class="st0" points="164.5,33.2 164.3,33.2 164.4,33.8 164.6,33.7 		"/>
		<rect x="165.4" y="38.5" transform="matrix(0.982 -0.1888 0.1888 0.982 -4.3433 31.949)" class="st0" width="0.3" height="0.5"/>
		<polygon class="st0" points="165.4,37.4 165.1,37.5 165.2,38 165.5,37.9 		"/>
		<polygon class="st0" points="164.1,31.1 163.9,31.1 164,31.7 164.2,31.6 		"/>
		
			<rect x="164.9" y="36.4" transform="matrix(0.9817 -0.1907 0.1907 0.9817 -3.9601 32.1471)" class="st0" width="0.3" height="0.5"/>
		
			<rect x="165.6" y="39.6" transform="matrix(0.9817 -0.1907 0.1907 0.9817 -4.5533 32.3222)" class="st0" width="0.3" height="0.5"/>
		<polygon class="st0" points="164.3,32.1 164.1,32.2 164.2,32.7 164.4,32.7 		"/>
		<polygon class="st0" points="164.8,25.3 164.6,24.8 164.4,24.9 164.5,25.4 		"/>
		
			<rect x="164.7" y="35.3" transform="matrix(0.9817 -0.1907 0.1907 0.9817 -3.7625 32.0887)" class="st0" width="0.3" height="0.5"/>
		<polygon class="st0" points="164.7,34.3 164.5,34.3 164.6,34.8 164.9,34.8 		"/>
		<rect x="169.1" y="39.1" transform="matrix(0.9501 -0.312 0.312 0.9501 -3.8371 54.778)" class="st0" width="0.3" height="0.5"/>
		<rect x="161.5" y="18.4" transform="matrix(0.982 -0.1888 0.1888 0.982 -0.6222 30.8542)" class="st0" width="0.3" height="0.5"/>
		<rect x="161.3" y="17.4" transform="matrix(0.982 -0.1888 0.1888 0.982 -0.4264 30.7965)" class="st0" width="0.3" height="0.5"/>
		
			<rect x="160.9" y="15.3" transform="matrix(0.982 -0.1888 0.1888 0.982 -3.469495e-02 30.6813)" class="st0" width="0.3" height="0.5"/>
		<rect x="161.1" y="16.3" transform="matrix(0.982 -0.1888 0.1888 0.982 -0.2306 30.7389)" class="st0" width="0.3" height="0.5"/>
		
			<rect x="163.1" y="26.9" transform="matrix(0.9817 -0.1907 0.1907 0.9817 -2.1809 31.6218)" class="st0" width="0.3" height="0.5"/>
		<polygon class="st0" points="160.8,14.1 161.1,14 161.1,14 161.2,14.3 161.5,14.1 161.2,13.7 161,13.8 160.9,13.5 160.7,13.6 
			160.7,13.1 160.4,13.2 160.5,13.7 160.7,13.7 		"/>
		<polygon class="st0" points="165.1,26.3 165,25.8 164.7,25.9 164.9,26.4 		"/>
		<polygon class="st0" points="160.6,13.1 160.8,13.3 161,13.2 160.8,12.7 160.7,12.7 160.6,12.5 160.5,12.5 160.5,12.2 160.5,12.2 
			160.4,12 160.2,12.1 160.2,12.1 160.3,12.6 160.4,12.6 160.5,13.1 		"/>
		<polygon class="st0" points="162.9,24.7 162.6,24.8 162.7,25.3 163,25.3 		"/>
		
			<rect x="162.9" y="25.8" transform="matrix(0.9817 -0.1907 0.1907 0.9817 -1.9832 31.5634)" class="st0" width="0.3" height="0.5"/>
		
			<rect x="162.5" y="23.7" transform="matrix(0.9813 -0.1925 0.1925 0.9813 -1.5737 31.7509)" class="st0" width="0.3" height="0.5"/>
		<polygon class="st0" points="162.5,22.6 162.2,22.7 162.3,23.2 162.6,23.2 		"/>
		<rect x="161.7" y="19.5" transform="matrix(0.982 -0.1888 0.1888 0.982 -0.8181 30.9118)" class="st0" width="0.3" height="0.5"/>
		<rect x="161.9" y="20.5" transform="matrix(0.982 -0.1888 0.1888 0.982 -1.0139 30.9694)" class="st0" width="0.3" height="0.5"/>
		<polygon class="st0" points="162.3,21.6 162,21.6 162.1,22.2 162.4,22.1 		"/>
		<rect x="160.6" y="14.2" transform="matrix(0.982 -0.1888 0.1888 0.982 0.1612 30.6237)" class="st0" width="0.3" height="0.5"/>
		<rect x="163.7" y="30" transform="matrix(0.9817 -0.1907 0.1907 0.9817 -2.7741 31.7969)" class="st0" width="0.3" height="0.5"/>
		<rect x="166.5" y="30.9" transform="matrix(0.95 -0.3123 0.3123 0.95 -1.4124 53.5819)" class="st0" width="0.3" height="0.5"/>
		<rect x="166.1" y="29.9" transform="matrix(0.9501 -0.312 0.312 0.9501 -1.1167 53.3768)" class="st0" width="0.3" height="0.5"/>
		<rect x="165.1" y="26.8" transform="matrix(0.9501 -0.312 0.312 0.9501 -0.2098 52.9098)" class="st0" width="0.3" height="0.5"/>
		<rect x="165.8" y="28.9" transform="matrix(0.9501 -0.312 0.312 0.9501 -0.8144 53.2212)" class="st0" width="0.3" height="0.5"/>
		<polygon class="st0" points="167.1,32.4 167,31.9 166.7,32 166.9,32.5 		"/>
		<rect x="165.5" y="27.9" transform="matrix(0.95 -0.3123 0.3123 0.95 -0.5048 53.1144)" class="st0" width="0.3" height="0.5"/>
		<rect x="168.1" y="36" transform="matrix(0.9501 -0.312 0.312 0.9501 -2.9303 54.311)" class="st0" width="0.3" height="0.5"/>
		<rect x="168.8" y="38.1" transform="matrix(0.95 -0.3123 0.3123 0.95 -3.53 54.6731)" class="st0" width="0.3" height="0.5"/>
		<polygon class="st0" points="163.5,27.9 163.3,28 163.4,28.5 163.6,28.4 		"/>
		
			<rect x="168.5" y="37.1" transform="matrix(0.9498 -0.3128 0.3128 0.9498 -3.2171 54.6205)" class="st0" width="0.3" height="0.5"/>
		<rect x="163.5" y="29" transform="matrix(0.9817 -0.1907 0.1907 0.9817 -2.5764 31.7385)" class="st0" width="0.3" height="0.5"/>
		<polygon class="st0" points="168.1,35.5 168,35 167.7,35.1 167.9,35.6 		"/>
		<polygon class="st0" points="167.5,33.5 167.3,32.9 167.1,33 167.2,33.5 		"/>
		<polygon class="st0" points="167.6,34 167.4,34.1 167.6,34.6 167.8,34.5 		"/>
	</g>
	<polygon class="st0" points="173.9,52.6 177.8,49.2 180.8,55.4 176,59.1 	"/>
	<polygon class="st0" points="176.2,59.6 181.1,56 185,64.1 178.9,67.9 	"/>
	<polygon class="st0" points="179.1,68.5 185.2,64.6 188.5,71.4 182.2,77.9 	"/>
	<polygon class="st1" points="171.2,66.7 170.5,63.1 175.7,60 178.4,68 	"/>
	<polygon class="st1" points="173,75.8 171.3,67.3 178.6,68.6 181.6,78 	"/>
	<polygon class="st0" points="189,71.8 196.4,71.9 183.3,77.6 	"/>
	<polygon class="st2" points="155.9,65.1 157.8,65.7 145.8,76.1 	"/>
	<polygon class="st2" points="156.3,64.6 163.2,57.2 166.7,58 158.3,65.3 	"/>
	<polygon class="st2" points="163.6,56.7 168.1,52 172.9,52.7 167.3,57.6 	"/>
	<polygon class="st0" points="158.1,66.2 159,69.2 144.9,77.6 	"/>
	<polygon class="st0" points="158.7,65.8 167.2,58.4 168.3,63.7 159.6,68.9 	"/>
	<polygon class="st0" points="167.7,58 173.5,53 175.5,59.4 168.9,63.4 	"/>
	<polygon class="st1" points="189,71.2 188.5,70.2 194.4,71.3 	"/>
	<path class="st2" d="M168.2,51.4l-0.3-1.3c0.2-0.1,0.4-0.4,0.5-0.8c0-0.1,0-0.2,0-0.3c0-0.2,0-0.4,0.1-0.5c0.1-0.1,0.3-0.2,0.4-0.3
		c0.2-0.1,0.4-0.2,0.6-0.4c0.3-0.4,0.4-0.9,0.3-1.6c0-0.2-0.1-0.4-0.2-0.5c-0.1-0.3-0.2-0.5-0.2-0.7c-0.1-0.6,0.2-1.2,0.7-1.6
		l2.9,8.9L168.2,51.4z"/>
	<path class="st0" d="M170.8,43C170.8,43,170.8,43,170.8,43c0.4,0,0.8,0.2,1.3,0.5c0.4,0.3,0.8,0.6,1.1,1l0.1,0.1
		c0.1,0.1,0.2,0.3,0.4,0.4c0.5,0.4,1.2,0.6,2,0.6c0.1,0,0.2,0,0.3,0l1.5,3.1l-3.8,3.3L170.8,43z"/>
	<g>
		<path class="st0" d="M195.6,44.7c0-9.6-7-15.5-16.8-15.5h-7.2l3.4,7h3.9c5.7,0,8.6,3.7,8.6,8.5c0,3.3-1.7,6.3-4.6,7.7l3.2,6.6
			C191.8,56.8,195.6,51.8,195.6,44.7z"/>
	</g>
</g>
</svg>
