<svg xmlns="http://www.w3.org/2000/svg" xmlns:xlink="http://www.w3.org/1999/xlink" viewBox="0 0 106 44" fill="#fff" fill-rule="evenodd" stroke="#000" stroke-linecap="round" stroke-linejoin="round"><style><![CDATA[.B{fill-rule:nonzero}]]></style><use xlink:href="#D" x=".5" y=".5"/><defs><linearGradient id="A" x1="0.17%" y1="49.65%" x2="99.82%" y2="49.65%"><stop offset="0%" stop-color="#656565"/><stop offset="100%" stop-color="#010101"/></linearGradient><linearGradient id="B" x1="0.17%" y1="50.05%" x2="99.82%" y2="50.05%"><stop offset="0%" stop-color="#9f1c20"/><stop offset="100%" stop-color="#ed2224"/></linearGradient><path id="C" d="M0 16.322s24.482 2.448 24.482 6.53v-9.793s0-4.08-24.482-6.53z"/></defs><symbol id="D" overflow="visible"><g stroke="none"><g fill="url(#A)" class="B"><use xlink:href="#C"/><use xlink:href="#C" y="13.058"/></g><g fill="url(#B)"><path d="M24.482 0v9.793s0 4.08-24.482 6.53V6.53S24.482 4.08 24.482 0" class="B"/><path d="M0 19.586s24.482-2.448 24.482-6.53v9.793s0 4.08-24.482 6.53z" class="B"/><path d="M0 42.436v-9.793s24.482-2.448 24.482-6.53v9.793s0 4.08-24.482 6.53" class="B"/></g><path d="M33.934 31.1l1.004-4.434c1.192.335 2.3.816 3.472.962s2.385.063 3.556-.063c.67-.063 1.13-.586 1.213-1.318.063-.7-.293-1.213-.88-1.506l-2.236-1.023-2.97-1.422c-1.945-1.15-3.117-2.824-3-5.187.125-2.385 1.34-4.08 3.4-5.166 1.966-1.046 4.1-1.276 6.275-1.025 1.4.167 2.76.607 4.204.962l-1.17 4.434c-1.234-.377-2.405-.753-3.62-.88-.837-.084-1.757 0-2.552.25-1.192.377-1.34 1.694-.293 2.385.732.48 1.6.774 2.426 1.13 1.067.502 2.196.88 3.18 1.506 3.995 2.468 3.765 8.178-.376 10.417-2.154 1.15-4.476 1.422-6.86 1.213-1.6-.167-3.18-.502-4.77-1.234zm45.243.9h-4.853l-.397-1.34c-1.213 1.213-2.615 1.673-4.204 1.673-2.447 0-4.246-1.297-4.853-3.493-.628-2.3.356-4.623 2.426-5.836 1.694-.983 3.556-1.213 5.46-1.36.23-.02.44-.02.67-.042-.105-.88-.607-1.276-1.673-1.36-1.736-.146-3.347.23-5.02 1.067l-1.025-3.62c1.34-.377 2.594-.9 3.9-1.046 1.6-.167 3.284-.167 4.874.105 2.656.48 4.288 2.615 4.413 5.5.084 2.008.063 4.037.063 6.045.02 1.213.02 2.72.2 3.702zm-5.543-6.903c-1.025-.126-1.924.042-2.782.523-.586.335-.92.9-.774 1.548.105.418.377.94.732 1.15 1.088.628 2.615-.167 2.782-1.422.105-.586.042-1.17.042-1.8zm31.354 6.882h-4.853l-.397-1.34c-1.213 1.213-2.615 1.673-4.204 1.673-2.447 0-4.246-1.297-4.853-3.493-.628-2.3.356-4.623 2.426-5.836 1.694-.983 3.556-1.213 5.46-1.36.23-.02.44-.02.67-.042-.105-.88-.607-1.276-1.673-1.36-1.736-.146-3.347.23-5.02 1.067l-1.025-3.62c1.34-.377 2.594-.9 3.9-1.046 1.6-.167 3.284-.167 4.874.105 2.656.48 4.288 2.615 4.413 5.5.084 2.008.063 4.037.063 6.045 0 1.234.02 2.72.2 3.702zm-5.543-6.903c-1.025-.126-1.924.042-2.782.523-.586.335-.92.9-.774 1.548.105.418.377.94.732 1.15 1.088.628 2.615-.167 2.782-1.422.105-.565.042-1.17.042-1.8zm-37.022-4.038c-2.008-.397-3.9-.774-5.292 1.1-.88 1.192-.88 3.305 0 4.455 1.422 1.903 3.4 1.527 5.46 1.17l.544 4.037c.17 1.347-.02 0-.25.084-3.765 1.025-8.178.293-10.166-2.03-2.05-2.385-2.3-5.187-1.38-8.095.9-2.866 3.054-4.455 5.9-5.062a11.22 11.22 0 0 1 5.459.146l.46.126-.732 4.058zm20.1-11.002h5.397v21.92h-5.397z" fill="#231f20" class="B"/></g></symbol></svg>